{
  "accessors": [
    {
      "bufferView": 0,
      "componentType": 5126,
      "count": 196,
      "max": [
        53.14267349243164,
        2.2260653972625732,
        21.65354347229004
      ],
      "min": [
        52.732566833496094,
        -28.746017456054688,
        11.811023712158203
      ],
      "type": "VEC3"
    },
    {
      "bufferView": 0,
      "byteOffset": 12,
      "componentType": 5126,
      "count": 196,
      "type": "VEC3"
    },
    {
      "bufferView": 0,
      "byteOffset": 24,
      "componentType": 5126,
      "count": 196,
      "type": "VEC2"
    },
    {
      "bufferView": 1,
      "componentType": 5125,
      "count": 444,
      "type": "SCALAR"
    },
    {
      "bufferView": 2,
      "componentType": 5126,
      "count": 24,
      "max": [
        52.732566833496094,
        2.2260653972625732,
        21.65354347229004
      ],
      "min": [
        50.35395812988281,
        1.81596040725708,
        11.811023712158203
      ],
      "type": "VEC3"
    },
    {
      "bufferView": 2,
      "byteOffset": 12,
      "componentType": 5126,
      "count": 24,
      "type": "VEC3"
    },
    {
      "bufferView": 2,
      "byteOffset": 24,
      "componentType": 5126,
      "count": 24,
      "type": "VEC2"
    },
    {
      "bufferView": 3,
      "componentType": 5125,
      "count": 36,
      "type": "SCALAR"
    },
    {
      "bufferView": 4,
      "componentType": 5126,
      "count": 28,
      "max": [
        50.0668830871582,
        5.441288471221924,
        21.65354347229004
      ],
      "min": [
        49.65678024291992,
        2.4914450645446777,
        11.811023712158203
      ],
      "type": "VEC3"
    },
    {
      "bufferView": 4,
      "byteOffset": 12,
      "componentType": 5126,
      "count": 28,
      "type": "VEC3"
    },
    {
      "bufferView": 4,
      "byteOffset": 24,
      "componentType": 5126,
      "count": 28,
      "type": "VEC2"
    },
    {
      "bufferView": 5,
      "componentType": 5125,
      "count": 48,
      "type": "SCALAR"
    },
    {
      "bufferView": 6,
      "componentType": 5126,
      "count": 24,
      "max": [
        52.732566833496094,
        -2.265404462814331,
        21.65354347229004
      ],
      "min": [
        42.88184356689453,
        -2.675509452819824,
        11.811023712158203
      ],
      "type": "VEC3"
    },
    {
      "bufferView": 6,
      "byteOffset": 12,
      "componentType": 5126,
      "count": 24,
      "type": "VEC3"
    },
    {
      "bufferView": 6,
      "byteOffset": 24,
      "componentType": 5126,
      "count": 24,
      "type": "VEC2"
    },
    {
      "bufferView": 7,
      "componentType": 5125,
      "count": 36,
      "type": "SCALAR"
    },
    {
      "bufferView": 8,
      "componentType": 5126,
      "count": 24,
      "max": [
        22.36197280883789,
        1.955396056175232,
        21.65354347229004
      ],
      "min": [
        13.339662551879883,
        1.5452910661697388,
        11.811023712158203
      ],
      "type": "VEC3"
    },
    {
      "bufferView": 8,
      "byteOffset": 12,
      "componentType": 5126,
      "count": 24,
      "type": "VEC3"
    },
    {
      "bufferView": 8,
      "byteOffset": 24,
      "componentType": 5126,
      "count": 24,
      "type": "VEC2"
    },
    {
      "bufferView": 9,
      "componentType": 5125,
      "count": 36,
      "type": "SCALAR"
    },
    {
      "bufferView": 10,
      "componentType": 5126,
      "count": 96,
      "max": [
        0.3285696804523468,
        -0.14285902678966522,
        6.7913384437561035
      ],
      "min": [
        -2.2965879440307617,
        -0.31674355268478394,
        3.1594488620758057
      ],
      "type": "VEC3"
    },
    {
      "bufferView": 10,
      "byteOffset": 12,
      "componentType": 5126,
      "count": 96,
      "type": "VEC3"
    },
    {
      "bufferView": 11,
      "componentType": 5125,
      "count": 144,
      "type": "SCALAR"
    },
    {
      "bufferView": 10,
      "byteOffset": 3072,
      "componentType": 5126,
      "count": 552,
      "max": [
        0.5577427744865417,
        0.1835845410823822,
        6.922572135925293
      ],
      "min": [
        -2.427821636199951,
        -0.37579867243766785,
        2.952755928039551
      ],
      "type": "VEC3"
    },
    {
      "bufferView": 10,
      "byteOffset": 3084,
      "componentType": 5126,
      "count": 552,
      "type": "VEC3"
    },
    {
      "bufferView": 11,
      "byteOffset": 576,
      "componentType": 5125,
      "count": 1080,
      "type": "SCALAR"
    },
    {
      "bufferView": 12,
      "componentType": 5126,
      "count": 144,
      "max": [
        1.5643527507781982,
        0.13929320871829987,
        6.7913384437561035
      ],
      "min": [
        -2.4387576580047607,
        -0.31674355268478394,
        3.1594488620758057
      ],
      "type": "VEC3"
    },
    {
      "bufferView": 12,
      "byteOffset": 12,
      "componentType": 5126,
      "count": 144,
      "type": "VEC3"
    },
    {
      "bufferView": 13,
      "componentType": 5125,
      "count": 216,
      "type": "SCALAR"
    },
    {
      "bufferView": 12,
      "byteOffset": 4608,
      "componentType": 5126,
      "count": 864,
      "max": [
        1.7935258150100708,
        0.1835845410823822,
        6.922572135925293
      ],
      "min": [
        -2.6684165000915527,
        -0.37579867243766785,
        2.952755928039551
      ],
      "type": "VEC3"
    },
    {
      "bufferView": 12,
      "byteOffset": 4620,
      "componentType": 5126,
      "count": 864,
      "type": "VEC3"
    },
    {
      "bufferView": 13,
      "byteOffset": 864,
      "componentType": 5125,
      "count": 1692,
      "type": "SCALAR"
    },
    {
      "bufferView": 14,
      "componentType": 5126,
      "count": 48,
      "max": [
        1.2636090517044067,
        -0.14285902678966522,
        6.69291353225708
      ],
      "min": [
        -1.2631233930587769,
        -0.22159919142723083,
        4.242125988006592
      ],
      "type": "VEC3"
    },
    {
      "bufferView": 14,
      "byteOffset": 12,
      "componentType": 5126,
      "count": 48,
      "type": "VEC3"
    },
    {
      "bufferView": 15,
      "componentType": 5125,
      "count": 72,
      "type": "SCALAR"
    },
    {
      "bufferView": 14,
      "byteOffset": 1536,
      "componentType": 5126,
      "count": 360,
      "max": [
        1.4927821159362793,
        0.1835845410823822,
        6.922572135925293
      ],
      "min": [
        -1.4927821159362793,
        -0.37579867243766785,
        3.9370079040527344
      ],
      "type": "VEC3"
    },
    {
      "bufferView": 14,
      "byteOffset": 1548,
      "componentType": 5126,
      "count": 360,
      "type": "VEC3"
    },
    {
      "bufferView": 15,
      "byteOffset": 288,
      "componentType": 5125,
      "count": 684,
      "type": "SCALAR"
    }
  ],
  "asset": {
    "version": "2.0"
  },
  "bufferViews": [
    {
      "buffer": 0,
      "byteLength": 6272,
      "byteStride": 32,
      "target": 34962
    },
    {
      "buffer": 0,
      "byteLength": 1776,
      "byteOffset": 6272,
      "target": 34963
    },
    {
      "buffer": 0,
      "byteLength": 768,
      "byteOffset": 8048,
      "byteStride": 32,
      "target": 34962
    },
    {
      "buffer": 0,
      "byteLength": 144,
      "byteOffset": 8816,
      "target": 34963
    },
    {
      "buffer": 0,
      "byteLength": 896,
      "byteOffset": 8960,
      "byteStride": 32,
      "target": 34962
    },
    {
      "buffer": 0,
      "byteLength": 192,
      "byteOffset": 9856,
      "target": 34963
    },
    {
      "buffer": 0,
      "byteLength": 768,
      "byteOffset": 10048,
      "byteStride": 32,
      "target": 34962
    },
    {
      "buffer": 0,
      "byteLength": 144,
      "byteOffset": 10816,
      "target": 34963
    },
    {
      "buffer": 0,
      "byteLength": 768,
      "byteOffset": 10960,
      "byteStride": 32,
      "target": 34962
    },
    {
      "buffer": 0,
      "byteLength": 144,
      "byteOffset": 11728,
      "target": 34963
    },
    {
      "buffer": 0,
      "byteLength": 20736,
      "byteOffset": 11872,
      "byteStride": 32,
      "target": 34962
    },
    {
      "buffer": 0,
      "byteLength": 4896,
      "byteOffset": 32608,
      "target": 34963
    },
    {
      "buffer": 0,
      "byteLength": 32256,
      "byteOffset": 37504,
      "byteStride": 32,
      "target": 34962
    },
    {
      "buffer": 0,
      "byteLength": 7632,
      "byteOffset": 69760,
      "target": 34963
    },
    {
      "buffer": 0,
      "byteLength": 13056,
      "byteOffset": 77392,
      "byteStride": 32,
      "target": 34962
    },
    {
      "buffer": 0,
      "byteLength": 3024,
      "byteOffset": 90448,
      "target": 34963
    }
  ],
  "buffers": [
    {
      "byteLength": 93472,
      "uri": "28-07-2025.bin"
    }
  ],
  "extensionsUsed": [
    "KHR_texture_transform",
    "KHR_materials_transmission",
    "KHR_materials_clearcoat"
  ],
  "images": [
    {
      "uri": "Brick__Commonbasecolortexture.png"
    }
  ],
  "materials": [
    {
      "name": "Brick__Common",
      "pbrMetallicRoughness": {
        "baseColorFactor": [
          0.47099998593330383,
          0.47099998593330383,
          0.47099998593330383,
          1.0
        ],
        "baseColorTexture": {
          "extensions": {
            "KHR_texture_transform": {
              "scale": [
                0.30000001192092896,
                0.2566410005092621
              ]
            }
          },
          "index": 0
        },
        "metallicFactor": 0.0,
        "roughnessFactor": 0.5
      }
    },
    {
      "extensions": {
        "KHR_materials_transmission": {
          "transmissionFactor": 1.0
        }
      },
      "name": "Glass",
      "pbrMetallicRoughness": {
        "baseColorFactor": [
          0.0,
          0.0,
          0.0,
          1.0
        ],
        "metallicFactor": 0.0,
        "roughnessFactor": 0.0
      }
    },
    {
      "extensions": {
        "KHR_materials_clearcoat": {
          "clearcoatFactor": 1.0,
          "clearcoatRoughnessFactor": 0.0
        }
      },
      "name": "Window_Frame",
      "pbrMetallicRoughness": {
        "baseColorFactor": [
          0.949999988079071,
          0.949999988079071,
          0.949999988079071,
          1.0
        ],
        "metallicFactor": 0.6000000238418579
      }
    }
  ],
  "meshes": [
    {
      "name": "Basic Wall Wall-Ext_215Bwk [345388]001",
      "primitives": [
        {
          "attributes": {
            "NORMAL": 1,
            "POSITION": 0,
            "TEXCOORD_0": 2
          },
          "indices": 3,
          "material": 0,
          "mode": 4
        }
      ]
    },
    {
      "name": "Basic Wall Wall-Ext_215Bwk [345569]001",
      "primitives": [
        {
          "attributes": {
            "NORMAL": 5,
            "POSITION": 4,
            "TEXCOORD_0": 6
          },
          "indices": 7,
          "material": 0,
          "mode": 4
        }
      ]
    },
    {
      "name": "Basic Wall Wall-Ext_215Bwk [346175]001",
      "primitives": [
        {
          "attributes": {
            "NORMAL": 9,
            "POSITION": 8,
            "TEXCOORD_0": 10
          },
          "indices": 11,
          "material": 0,
          "mode": 4
        }
      ]
    },
    {
      "name": "Basic Wall Wall-Ext_215Bwk [346825]001",
      "primitives": [
        {
          "attributes": {
            "NORMAL": 13,
            "POSITION": 12,
            "TEXCOORD_0": 14
          },
          "indices": 15,
          "material": 0,
          "mode": 4
        }
      ]
    },
    {
      "name": "Basic Wall Wall-Ext_215Bwk [350624]001",
      "primitives": [
        {
          "attributes": {
            "NORMAL": 17,
            "POSITION": 16,
            "TEXCOORD_0": 18
          },
          "indices": 19,
          "material": 0,
          "mode": 4
        }
      ]
    },
    {
      "name": "Windows_SCO_Horz_Bar_Dbl 910x1210mm [638105]001",
      "primitives": [
        {
          "attributes": {
            "NORMAL": 21,
            "POSITION": 20
          },
          "indices": 22,
          "material": 1,
          "mode": 4
        },
        {
          "attributes": {
            "NORMAL": 24,
            "POSITION": 23
          },
          "indices": 25,
          "material": 2,
          "mode": 4
        }
      ]
    },
    {
      "name": "Windows_SCO_Horz_Bar_Tpl 1360x1210mm [639437]001",
      "primitives": [
        {
          "attributes": {
            "NORMAL": 27,
            "POSITION": 26
          },
          "indices": 28,
          "material": 1,
          "mode": 4
        },
        {
          "attributes": {
            "NORMAL": 30,
            "POSITION": 29
          },
          "indices": 31,
          "material": 2,
          "mode": 4
        }
      ]
    },
    {
      "name": "Windows_SCO_Horz_Bar_Sgl 910x910mm [640941]001",
      "primitives": [
        {
          "attributes": {
            "NORMAL": 33,
            "POSITION": 32
          },
          "indices": 34,
          "material": 1,
          "mode": 4
        },
        {
          "attributes": {
            "NORMAL": 36,
            "POSITION": 35
          },
          "indices": 37,
          "material": 2,
          "mode": 4
        }
      ]
    }
  ],
  "nodes": [
    {
      "matrix": [
        0.0254,
        0.0,
        0.0,
        0.0,
        0.0,
        0.0254,
        0.0,
        0.0,
        0.0,
        0.0,
        0.0254,
        0.0,
        0.0,
        0.0,
        0.0,
        1.0
      ],
      "mesh": 0,
      "name": "Basic Wall Wall-Ext_215Bwk [345388]001"
    },
    {
      "children": [
        0
      ],
      "matrix": [
        11.999999999999998,
        0.0,
        0.0,
        0.0,
        0.0,
        0.0,
        -11.999999999999998,
        0.0,
        0.0,
        11.999999999999998,
        0.0,
        0.0,
        0.0,
        0.0,
        0.0,
        1.0
      ]
    },
    {
      "matrix": [
        0.0254,
        0.0,
        0.0,
        0.0,
        0.0,
        0.0254,
        0.0,
        0.0,
        0.0,
        0.0,
        0.0254,
        0.0,
        0.0,
        0.0,
        0.0,
        1.0
      ],
      "mesh": 1,
      "name": "Basic Wall Wall-Ext_215Bwk [345569]001"
    },
    {
      "children": [
        2
      ],
      "matrix": [
        11.999999999999998,
        0.0,
        0.0,
        0.0,
        0.0,
        0.0,
        -11.999999999999998,
        0.0,
        0.0,
        11.999999999999998,
        0.0,
        0.0,
        0.0,
        0.0,
        0.0,
        1.0
      ]
    },
    {
      "matrix": [
        0.0254,
        0.0,
        0.0,
        0.0,
        0.0,
        0.0254,
        0.0,
        0.0,
        0.0,
        0.0,
        0.0254,
        0.0,
        0.0,
        0.0,
        0.0,
        1.0
      ],
      "mesh": 2,
      "name": "Basic Wall Wall-Ext_215Bwk [346175]001"
    },
    {
      "children": [
        4
      ],
      "matrix": [
        11.999999999999998,
        0.0,
        0.0,
        0.0,
        0.0,
        0.0,
        -11.999999999999998,
        0.0,
        0.0,
        11.999999999999998,
        0.0,
        0.0,
        0.0,
        0.0,
        0.0,
        1.0
      ]
    },
    {
      "matrix": [
        0.0254,
        0.0,
        0.0,
        0.0,
        0.0,
        0.0254,
        0.0,
        0.0,
        0.0,
        0.0,
        0.0254,
        0.0,
        0.0,
        0.0,
        0.0,
        1.0
      ],
      "mesh": 3,
      "name": "Basic Wall Wall-Ext_215Bwk [346825]001"
    },
    {
      "children": [
        6
      ],
      "matrix": [
        11.999999999999998,
        0.0,
        0.0,
        0.0,
        0.0,
        0.0,
        -11.999999999999998,
        0.0,
        0.0,
        11.999999999999998,
        0.0,
        0.0,
        0.0,
        0.0,
        0.0,
        1.0
      ]
    },
    {
      "matrix": [
        0.0254,
        0.0,
        0.0,
        0.0,
        0.0,
        0.0254,
        0.0,
        0.0,
        0.0,
        0.0,
        0.0254,
        0.0,
        0.0,
        0.0,
        0.0,
        1.0
      ],
      "mesh": 4,
      "name": "Basic Wall Wall-Ext_215Bwk [350624]001"
    },
    {
      "children": [
        8
      ],
      "matrix": [
        11.999999999999998,
        0.0,
        0.0,
        0.0,
        0.0,
        0.0,
        -11.999999999999998,
        0.0,
        0.0,
        11.999999999999998,
        0.0,
        0.0,
        0.0,
        0.0,
        0.0,
        1.0
      ]
    },
    {
      "matrix": [
        0.0254,
        0.0,
        0.0,
        0.0,
        0.0,
        0.0254,
        0.0,
        0.0,
        0.0,
        0.0,
        0.0254,
        0.0,
        0.0,
        0.0,
        0.0,
        1.0
      ],
      "mesh": 5,
      "name": "Windows_SCO_Horz_Bar_Dbl 910x1210mm [638105]001"
    },
    {
      "children": [
        10
      ],
      "matrix": [
        -5.245366310191457e-07,
        0.0,
        -12.0,
        0.0,
        -12.0,
        0.0,
        5.245366310191457e-07,
        0.0,
        0.0,
        12.0,
        0.0,
        0.0,
        16.143842504882812,
        3.6000000274658204,
        3.1702861404418945,
        1.0
      ]
    },
    {
      "matrix": [
        0.0254,
        0.0,
        0.0,
        0.0,
        0.0,
        0.0254,
        0.0,
        0.0,
        0.0,
        0.0,
        0.0254,
        0.0,
        0.0,
        0.0,
        0.0,
        1.0
      ],
      "mesh": 6,
      "name": "Windows_SCO_Horz_Bar_Tpl 1360x1210mm [639437]001"
    },
    {
      "children": [
        12
      ],
      "matrix": [
        -5.245366310191457e-07,
        0.0,
        -12.0,
        0.0,
        -12.0,
        0.0,
        5.245366310191457e-07,
        0.0,
        0.0,
        12.0,
        0.0,
        0.0,
        16.143842504882812,
        3.6000000274658204,
        7.392203051757813,
        1.0
      ]
    },
    {
      "matrix": [
        0.0254,
        0.0,
        0.0,
        0.0,
        0.0,
        0.0254,
        0.0,
        0.0,
        0.0,
        0.0,
        0.0254,
        0.0,
        0.0,
        0.0,
        0.0,
        1.0
      ],
      "mesh": 7,
      "name": "Windows_SCO_Horz_Bar_Sgl 910x910mm [640941]001"
    },
    {
      "children": [
        14
      ],
      "matrix": [
        -5.245366310191457e-07,
        0.0,
        -12.0,
        0.0,
        -12.0,
        0.0,
        5.245366310191457e-07,
        0.0,
        0.0,
        12.0,
        0.0,
        0.0,
        16.143842504882812,
        3.6000000274658204,
        0.06849528012275695,
        1.0
      ]
    }
  ],
  "samplers": [
    {
      "magFilter": 9729,
      "minFilter": 9729,
      "wrapS": 10497,
      "wrapT": 10497
    }
  ],
  "scenes": [
    {
      "nodes": [
        1,
        3,
        5,
        7,
        9,
        11,
        13,
        15
      ]
    }
  ],
  "textures": [
    {
      "name": "texture_source0_sampler0",
      "sampler": 0,
      "source": 0
    }
  ]
}
