{
  "accessors": [
    {
      "bufferView": 0,
      "componentType": 5126,
      "count": 24,
      "max": [
        22.36197280883789,
        1.955396056175232,
        21.65354347229004
      ],
      "min": [
        13.339662551879883,
        1.5452910661697388,
        11.811023712158203
      ],
      "type": "VEC3"
    },
    {
      "bufferView": 0,
      "byteOffset": 12,
      "componentType": 5126,
      "count": 24,
      "type": "VEC3"
    },
    {
      "bufferView": 0,
      "byteOffset": 24,
      "componentType": 5126,
      "count": 24,
      "type": "VEC2"
    },
    {
      "bufferView": 1,
      "componentType": 5125,
      "count": 36,
      "type": "SCALAR"
    },
    {
      "bufferView": 2,
      "componentType": 5126,
      "count": 24,
      "max": [
        22.36197280883789,
        -7.043947696685791,
        21.65354347229004
      ],
      "min": [
        13.339662551879883,
        -7.454052925109863,
        11.811023712158203
      ],
      "type": "VEC3"
    },
    {
      "bufferView": 2,
      "byteOffset": 12,
      "componentType": 5126,
      "count": 24,
      "type": "VEC3"
    },
    {
      "bufferView": 2,
      "byteOffset": 24,
      "componentType": 5126,
      "count": 24,
      "type": "VEC2"
    },
    {
      "bufferView": 3,
      "componentType": 5125,
      "count": 36,
      "type": "SCALAR"
    },
    {
      "bufferView": 4,
      "componentType": 5126,
      "count": 28,
      "max": [
        13.05258846282959,
        -29.1942195892334,
        21.65354347229004
      ],
      "min": [
        12.642483711242676,
        -32.39303970336914,
        11.811023712158203
      ],
      "type": "VEC3"
    },
    {
      "bufferView": 4,
      "byteOffset": 12,
      "componentType": 5126,
      "count": 28,
      "type": "VEC3"
    },
    {
      "bufferView": 4,
      "byteOffset": 24,
      "componentType": 5126,
      "count": 28,
      "type": "VEC2"
    },
    {
      "bufferView": 5,
      "componentType": 5125,
      "count": 48,
      "type": "SCALAR"
    },
    {
      "bufferView": 6,
      "componentType": 5126,
      "count": 56,
      "max": [
        27.25698471069336,
        -20.672239303588867,
        21.65354347229004
      ],
      "min": [
        26.846879959106445,
        -28.20996856689453,
        11.811023712158203
      ],
      "type": "VEC3"
    },
    {
      "bufferView": 6,
      "byteOffset": 12,
      "componentType": 5126,
      "count": 56,
      "type": "VEC3"
    },
    {
      "bufferView": 6,
      "byteOffset": 24,
      "componentType": 5126,
      "count": 56,
      "type": "VEC2"
    },
    {
      "bufferView": 7,
      "componentType": 5125,
      "count": 108,
      "type": "SCALAR"
    },
    {
      "bufferView": 8,
      "componentType": 5126,
      "count": 24,
      "max": [
        26.55980682373047,
        -20.224035263061523,
        21.65354347229004
      ],
      "min": [
        13.339662551879883,
        -20.63414192199707,
        11.811023712158203
      ],
      "type": "VEC3"
    },
    {
      "bufferView": 8,
      "byteOffset": 12,
      "componentType": 5126,
      "count": 24,
      "type": "VEC3"
    },
    {
      "bufferView": 8,
      "byteOffset": 24,
      "componentType": 5126,
      "count": 24,
      "type": "VEC2"
    },
    {
      "bufferView": 9,
      "componentType": 5125,
      "count": 36,
      "type": "SCALAR"
    },
    {
      "bufferView": 10,
      "componentType": 5126,
      "count": 683,
      "max": [
        1.7716535329818726,
        0.27066928148269653,
        7.0374016761779785
      ],
      "min": [
        -1.7716535329818726,
        -0.27066928148269653,
        0.0
      ],
      "type": "VEC3"
    },
    {
      "bufferView": 10,
      "byteOffset": 12,
      "componentType": 5126,
      "count": 683,
      "type": "VEC3"
    },
    {
      "bufferView": 10,
      "byteOffset": 24,
      "componentType": 5126,
      "count": 683,
      "type": "VEC2"
    },
    {
      "bufferView": 11,
      "componentType": 5125,
      "count": 1890,
      "type": "SCALAR"
    },
    {
      "bufferView": 10,
      "byteOffset": 21856,
      "componentType": 5126,
      "count": 96,
      "max": [
        1.6305774450302124,
        0.20505249500274658,
        6.896325588226318
      ],
      "min": [
        -1.6305774450302124,
        -0.20505249500274658,
        -3.580447610471558e-25
      ],
      "type": "VEC3"
    },
    {
      "bufferView": 10,
      "byteOffset": 21868,
      "componentType": 5126,
      "count": 96,
      "type": "VEC3"
    },
    {
      "bufferView": 10,
      "byteOffset": 21880,
      "componentType": 5126,
      "count": 96,
      "type": "VEC2"
    },
    {
      "bufferView": 11,
      "byteOffset": 7560,
      "componentType": 5125,
      "count": 168,
      "type": "SCALAR"
    },
    {
      "bufferView": 10,
      "byteOffset": 24928,
      "componentType": 5126,
      "count": 24,
      "max": [
        -0.4527558982372284,
        0.1722441017627716,
        6.046587944030762
      ],
      "min": [
        -1.1089239120483398,
        0.1131889745593071,
        1.1482939720153809
      ],
      "type": "VEC3"
    },
    {
      "bufferView": 10,
      "byteOffset": 24940,
      "componentType": 5126,
      "count": 24,
      "type": "VEC3"
    },
    {
      "bufferView": 11,
      "byteOffset": 8232,
      "componentType": 5125,
      "count": 36,
      "type": "SCALAR"
    },
    {
      "bufferView": 10,
      "byteOffset": 25696,
      "componentType": 5126,
      "count": 688,
      "max": [
        -0.8792650699615479,
        0.4117453992366791,
        3.379265069961548
      ],
      "min": [
        -1.3795931339263916,
        -0.12631233036518097,
        3.1824147701263428
      ],
      "type": "VEC3"
    },
    {
      "bufferView": 10,
      "byteOffset": 25708,
      "componentType": 5126,
      "count": 688,
      "type": "VEC3"
    },
    {
      "bufferView": 11,
      "byteOffset": 8376,
      "componentType": 5125,
      "count": 2064,
      "type": "SCALAR"
    },
    {
      "bufferView": 10,
      "byteOffset": 47712,
      "componentType": 5126,
      "count": 1846,
      "max": [
        1.519028902053833,
        0.22473753988742828,
        6.78477668762207
      ],
      "min": [
        -1.519028902053833,
        0.06069553643465042,
        0.02624671906232834
      ],
      "type": "VEC3"
    },
    {
      "bufferView": 10,
      "byteOffset": 47724,
      "componentType": 5126,
      "count": 1846,
      "type": "VEC3"
    },
    {
      "bufferView": 10,
      "byteOffset": 47736,
      "componentType": 5126,
      "count": 1846,
      "type": "VEC2"
    },
    {
      "bufferView": 11,
      "byteOffset": 16632,
      "componentType": 5125,
      "count": 5250,
      "type": "SCALAR"
    }
  ],
  "asset": {
    "version": "2.0"
  },
  "bufferViews": [
    {
      "buffer": 0,
      "byteLength": 768,
      "byteStride": 32,
      "target": 34962
    },
    {
      "buffer": 0,
      "byteLength": 144,
      "byteOffset": 768,
      "target": 34963
    },
    {
      "buffer": 0,
      "byteLength": 768,
      "byteOffset": 912,
      "byteStride": 32,
      "target": 34962
    },
    {
      "buffer": 0,
      "byteLength": 144,
      "byteOffset": 1680,
      "target": 34963
    },
    {
      "buffer": 0,
      "byteLength": 896,
      "byteOffset": 1824,
      "byteStride": 32,
      "target": 34962
    },
    {
      "buffer": 0,
      "byteLength": 192,
      "byteOffset": 2720,
      "target": 34963
    },
    {
      "buffer": 0,
      "byteLength": 1792,
      "byteOffset": 2912,
      "byteStride": 32,
      "target": 34962
    },
    {
      "buffer": 0,
      "byteLength": 432,
      "byteOffset": 4704,
      "target": 34963
    },
    {
      "buffer": 0,
      "byteLength": 768,
      "byteOffset": 5136,
      "byteStride": 32,
      "target": 34962
    },
    {
      "buffer": 0,
      "byteLength": 144,
      "byteOffset": 5904,
      "target": 34963
    },
    {
      "buffer": 0,
      "byteLength": 106784,
      "byteOffset": 6048,
      "byteStride": 32,
      "target": 34962
    },
    {
      "buffer": 0,
      "byteLength": 37632,
      "byteOffset": 112832,
      "target": 34963
    }
  ],
  "buffers": [
    {
      "byteLength": 150464,
      "uri": "29-07-2025.bin"
    }
  ],
  "extensionsUsed": [
    "KHR_texture_transform",
    "KHR_materials_transmission"
  ],
  "images": [
    {
      "uri": "Brick__Commonbasecolortexture.png"
    },
    {
      "uri": "Door___Architravebasecolortexture.jpeg"
    },
    {
      "uri": "Door___Frame_Mullionbasecolortexture.jpeg"
    },
    {
      "uri": "Door___Panelbasecolortexture.jpeg"
    }
  ],
  "materials": [
    {
      "name": "Brick__Common",
      "pbrMetallicRoughness": {
        "baseColorFactor": [
          0.47099998593330383,
          0.47099998593330383,
          0.47099998593330383,
          1.0
        ],
        "baseColorTexture": {
          "extensions": {
            "KHR_texture_transform": {
              "scale": [
                0.30000001192092896,
                0.2566410005092621
              ]
            }
          },
          "index": 0
        },
        "metallicFactor": 0.0,
        "roughnessFactor": 0.5
      }
    },
    {
      "name": "Door___Architrave",
      "pbrMetallicRoughness": {
        "baseColorFactor": [
          0.28853848576545715,
          0.2500529885292053,
          0.06392049789428711,
          1.0
        ],
        "baseColorTexture": {
          "extensions": {
            "KHR_texture_transform": {
              "scale": [
                1.2000000476837158,
                1.2000000476837158
              ]
            }
          },
          "index": 1
        },
        "metallicFactor": 0.0,
        "roughnessFactor": 0.699999988079071
      }
    },
    {
      "name": "Door___Frame_Mullion",
      "pbrMetallicRoughness": {
        "baseColorFactor": [
          0.28853848576545715,
          0.2500529885292053,
          0.06392049789428711,
          1.0
        ],
        "baseColorTexture": {
          "extensions": {
            "KHR_texture_transform": {
              "scale": [
                1.2000000476837158,
                1.2000000476837158
              ]
            }
          },
          "index": 2
        },
        "metallicFactor": 0.0,
        "roughnessFactor": 0.550000011920929
      }
    },
    {
      "extensions": {
        "KHR_materials_transmission": {
          "transmissionFactor": 1.0
        }
      },
      "name": "Door___Glazing",
      "pbrMetallicRoughness": {
        "baseColorFactor": [
          0.0,
          0.0,
          0.0,
          1.0
        ],
        "metallicFactor": 0.0,
        "roughnessFactor": 0.0
      }
    },
    {
      "name": "Door___Handle",
      "pbrMetallicRoughness": {
        "baseColorFactor": [
          0.07000000029802322,
          0.07000000029802322,
          0.07000000029802322,
          1.0
        ],
        "metallicFactor": 0.0,
        "roughnessFactor": 0.574999988079071
      }
    },
    {
      "name": "Door___Panel",
      "pbrMetallicRoughness": {
        "baseColorFactor": [
          0.17156599462032318,
          0.15231500566005707,
          0.05489400029182434,
          1.0
        ],
        "baseColorTexture": {
          "extensions": {
            "KHR_texture_transform": {
              "scale": [
                1.2000000476837158,
                1.2000000476837158
              ]
            }
          },
          "index": 3
        },
        "metallicFactor": 0.0,
        "roughnessFactor": 0.2750000059604645
      }
    }
  ],
  "meshes": [
    {
      "name": "Basic Wall Wall-Ext_215Bwk [350624]001",
      "primitives": [
        {
          "attributes": {
            "NORMAL": 1,
            "POSITION": 0,
            "TEXCOORD_0": 2
          },
          "indices": 3,
          "material": 0,
          "mode": 4
        }
      ]
    },
    {
      "name": "Basic Wall Wall-Ext_215Bwk [350749]001",
      "primitives": [
        {
          "attributes": {
            "NORMAL": 5,
            "POSITION": 4,
            "TEXCOORD_0": 6
          },
          "indices": 7,
          "material": 0,
          "mode": 4
        }
      ]
    },
    {
      "name": "Basic Wall Wall-Ext_215Bwk [351219]001",
      "primitives": [
        {
          "attributes": {
            "NORMAL": 9,
            "POSITION": 8,
            "TEXCOORD_0": 10
          },
          "indices": 11,
          "material": 0,
          "mode": 4
        }
      ]
    },
    {
      "name": "Basic Wall Wall-Ext_215Bwk [352985]001",
      "primitives": [
        {
          "attributes": {
            "NORMAL": 13,
            "POSITION": 12,
            "TEXCOORD_0": 14
          },
          "indices": 15,
          "material": 0,
          "mode": 4
        }
      ]
    },
    {
      "name": "Basic Wall Wall-Ext_215Bwk [353021]001",
      "primitives": [
        {
          "attributes": {
            "NORMAL": 17,
            "POSITION": 16,
            "TEXCOORD_0": 18
          },
          "indices": 19,
          "material": 0,
          "mode": 4
        }
      ]
    },
    {
      "name": "Doors_IntSgl_2 1010x2110mm [626004]001",
      "primitives": [
        {
          "attributes": {
            "NORMAL": 21,
            "POSITION": 20,
            "TEXCOORD_0": 22
          },
          "indices": 23,
          "material": 1,
          "mode": 4
        },
        {
          "attributes": {
            "NORMAL": 25,
            "POSITION": 24,
            "TEXCOORD_0": 26
          },
          "indices": 27,
          "material": 2,
          "mode": 4
        },
        {
          "attributes": {
            "NORMAL": 29,
            "POSITION": 28
          },
          "indices": 30,
          "material": 3,
          "mode": 4
        },
        {
          "attributes": {
            "NORMAL": 32,
            "POSITION": 31
          },
          "indices": 33,
          "material": 4,
          "mode": 4
        },
        {
          "attributes": {
            "NORMAL": 35,
            "POSITION": 34,
            "TEXCOORD_0": 36
          },
          "indices": 37,
          "material": 5,
          "mode": 4
        }
      ]
    }
  ],
  "nodes": [
    {
      "matrix": [
        0.0254,
        0.0,
        0.0,
        0.0,
        0.0,
        0.0254,
        0.0,
        0.0,
        0.0,
        0.0,
        0.0254,
        0.0,
        0.0,
        0.0,
        0.0,
        1.0
      ],
      "mesh": 0,
      "name": "Basic Wall Wall-Ext_215Bwk [350624]001"
    },
    {
      "children": [
        0
      ],
      "matrix": [
        11.999999999999998,
        0.0,
        0.0,
        0.0,
        0.0,
        0.0,
        -11.999999999999998,
        0.0,
        0.0,
        11.999999999999998,
        0.0,
        0.0,
        0.0,
        0.0,
        0.0,
        1.0
      ]
    },
    {
      "matrix": [
        0.0254,
        0.0,
        0.0,
        0.0,
        0.0,
        0.0254,
        0.0,
        0.0,
        0.0,
        0.0,
        0.0254,
        0.0,
        0.0,
        0.0,
        0.0,
        1.0
      ],
      "mesh": 1,
      "name": "Basic Wall Wall-Ext_215Bwk [350749]001"
    },
    {
      "children": [
        2
      ],
      "matrix": [
        11.999999999999998,
        0.0,
        0.0,
        0.0,
        0.0,
        0.0,
        -11.999999999999998,
        0.0,
        0.0,
        11.999999999999998,
        0.0,
        0.0,
        0.0,
        0.0,
        0.0,
        1.0
      ]
    },
    {
      "matrix": [
        0.0254,
        0.0,
        0.0,
        0.0,
        0.0,
        0.0254,
        0.0,
        0.0,
        0.0,
        0.0,
        0.0254,
        0.0,
        0.0,
        0.0,
        0.0,
        1.0
      ],
      "mesh": 2,
      "name": "Basic Wall Wall-Ext_215Bwk [351219]001"
    },
    {
      "children": [
        4
      ],
      "matrix": [
        11.999999999999998,
        0.0,
        0.0,
        0.0,
        0.0,
        0.0,
        -11.999999999999998,
        0.0,
        0.0,
        11.999999999999998,
        0.0,
        0.0,
        0.0,
        0.0,
        0.0,
        1.0
      ]
    },
    {
      "matrix": [
        0.0254,
        0.0,
        0.0,
        0.0,
        0.0,
        0.0254,
        0.0,
        0.0,
        0.0,
        0.0,
        0.0254,
        0.0,
        0.0,
        0.0,
        0.0,
        1.0
      ],
      "mesh": 3,
      "name": "Basic Wall Wall-Ext_215Bwk [352985]001"
    },
    {
      "children": [
        6
      ],
      "matrix": [
        11.999999999999998,
        0.0,
        0.0,
        0.0,
        0.0,
        0.0,
        -11.999999999999998,
        0.0,
        0.0,
        11.999999999999998,
        0.0,
        0.0,
        0.0,
        0.0,
        0.0,
        1.0
      ]
    },
    {
      "matrix": [
        0.0254,
        0.0,
        0.0,
        0.0,
        0.0,
        0.0254,
        0.0,
        0.0,
        0.0,
        0.0,
        0.0254,
        0.0,
        0.0,
        0.0,
        0.0,
        1.0
      ],
      "mesh": 4,
      "name": "Basic Wall Wall-Ext_215Bwk [353021]001"
    },
    {
      "children": [
        8
      ],
      "matrix": [
        11.999999999999998,
        0.0,
        0.0,
        0.0,
        0.0,
        0.0,
        -11.999999999999998,
        0.0,
        0.0,
        11.999999999999998,
        0.0,
        0.0,
        0.0,
        0.0,
        0.0,
        1.0
      ]
    },
    {
      "matrix": [
        0.0254,
        0.0,
        0.0,
        0.0,
        0.0,
        0.0254,
        0.0,
        0.0,
        0.0,
        0.0,
        0.0254,
        0.0,
        0.0,
        0.0,
        0.0,
        1.0
      ],
      "mesh": 5,
      "name": "Doors_IntSgl_2 1010x2110mm [626004]001"
    },
    {
      "children": [
        10
      ],
      "matrix": [
        -5.245366310191457e-07,
        0.0,
        -12.0,
        0.0,
        -12.0,
        0.0,
        5.245366310191457e-07,
        0.0,
        0.0,
        12.0,
        0.0,
        0.0,
        8.245429266357421,
        3.6000000274658204,
        6.994286254882812,
        1.0
      ]
    }
  ],
  "samplers": [
    {
      "magFilter": 9729,
      "minFilter": 9729,
      "wrapS": 10497,
      "wrapT": 10497
    },
    {
      "magFilter": 9729,
      "minFilter": 9729,
      "wrapS": 10497,
      "wrapT": 10497
    },
    {
      "magFilter": 9729,
      "minFilter": 9729,
      "wrapS": 10497,
      "wrapT": 10497
    },
    {
      "magFilter": 9729,
      "minFilter": 9729,
      "wrapS": 10497,
      "wrapT": 10497
    }
  ],
  "scenes": [
    {
      "nodes": [
        1,
        3,
        5,
        7,
        9,
        11
      ]
    }
  ],
  "textures": [
    {
      "name": "texture_source0_sampler0",
      "sampler": 0,
      "source": 0
    },
    {
      "name": "texture_source1_sampler1",
      "sampler": 1,
      "source": 1
    },
    {
      "name": "texture_source2_sampler2",
      "sampler": 2,
      "source": 2
    },
    {
      "name": "texture_source3_sampler3",
      "sampler": 3,
      "source": 3
    }
  ]
}
