{
  "accessors": [
    {
      "bufferView": 0,
      "componentType": 5126,
      "count": 24,
      "max": [
        -86.8185043334961,
        106.63568115234375,
        -6.561679840087891
      ],
      "min": [
        -92.72401428222656,
        100.73017120361328,
        -8.038057327270508
      ],
      "type": "VEC3"
    },
    {
      "bufferView": 0,
      "byteOffset": 12,
      "componentType": 5126,
      "count": 24,
      "type": "VEC3"
    },
    {
      "bufferView": 1,
      "componentType": 5125,
      "count": 36,
      "type": "SCALAR"
    },
    {
      "bufferView": 2,
      "componentType": 5126,
      "count": 27040,
      "max": [
        0.979823112487793,
        0.01642322540283203,
        0.01641082763671875
      ],
      "min": [
        -0.16404294967651367,
        -5.552167892456055,
        -5.552173614501953
      ],
      "type": "VEC3"
    },
    {
      "bufferView": 2,
      "byteOffset": 12,
      "componentType": 5126,
      "count": 27040,
      "type": "VEC3"
    },
    {
      "bufferView": 3,
      "componentType": 5125,
      "count": 131001,
      "type": "SCALAR"
    },
    {
      "bufferView": 4,
      "componentType": 5126,
      "count": 27040,
      "max": [
        0.979823112487793,
        0.016404200345277786,
        5.552173614501953
      ],
      "min": [
        -0.16404342651367188,
        -5.552148818969727,
        -0.016405105590820313
      ],
      "type": "VEC3"
    },
    {
      "bufferView": 4,
      "byteOffset": 12,
      "componentType": 5126,
      "count": 27040,
      "type": "VEC3"
    },
    {
      "bufferView": 5,
      "componentType": 5125,
      "count": 131001,
      "type": "SCALAR"
    },
    {
      "bufferView": 6,
      "componentType": 5126,
      "count": 27040,
      "max": [
        0.979823112487793,
        0.01642322540283203,
        0.016411781311035156
      ],
      "min": [
        -0.16404294967651367,
        -5.552167892456055,
        -5.552175045013428
      ],
      "type": "VEC3"
    },
    {
      "bufferView": 6,
      "byteOffset": 12,
      "componentType": 5126,
      "count": 27040,
      "type": "VEC3"
    },
    {
      "bufferView": 7,
      "componentType": 5125,
      "count": 131001,
      "type": "SCALAR"
    },
    {
      "bufferView": 8,
      "componentType": 5126,
      "count": 27040,
      "max": [
        0.979823112487793,
        0.016404200345277786,
        5.552175521850586
      ],
      "min": [
        -0.16404342651367188,
        -5.552148818969727,
        -0.016404200345277786
      ],
      "type": "VEC3"
    },
    {
      "bufferView": 8,
      "byteOffset": 12,
      "componentType": 5126,
      "count": 27040,
      "type": "VEC3"
    },
    {
      "bufferView": 9,
      "componentType": 5125,
      "count": 131001,
      "type": "SCALAR"
    },
    {
      "bufferView": 10,
      "componentType": 5126,
      "count": 27040,
      "max": [
        0.979823112487793,
        0.01640796661376953,
        0.016404200345277786
      ],
      "min": [
        -0.16404294967651367,
        -5.552166938781738,
        -5.552175045013428
      ],
      "type": "VEC3"
    },
    {
      "bufferView": 10,
      "byteOffset": 12,
      "componentType": 5126,
      "count": 27040,
      "type": "VEC3"
    },
    {
      "bufferView": 11,
      "componentType": 5125,
      "count": 131001,
      "type": "SCALAR"
    },
    {
      "bufferView": 12,
      "componentType": 5126,
      "count": 27040,
      "max": [
        0.979823112487793,
        0.016404200345277786,
        5.552175521850586
      ],
      "min": [
        -0.16404342651367188,
        -5.552170753479004,
        -0.016404200345277786
      ],
      "type": "VEC3"
    },
    {
      "bufferView": 12,
      "byteOffset": 12,
      "componentType": 5126,
      "count": 27040,
      "type": "VEC3"
    },
    {
      "bufferView": 13,
      "componentType": 5125,
      "count": 131001,
      "type": "SCALAR"
    },
    {
      "bufferView": 14,
      "componentType": 5126,
      "count": 24,
      "max": [
        -86.8185043334961,
        106.63568115234375,
        -6.561679840087891
      ],
      "min": [
        -92.72401428222656,
        100.73017120361328,
        -8.038057327270508
      ],
      "type": "VEC3"
    },
    {
      "bufferView": 14,
      "byteOffset": 12,
      "componentType": 5126,
      "count": 24,
      "type": "VEC3"
    },
    {
      "bufferView": 15,
      "componentType": 5125,
      "count": 36,
      "type": "SCALAR"
    }
  ],
  "asset": {
    "version": "2.0"
  },
  "bufferViews": [
    {
      "buffer": 0,
      "byteLength": 768,
      "byteStride": 32,
      "target": 34962
    },
    {
      "buffer": 0,
      "byteLength": 144,
      "byteOffset": 768,
      "target": 34963
    },
    {
      "buffer": 0,
      "byteLength": 865280,
      "byteOffset": 912,
      "byteStride": 32,
      "target": 34962
    },
    {
      "buffer": 0,
      "byteLength": 524004,
      "byteOffset": 866192,
      "target": 34963
    },
    {
      "buffer": 0,
      "byteLength": 865280,
      "byteOffset": 1390196,
      "byteStride": 32,
      "target": 34962
    },
    {
      "buffer": 0,
      "byteLength": 524004,
      "byteOffset": 2255476,
      "target": 34963
    },
    {
      "buffer": 0,
      "byteLength": 865280,
      "byteOffset": 2779480,
      "byteStride": 32,
      "target": 34962
    },
    {
      "buffer": 0,
      "byteLength": 524004,
      "byteOffset": 3644760,
      "target": 34963
    },
    {
      "buffer": 0,
      "byteLength": 865280,
      "byteOffset": 4168764,
      "byteStride": 32,
      "target": 34962
    },
    {
      "buffer": 0,
      "byteLength": 524004,
      "byteOffset": 5034044,
      "target": 34963
    },
    {
      "buffer": 0,
      "byteLength": 865280,
      "byteOffset": 5558048,
      "byteStride": 32,
      "target": 34962
    },
    {
      "buffer": 0,
      "byteLength": 524004,
      "byteOffset": 6423328,
      "target": 34963
    },
    {
      "buffer": 0,
      "byteLength": 865280,
      "byteOffset": 6947332,
      "byteStride": 32,
      "target": 34962
    },
    {
      "buffer": 0,
      "byteLength": 524004,
      "byteOffset": 7812612,
      "target": 34963
    },
    {
      "buffer": 0,
      "byteLength": 768,
      "byteOffset": 8336616,
      "byteStride": 32,
      "target": 34962
    },
    {
      "buffer": 0,
      "byteLength": 144,
      "byteOffset": 8337384,
      "target": 34963
    }
  ],
  "buffers": [
    {
      "byteLength": 8337528,
      "uri": "01-01-2025.bin"
    }
  ],
  "materials": [
    {
      "name": "Concrete___Cast_in_Place_Concrete",
      "pbrMetallicRoughness": {
        "baseColorFactor": [
          0.7185379862785339,
          0.7048349976539612,
          0.6867330074310303,
          1.0
        ],
        "metallicFactor": 0.0,
        "roughnessFactor": 0.5
      }
    },
    {
      "name": "Generic",
      "pbrMetallicRoughness": {
        "baseColorFactor": [
          0.3149999976158142,
          0.3149999976158142,
          0.3149999976158142,
          1.0
        ],
        "metallicFactor": 0.0
      }
    }
  ],
  "meshes": [
    {
      "name": "Footing-Rectangular 1800 x 1800 x 450mm [329140]001",
      "primitives": [
        {
          "attributes": {
            "NORMAL": 1,
            "POSITION": 0
          },
          "indices": 2,
          "material": 0,
          "mode": 4
        }
      ]
    },
    {
      "name": "Rebar Bar Structural Rebar 1 : Shape 21 [355494]_[319274]001",
      "primitives": [
        {
          "attributes": {
            "NORMAL": 4,
            "POSITION": 3
          },
          "indices": 5,
          "material": 1,
          "mode": 4
        }
      ]
    },
    {
      "name": "Rebar Bar Structural Rebar 1 : Shape 21 [355495]_[319274]001",
      "primitives": [
        {
          "attributes": {
            "NORMAL": 7,
            "POSITION": 6
          },
          "indices": 8,
          "material": 1,
          "mode": 4
        }
      ]
    },
    {
      "name": "Rebar Bar Structural Rebar 1 : Shape 21 [355508]_[319274]001",
      "primitives": [
        {
          "attributes": {
            "NORMAL": 10,
            "POSITION": 9
          },
          "indices": 11,
          "material": 1,
          "mode": 4
        }
      ]
    },
    {
      "name": "Rebar Bar Structural Rebar 1 : Shape 21 [355509]_[319274]001",
      "primitives": [
        {
          "attributes": {
            "NORMAL": 13,
            "POSITION": 12
          },
          "indices": 14,
          "material": 1,
          "mode": 4
        }
      ]
    },
    {
      "name": "Rebar Bar Structural Rebar 1 : Shape 21 [355524]_[319274]001",
      "primitives": [
        {
          "attributes": {
            "NORMAL": 16,
            "POSITION": 15
          },
          "indices": 17,
          "material": 1,
          "mode": 4
        }
      ]
    },
    {
      "name": "Rebar Bar Structural Rebar 1 : Shape 21 [355525]_[319274]001",
      "primitives": [
        {
          "attributes": {
            "NORMAL": 19,
            "POSITION": 18
          },
          "indices": 20,
          "material": 1,
          "mode": 4
        }
      ]
    },
    {
      "name": "Footing-Rectangular 1800 x 1800 x 450mm [329140]002",
      "primitives": [
        {
          "attributes": {
            "NORMAL": 22,
            "POSITION": 21
          },
          "indices": 23,
          "material": 0,
          "mode": 4
        }
      ]
    }
  ],
  "nodes": [
    {
      "matrix": [
        0.0254,
        0.0,
        0.0,
        0.0,
        0.0,
        0.0254,
        0.0,
        0.0,
        0.0,
        0.0,
        0.0254,
        0.0,
        0.0,
        0.0,
        0.0,
        1.0
      ],
      "mesh": 0,
      "name": "Footing-Rectangular 1800 x 1800 x 450mm [329140]001"
    },
    {
      "children": [
        0
      ],
      "matrix": [
        11.999999999999998,
        0.0,
        0.0,
        0.0,
        0.0,
        0.0,
        -11.999999999999998,
        0.0,
        0.0,
        11.999999999999998,
        0.0,
        0.0,
        23.15842209472656,
        3.957877407836914,
        29.897437109374998,
        1.0
      ]
    },
    {
      "matrix": [
        0.0254,
        0.0,
        0.0,
        0.0,
        0.0,
        0.0254,
        0.0,
        0.0,
        0.0,
        0.0,
        0.0254,
        0.0,
        0.0,
        0.0,
        0.0,
        1.0
      ],
      "mesh": 1,
      "name": "Rebar Bar Structural Rebar 1 : Shape 21 [355494]_[319274]001"
    },
    {
      "children": [
        2
      ],
      "matrix": [
        0.0,
        11.99999713897705,
        0.0,
        0.0,
        0.0,
        0.0,
        -12.0,
        0.0,
        -11.99999713897705,
        0.0,
        0.0,
        0.0,
        -5.047508184814453,
        1.6092277435302733,
        -2.5487634185791013,
        1.0
      ]
    },
    {
      "matrix": [
        0.0254,
        0.0,
        0.0,
        0.0,
        0.0,
        0.0254,
        0.0,
        0.0,
        0.0,
        0.0,
        0.0254,
        0.0,
        0.0,
        0.0,
        0.0,
        1.0
      ],
      "mesh": 2,
      "name": "Rebar Bar Structural Rebar 1 : Shape 21 [355495]_[319274]001"
    },
    {
      "children": [
        4
      ],
      "matrix": [
        0.0,
        11.99999713897705,
        0.0,
        0.0,
        0.0,
        0.0,
        -12.0,
        0.0,
        -11.99999713897705,
        0.0,
        0.0,
        0.0,
        -3.3602069122314453,
        1.6092277435302733,
        -2.5487634185791013,
        1.0
      ]
    },
    {
      "matrix": [
        0.0254,
        0.0,
        0.0,
        0.0,
        0.0,
        0.0254,
        0.0,
        0.0,
        0.0,
        0.0,
        0.0254,
        0.0,
        0.0,
        0.0,
        0.0,
        1.0
      ],
      "mesh": 3,
      "name": "Rebar Bar Structural Rebar 1 : Shape 21 [355508]_[319274]001"
    },
    {
      "children": [
        6
      ],
      "matrix": [
        0.0,
        11.99999713897705,
        0.0,
        0.0,
        0.0,
        0.0,
        -12.0,
        0.0,
        -11.99999713897705,
        0.0,
        0.0,
        0.0,
        -1.0475078636169433,
        1.6092277435302733,
        -2.5487634185791013,
        1.0
      ]
    },
    {
      "matrix": [
        0.0254,
        0.0,
        0.0,
        0.0,
        0.0,
        0.0254,
        0.0,
        0.0,
        0.0,
        0.0,
        0.0254,
        0.0,
        0.0,
        0.0,
        0.0,
        1.0
      ],
      "mesh": 4,
      "name": "Rebar Bar Structural Rebar 1 : Shape 21 [355509]_[319274]001"
    },
    {
      "children": [
        8
      ],
      "matrix": [
        0.0,
        11.99999713897705,
        0.0,
        0.0,
        0.0,
        0.0,
        -12.0,
        0.0,
        -11.99999713897705,
        0.0,
        0.0,
        0.0,
        0.6397937965393066,
        1.6092277435302733,
        -2.5487634185791013,
        1.0
      ]
    },
    {
      "matrix": [
        0.0254,
        0.0,
        0.0,
        0.0,
        0.0,
        0.0254,
        0.0,
        0.0,
        0.0,
        0.0,
        0.0254,
        0.0,
        0.0,
        0.0,
        0.0,
        1.0
      ],
      "mesh": 5,
      "name": "Rebar Bar Structural Rebar 1 : Shape 21 [355524]_[319274]001"
    },
    {
      "children": [
        10
      ],
      "matrix": [
        0.0,
        11.99999713897705,
        0.0,
        0.0,
        0.0,
        0.0,
        -12.0,
        0.0,
        -11.99999713897705,
        0.0,
        0.0,
        0.0,
        -1.0475078636169433,
        1.6092277435302733,
        1.451236708831787,
        1.0
      ]
    },
    {
      "matrix": [
        0.0254,
        0.0,
        0.0,
        0.0,
        0.0,
        0.0254,
        0.0,
        0.0,
        0.0,
        0.0,
        0.0254,
        0.0,
        0.0,
        0.0,
        0.0,
        1.0
      ],
      "mesh": 6,
      "name": "Rebar Bar Structural Rebar 1 : Shape 21 [355525]_[319274]001"
    },
    {
      "children": [
        12
      ],
      "matrix": [
        0.0,
        11.99999713897705,
        0.0,
        0.0,
        0.0,
        0.0,
        -12.0,
        0.0,
        -11.99999713897705,
        0.0,
        0.0,
        0.0,
        0.6397937965393066,
        1.6092277435302733,
        1.451236708831787,
        1.0
      ]
    },
    {
      "matrix": [
        0.0254,
        0.0,
        0.0,
        0.0,
        0.0,
        0.0254,
        0.0,
        0.0,
        0.0,
        0.0,
        0.0254,
        0.0,
        0.0,
        0.0,
        0.0,
        1.0
      ],
      "mesh": 7,
      "name": "Footing-Rectangular 1800 x 1800 x 450mm [329140]002"
    },
    {
      "children": [
        14
      ],
      "matrix": [
        11.999999999999998,
        0.0,
        0.0,
        0.0,
        0.0,
        0.0,
        -11.999999999999998,
        0.0,
        0.0,
        11.999999999999998,
        0.0,
        0.0,
        23.15842209472656,
        3.957877407836914,
        29.897437109374998,
        1.0
      ]
    }
  ],
  "scenes": [
    {
      "nodes": [
        1,
        3,
        5,
        7,
        9,
        11,
        13,
        15
      ]
    }
  ]
}
