{
  "accessors": [
    {
      "bufferView": 0,
      "componentType": 5126,
      "count": 4409,
      "max": [
        2.467191696166992,
        13.818902969360352,
        0.026247024536132813
      ],
      "min": [
        -0.15748214721679688,
        -0.02624671906232834,
        -0.026247024536132813
      ],
      "type": "VEC3"
    },
    {
      "bufferView": 0,
      "byteOffset": 12,
      "componentType": 5126,
      "count": 4409,
      "type": "VEC3"
    },
    {
      "bufferView": 0,
      "byteOffset": 24,
      "componentType": 5126,
      "count": 4409,
      "type": "VEC2"
    },
    {
      "bufferView": 1,
      "componentType": 5125,
      "count": 22644,
      "type": "SCALAR"
    },
    {
      "bufferView": 2,
      "componentType": 5126,
      "count": 4409,
      "max": [
        2.4671926498413086,
        13.818902969360352,
        0.02624678611755371
      ],
      "min": [
        -0.15748119354248047,
        -0.02624671906232834,
        -0.026248276233673096
      ],
      "type": "VEC3"
    },
    {
      "bufferView": 2,
      "byteOffset": 12,
      "componentType": 5126,
      "count": 4409,
      "type": "VEC3"
    },
    {
      "bufferView": 2,
      "byteOffset": 24,
      "componentType": 5126,
      "count": 4409,
      "type": "VEC2"
    },
    {
      "bufferView": 3,
      "componentType": 5125,
      "count": 22644,
      "type": "SCALAR"
    },
    {
      "bufferView": 4,
      "componentType": 5126,
      "count": 4409,
      "max": [
        2.467191696166992,
        13.818902969360352,
        0.02624678611755371
      ],
      "min": [
        -0.15748023986816406,
        -0.02624671906232834,
        -0.026248157024383545
      ],
      "type": "VEC3"
    },
    {
      "bufferView": 4,
      "byteOffset": 12,
      "componentType": 5126,
      "count": 4409,
      "type": "VEC3"
    },
    {
      "bufferView": 4,
      "byteOffset": 24,
      "componentType": 5126,
      "count": 4409,
      "type": "VEC2"
    },
    {
      "bufferView": 5,
      "componentType": 5125,
      "count": 22644,
      "type": "SCALAR"
    },
    {
      "bufferView": 6,
      "componentType": 5126,
      "count": 4409,
      "max": [
        2.467191696166992,
        13.818902969360352,
        0.0262468159198761
      ],
      "min": [
        -0.15748214721679688,
        -0.02624671906232834,
        -0.026248157024383545
      ],
      "type": "VEC3"
    },
    {
      "bufferView": 6,
      "byteOffset": 12,
      "componentType": 5126,
      "count": 4409,
      "type": "VEC3"
    },
    {
      "bufferView": 6,
      "byteOffset": 24,
      "componentType": 5126,
      "count": 4409,
      "type": "VEC2"
    },
    {
      "bufferView": 7,
      "componentType": 5125,
      "count": 22644,
      "type": "SCALAR"
    },
    {
      "bufferView": 8,
      "componentType": 5126,
      "count": 4409,
      "max": [
        2.467191696166992,
        0.026269912719726563,
        0.02624671906232834
      ],
      "min": [
        -0.15748214721679688,
        -0.026248931884765625,
        -13.818918228149414
      ],
      "type": "VEC3"
    },
    {
      "bufferView": 8,
      "byteOffset": 12,
      "componentType": 5126,
      "count": 4409,
      "type": "VEC3"
    },
    {
      "bufferView": 8,
      "byteOffset": 24,
      "componentType": 5126,
      "count": 4409,
      "type": "VEC2"
    },
    {
      "bufferView": 9,
      "componentType": 5125,
      "count": 22644,
      "type": "SCALAR"
    },
    {
      "bufferView": 10,
      "componentType": 5126,
      "count": 4409,
      "max": [
        2.467191696166992,
        0.026269912719726563,
        0.02624671906232834
      ],
      "min": [
        -0.15748310089111328,
        -0.026249408721923828,
        -13.818918228149414
      ],
      "type": "VEC3"
    },
    {
      "bufferView": 10,
      "byteOffset": 12,
      "componentType": 5126,
      "count": 4409,
      "type": "VEC3"
    },
    {
      "bufferView": 10,
      "byteOffset": 24,
      "componentType": 5126,
      "count": 4409,
      "type": "VEC2"
    },
    {
      "bufferView": 11,
      "componentType": 5125,
      "count": 22644,
      "type": "SCALAR"
    },
    {
      "bufferView": 12,
      "componentType": 5126,
      "count": 4409,
      "max": [
        2.467191696166992,
        0.026269912719726563,
        0.02624671906232834
      ],
      "min": [
        -0.15748214721679688,
        -0.026249408721923828,
        -13.818918228149414
      ],
      "type": "VEC3"
    },
    {
      "bufferView": 12,
      "byteOffset": 12,
      "componentType": 5126,
      "count": 4409,
      "type": "VEC3"
    },
    {
      "bufferView": 12,
      "byteOffset": 24,
      "componentType": 5126,
      "count": 4409,
      "type": "VEC2"
    },
    {
      "bufferView": 13,
      "componentType": 5125,
      "count": 22644,
      "type": "SCALAR"
    },
    {
      "bufferView": 14,
      "componentType": 5126,
      "count": 4409,
      "max": [
        2.467191696166992,
        0.026269912719726563,
        0.02624671906232834
      ],
      "min": [
        -0.15748214721679688,
        -0.026249408721923828,
        -13.818918228149414
      ],
      "type": "VEC3"
    },
    {
      "bufferView": 14,
      "byteOffset": 12,
      "componentType": 5126,
      "count": 4409,
      "type": "VEC3"
    },
    {
      "bufferView": 14,
      "byteOffset": 24,
      "componentType": 5126,
      "count": 4409,
      "type": "VEC2"
    },
    {
      "bufferView": 15,
      "componentType": 5125,
      "count": 22644,
      "type": "SCALAR"
    },
    {
      "bufferView": 16,
      "componentType": 5126,
      "count": 4409,
      "max": [
        2.467191696166992,
        0.026269912719726563,
        0.02624671906232834
      ],
      "min": [
        -0.15748310089111328,
        -0.026249408721923828,
        -13.818918228149414
      ],
      "type": "VEC3"
    },
    {
      "bufferView": 16,
      "byteOffset": 12,
      "componentType": 5126,
      "count": 4409,
      "type": "VEC3"
    },
    {
      "bufferView": 16,
      "byteOffset": 24,
      "componentType": 5126,
      "count": 4409,
      "type": "VEC2"
    },
    {
      "bufferView": 17,
      "componentType": 5125,
      "count": 22644,
      "type": "SCALAR"
    },
    {
      "bufferView": 18,
      "componentType": 5126,
      "count": 4409,
      "max": [
        2.467191696166992,
        0.026269912719726563,
        0.02624671906232834
      ],
      "min": [
        -0.15748214721679688,
        -0.026249408721923828,
        -13.818918228149414
      ],
      "type": "VEC3"
    },
    {
      "bufferView": 18,
      "byteOffset": 12,
      "componentType": 5126,
      "count": 4409,
      "type": "VEC3"
    },
    {
      "bufferView": 18,
      "byteOffset": 24,
      "componentType": 5126,
      "count": 4409,
      "type": "VEC2"
    },
    {
      "bufferView": 19,
      "componentType": 5125,
      "count": 22644,
      "type": "SCALAR"
    },
    {
      "bufferView": 20,
      "componentType": 5126,
      "count": 57856,
      "max": [
        0.16404199600219727,
        0.01640462875366211,
        13.927184104919434
      ],
      "min": [
        -0.09842491149902344,
        -13.933145523071289,
        -0.01640421152114868
      ],
      "type": "VEC3"
    },
    {
      "bufferView": 20,
      "byteOffset": 12,
      "componentType": 5126,
      "count": 57856,
      "type": "VEC3"
    },
    {
      "bufferView": 20,
      "byteOffset": 24,
      "componentType": 5126,
      "count": 57856,
      "type": "VEC2"
    },
    {
      "bufferView": 21,
      "componentType": 5125,
      "count": 288096,
      "type": "SCALAR"
    }
  ],
  "asset": {
    "version": "2.0"
  },
  "bufferViews": [
    {
      "buffer": 0,
      "byteLength": 141088,
      "byteStride": 32,
      "target": 34962
    },
    {
      "buffer": 0,
      "byteLength": 90576,
      "byteOffset": 141088,
      "target": 34963
    },
    {
      "buffer": 0,
      "byteLength": 141088,
      "byteOffset": 231664,
      "byteStride": 32,
      "target": 34962
    },
    {
      "buffer": 0,
      "byteLength": 90576,
      "byteOffset": 372752,
      "target": 34963
    },
    {
      "buffer": 0,
      "byteLength": 141088,
      "byteOffset": 463328,
      "byteStride": 32,
      "target": 34962
    },
    {
      "buffer": 0,
      "byteLength": 90576,
      "byteOffset": 604416,
      "target": 34963
    },
    {
      "buffer": 0,
      "byteLength": 141088,
      "byteOffset": 694992,
      "byteStride": 32,
      "target": 34962
    },
    {
      "buffer": 0,
      "byteLength": 90576,
      "byteOffset": 836080,
      "target": 34963
    },
    {
      "buffer": 0,
      "byteLength": 141088,
      "byteOffset": 926656,
      "byteStride": 32,
      "target": 34962
    },
    {
      "buffer": 0,
      "byteLength": 90576,
      "byteOffset": 1067744,
      "target": 34963
    },
    {
      "buffer": 0,
      "byteLength": 141088,
      "byteOffset": 1158320,
      "byteStride": 32,
      "target": 34962
    },
    {
      "buffer": 0,
      "byteLength": 90576,
      "byteOffset": 1299408,
      "target": 34963
    },
    {
      "buffer": 0,
      "byteLength": 141088,
      "byteOffset": 1389984,
      "byteStride": 32,
      "target": 34962
    },
    {
      "buffer": 0,
      "byteLength": 90576,
      "byteOffset": 1531072,
      "target": 34963
    },
    {
      "buffer": 0,
      "byteLength": 141088,
      "byteOffset": 1621648,
      "byteStride": 32,
      "target": 34962
    },
    {
      "buffer": 0,
      "byteLength": 90576,
      "byteOffset": 1762736,
      "target": 34963
    },
    {
      "buffer": 0,
      "byteLength": 141088,
      "byteOffset": 1853312,
      "byteStride": 32,
      "target": 34962
    },
    {
      "buffer": 0,
      "byteLength": 90576,
      "byteOffset": 1994400,
      "target": 34963
    },
    {
      "buffer": 0,
      "byteLength": 141088,
      "byteOffset": 2084976,
      "byteStride": 32,
      "target": 34962
    },
    {
      "buffer": 0,
      "byteLength": 90576,
      "byteOffset": 2226064,
      "target": 34963
    },
    {
      "buffer": 0,
      "byteLength": 1851392,
      "byteOffset": 2316640,
      "byteStride": 32,
      "target": 34962
    },
    {
      "buffer": 0,
      "byteLength": 1152384,
      "byteOffset": 4168032,
      "target": 34963
    }
  ],
  "buffers": [
    {
      "byteLength": 5320416,
      "uri": "13-01-2025.bin"
    }
  ],
  "images": [
    {
      "uri": "Steel_Rebar___B500A__B_or_Cbasecolortexture.jpeg"
    }
  ],
  "materials": [
    {
      "name": "Steel_Rebar___B500A__B_or_C",
      "pbrMetallicRoughness": {
        "baseColorFactor": [
          0.4391480088233948,
          0.21267099678516388,
          0.1043580025434494,
          1.0
        ],
        "baseColorTexture": {
          "index": 0
        },
        "metallicFactor": 0.0,
        "roughnessFactor": 0.4242599904537201
      }
    }
  ],
  "meshes": [
    {
      "name": "Rebar Bar H16 : Shape Rebar Shape 2 [387984]_[319274]001",
      "primitives": [
        {
          "attributes": {
            "NORMAL": 1,
            "POSITION": 0,
            "TEXCOORD_0": 2
          },
          "indices": 3,
          "material": 0,
          "mode": 4
        }
      ]
    },
    {
      "name": "Rebar Bar H16 : Shape Rebar Shape 2 [388510]_[319274]001",
      "primitives": [
        {
          "attributes": {
            "NORMAL": 5,
            "POSITION": 4,
            "TEXCOORD_0": 6
          },
          "indices": 7,
          "material": 0,
          "mode": 4
        }
      ]
    },
    {
      "name": "Rebar Bar H16 : Shape Rebar Shape 2 [388511]_[319274]001",
      "primitives": [
        {
          "attributes": {
            "NORMAL": 9,
            "POSITION": 8,
            "TEXCOORD_0": 10
          },
          "indices": 11,
          "material": 0,
          "mode": 4
        }
      ]
    },
    {
      "name": "Rebar Bar H16 : Shape Rebar Shape 2 [388512]_[319274]001",
      "primitives": [
        {
          "attributes": {
            "NORMAL": 13,
            "POSITION": 12,
            "TEXCOORD_0": 14
          },
          "indices": 15,
          "material": 0,
          "mode": 4
        }
      ]
    },
    {
      "name": "Rebar Bar H16 : Shape Rebar Shape 2 [388943]_[319274]001",
      "primitives": [
        {
          "attributes": {
            "NORMAL": 17,
            "POSITION": 16,
            "TEXCOORD_0": 18
          },
          "indices": 19,
          "material": 0,
          "mode": 4
        }
      ]
    },
    {
      "name": "Rebar Bar H16 : Shape Rebar Shape 2 [389158]_[319274]001",
      "primitives": [
        {
          "attributes": {
            "NORMAL": 21,
            "POSITION": 20,
            "TEXCOORD_0": 22
          },
          "indices": 23,
          "material": 0,
          "mode": 4
        }
      ]
    },
    {
      "name": "Rebar Bar H16 : Shape Rebar Shape 2 [389255]_[319274]001",
      "primitives": [
        {
          "attributes": {
            "NORMAL": 25,
            "POSITION": 24,
            "TEXCOORD_0": 26
          },
          "indices": 27,
          "material": 0,
          "mode": 4
        }
      ]
    },
    {
      "name": "Rebar Bar H16 : Shape Rebar Shape 2 [389686]_[319274]001",
      "primitives": [
        {
          "attributes": {
            "NORMAL": 29,
            "POSITION": 28,
            "TEXCOORD_0": 30
          },
          "indices": 31,
          "material": 0,
          "mode": 4
        }
      ]
    },
    {
      "name": "Rebar Bar H16 : Shape Rebar Shape 2 [389687]_[319274]001",
      "primitives": [
        {
          "attributes": {
            "NORMAL": 33,
            "POSITION": 32,
            "TEXCOORD_0": 34
          },
          "indices": 35,
          "material": 0,
          "mode": 4
        }
      ]
    },
    {
      "name": "Rebar Bar H16 : Shape Rebar Shape 2 [389688]_[319274]001",
      "primitives": [
        {
          "attributes": {
            "NORMAL": 37,
            "POSITION": 36,
            "TEXCOORD_0": 38
          },
          "indices": 39,
          "material": 0,
          "mode": 4
        }
      ]
    },
    {
      "name": "Rebar Bar H10 [396458]_[319274]001",
      "primitives": [
        {
          "attributes": {
            "NORMAL": 41,
            "POSITION": 40,
            "TEXCOORD_0": 42
          },
          "indices": 43,
          "material": 0,
          "mode": 4
        }
      ]
    }
  ],
  "nodes": [
    {
      "matrix": [
        0.0254,
        0.0,
        0.0,
        0.0,
        0.0,
        0.0254,
        0.0,
        0.0,
        0.0,
        0.0,
        0.0254,
        0.0,
        0.0,
        0.0,
        0.0,
        1.0
      ],
      "mesh": 0,
      "name": "Rebar Bar H16 : Shape Rebar Shape 2 [387984]_[319274]001"
    },
    {
      "children": [
        0
      ],
      "matrix": [
        0.0,
        11.99999713897705,
        0.0,
        0.0,
        0.0,
        0.0,
        -12.0,
        0.0,
        -11.99999713897705,
        0.0,
        0.0,
        0.0,
        -4.103668508911133,
        3.6485993865966795,
        2.3968881927490235,
        1.0
      ]
    },
    {
      "matrix": [
        0.0254,
        0.0,
        0.0,
        0.0,
        0.0,
        0.0254,
        0.0,
        0.0,
        0.0,
        0.0,
        0.0254,
        0.0,
        0.0,
        0.0,
        0.0,
        1.0
      ],
      "mesh": 1,
      "name": "Rebar Bar H16 : Shape Rebar Shape 2 [388510]_[319274]001"
    },
    {
      "children": [
        2
      ],
      "matrix": [
        0.0,
        11.99999713897705,
        0.0,
        0.0,
        0.0,
        0.0,
        -12.0,
        0.0,
        -11.99999713897705,
        0.0,
        0.0,
        0.0,
        -0.3049950462341309,
        3.6489485900878904,
        2.3968881927490235,
        1.0
      ]
    },
    {
      "matrix": [
        0.0254,
        0.0,
        0.0,
        0.0,
        0.0,
        0.0254,
        0.0,
        0.0,
        0.0,
        0.0,
        0.0254,
        0.0,
        0.0,
        0.0,
        0.0,
        1.0
      ],
      "mesh": 2,
      "name": "Rebar Bar H16 : Shape Rebar Shape 2 [388511]_[319274]001"
    },
    {
      "children": [
        4
      ],
      "matrix": [
        0.0,
        11.99999713897705,
        0.0,
        0.0,
        0.0,
        0.0,
        -12.0,
        0.0,
        -11.99999713897705,
        0.0,
        0.0,
        0.0,
        -0.2029315086364746,
        3.646851431274414,
        2.3968881927490235,
        1.0
      ]
    },
    {
      "matrix": [
        0.0254,
        0.0,
        0.0,
        0.0,
        0.0,
        0.0254,
        0.0,
        0.0,
        0.0,
        0.0,
        0.0254,
        0.0,
        0.0,
        0.0,
        0.0,
        1.0
      ],
      "mesh": 3,
      "name": "Rebar Bar H16 : Shape Rebar Shape 2 [388512]_[319274]001"
    },
    {
      "children": [
        6
      ],
      "matrix": [
        0.0,
        11.99999713897705,
        0.0,
        0.0,
        0.0,
        0.0,
        -12.0,
        0.0,
        -11.99999713897705,
        0.0,
        0.0,
        0.0,
        -0.10366780014038085,
        3.6485993865966795,
        2.3968881927490235,
        1.0
      ]
    },
    {
      "matrix": [
        0.0254,
        0.0,
        0.0,
        0.0,
        0.0,
        0.0254,
        0.0,
        0.0,
        0.0,
        0.0,
        0.0254,
        0.0,
        0.0,
        0.0,
        0.0,
        1.0
      ],
      "mesh": 4,
      "name": "Rebar Bar H16 : Shape Rebar Shape 2 [388943]_[319274]001"
    },
    {
      "children": [
        8
      ],
      "matrix": [
        0.0,
        11.99999713897705,
        0.0,
        0.0,
        0.0,
        0.0,
        -12.0,
        0.0,
        -11.99999713897705,
        0.0,
        0.0,
        0.0,
        -4.305860818481445,
        3.648197085571289,
        -1.605992960357666,
        1.0
      ]
    },
    {
      "matrix": [
        0.0254,
        0.0,
        0.0,
        0.0,
        0.0,
        0.0254,
        0.0,
        0.0,
        0.0,
        0.0,
        0.0254,
        0.0,
        0.0,
        0.0,
        0.0,
        1.0
      ],
      "mesh": 5,
      "name": "Rebar Bar H16 : Shape Rebar Shape 2 [389158]_[319274]001"
    },
    {
      "children": [
        10
      ],
      "matrix": [
        0.0,
        11.99999713897705,
        0.0,
        0.0,
        0.0,
        0.0,
        -12.0,
        0.0,
        -11.99999713897705,
        0.0,
        0.0,
        0.0,
        -4.305860818481445,
        3.647788583374023,
        -1.8037251739501952,
        1.0
      ]
    },
    {
      "matrix": [
        0.0254,
        0.0,
        0.0,
        0.0,
        0.0,
        0.0254,
        0.0,
        0.0,
        0.0,
        0.0,
        0.0254,
        0.0,
        0.0,
        0.0,
        0.0,
        1.0
      ],
      "mesh": 6,
      "name": "Rebar Bar H16 : Shape Rebar Shape 2 [389255]_[319274]001"
    },
    {
      "children": [
        12
      ],
      "matrix": [
        0.0,
        11.99999713897705,
        0.0,
        0.0,
        0.0,
        0.0,
        -12.0,
        0.0,
        -11.99999713897705,
        0.0,
        0.0,
        0.0,
        -4.305860818481445,
        3.6486055877685546,
        -1.7056776702880858,
        1.0
      ]
    },
    {
      "matrix": [
        0.0254,
        0.0,
        0.0,
        0.0,
        0.0,
        0.0254,
        0.0,
        0.0,
        0.0,
        0.0,
        0.0254,
        0.0,
        0.0,
        0.0,
        0.0,
        1.0
      ],
      "mesh": 7,
      "name": "Rebar Bar H16 : Shape Rebar Shape 2 [389686]_[319274]001"
    },
    {
      "children": [
        14
      ],
      "matrix": [
        0.0,
        11.99999713897705,
        0.0,
        0.0,
        0.0,
        0.0,
        -12.0,
        0.0,
        -11.99999713897705,
        0.0,
        0.0,
        0.0,
        -4.305860818481445,
        3.648197085571289,
        2.3940069732666016,
        1.0
      ]
    },
    {
      "matrix": [
        0.0254,
        0.0,
        0.0,
        0.0,
        0.0,
        0.0254,
        0.0,
        0.0,
        0.0,
        0.0,
        0.0254,
        0.0,
        0.0,
        0.0,
        0.0,
        1.0
      ],
      "mesh": 8,
      "name": "Rebar Bar H16 : Shape Rebar Shape 2 [389687]_[319274]001"
    },
    {
      "children": [
        16
      ],
      "matrix": [
        0.0,
        11.99999713897705,
        0.0,
        0.0,
        0.0,
        0.0,
        -12.0,
        0.0,
        -11.99999713897705,
        0.0,
        0.0,
        0.0,
        -4.305860818481445,
        3.647788583374023,
        2.1962771820068356,
        1.0
      ]
    },
    {
      "matrix": [
        0.0254,
        0.0,
        0.0,
        0.0,
        0.0,
        0.0254,
        0.0,
        0.0,
        0.0,
        0.0,
        0.0254,
        0.0,
        0.0,
        0.0,
        0.0,
        1.0
      ],
      "mesh": 9,
      "name": "Rebar Bar H16 : Shape Rebar Shape 2 [389688]_[319274]001"
    },
    {
      "children": [
        18
      ],
      "matrix": [
        0.0,
        11.99999713897705,
        0.0,
        0.0,
        0.0,
        0.0,
        -12.0,
        0.0,
        -11.99999713897705,
        0.0,
        0.0,
        0.0,
        -4.305860818481445,
        3.6486055877685546,
        2.2943200347900388,
        1.0
      ]
    },
    {
      "matrix": [
        0.0254,
        0.0,
        0.0,
        0.0,
        0.0,
        0.0254,
        0.0,
        0.0,
        0.0,
        0.0,
        0.0254,
        0.0,
        0.0,
        0.0,
        0.0,
        1.0
      ],
      "mesh": 10,
      "name": "Rebar Bar H10 [396458]_[319274]001"
    },
    {
      "children": [
        20
      ],
      "matrix": [
        0.0,
        11.99999713897705,
        0.0,
        0.0,
        0.0,
        0.0,
        -12.0,
        0.0,
        -11.99999713897705,
        0.0,
        0.0,
        0.0,
        -0.08385505599975586,
        6.862877221679687,
        -1.826935385131836,
        1.0
      ]
    }
  ],
  "samplers": [
    {
      "magFilter": 9729,
      "minFilter": 9729,
      "wrapS": 10497,
      "wrapT": 10497
    }
  ],
  "scenes": [
    {
      "nodes": [
        1,
        3,
        5,
        7,
        9,
        11,
        13,
        15,
        17,
        19,
        21
      ]
    }
  ],
  "textures": [
    {
      "name": "texture_source0_sampler0",
      "sampler": 0,
      "source": 0
    }
  ]
}
