{
  "accessors": [
    {
      "bufferView": 0,
      "componentType": 5126,
      "count": 57856,
      "max": [
        0.16404199600219727,
        0.01640462875366211,
        13.927184104919434
      ],
      "min": [
        -0.09842491149902344,
        -13.933145523071289,
        -0.01640421152114868
      ],
      "type": "VEC3"
    },
    {
      "bufferView": 0,
      "byteOffset": 12,
      "componentType": 5126,
      "count": 57856,
      "type": "VEC3"
    },
    {
      "bufferView": 0,
      "byteOffset": 24,
      "componentType": 5126,
      "count": 57856,
      "type": "VEC2"
    },
    {
      "bufferView": 1,
      "componentType": 5125,
      "count": 288096,
      "type": "SCALAR"
    },
    {
      "bufferView": 2,
      "componentType": 5126,
      "count": 57744,
      "max": [
        0.16404342651367188,
        0.01640462875366211,
        0.016405105590820313
      ],
      "min": [
        -0.09842681884765625,
        -13.933145523071289,
        -13.927186012268066
      ],
      "type": "VEC3"
    },
    {
      "bufferView": 2,
      "byteOffset": 12,
      "componentType": 5126,
      "count": 57744,
      "type": "VEC3"
    },
    {
      "bufferView": 2,
      "byteOffset": 24,
      "componentType": 5126,
      "count": 57744,
      "type": "VEC2"
    },
    {
      "bufferView": 3,
      "componentType": 5125,
      "count": 287616,
      "type": "SCALAR"
    },
    {
      "bufferView": 4,
      "componentType": 5126,
      "count": 64080,
      "max": [
        0.2624672055244446,
        0.01641225814819336,
        0.01640421152114868
      ],
      "min": [
        -0.0984344482421875,
        -13.883935928344727,
        -13.881644248962402
      ],
      "type": "VEC3"
    },
    {
      "bufferView": 4,
      "byteOffset": 12,
      "componentType": 5126,
      "count": 64080,
      "type": "VEC3"
    },
    {
      "bufferView": 4,
      "byteOffset": 24,
      "componentType": 5126,
      "count": 64080,
      "type": "VEC2"
    },
    {
      "bufferView": 5,
      "componentType": 5125,
      "count": 305232,
      "type": "SCALAR"
    }
  ],
  "asset": {
    "version": "2.0"
  },
  "bufferViews": [
    {
      "buffer": 0,
      "byteLength": 1851392,
      "byteStride": 32,
      "target": 34962
    },
    {
      "buffer": 0,
      "byteLength": 1152384,
      "byteOffset": 1851392,
      "target": 34963
    },
    {
      "buffer": 0,
      "byteLength": 1847808,
      "byteOffset": 3003776,
      "byteStride": 32,
      "target": 34962
    },
    {
      "buffer": 0,
      "byteLength": 1150464,
      "byteOffset": 4851584,
      "target": 34963
    },
    {
      "buffer": 0,
      "byteLength": 2050560,
      "byteOffset": 6002048,
      "byteStride": 32,
      "target": 34962
    },
    {
      "buffer": 0,
      "byteLength": 1220928,
      "byteOffset": 8052608,
      "target": 34963
    }
  ],
  "buffers": [
    {
      "byteLength": 9273536,
      "uri": "14-01-2025.bin"
    }
  ],
  "images": [
    {
      "uri": "Steel_Rebar___B500A__B_or_Cbasecolortexture.jpeg"
    }
  ],
  "materials": [
    {
      "name": "Steel_Rebar___B500A__B_or_C",
      "pbrMetallicRoughness": {
        "baseColorFactor": [
          0.4391480088233948,
          0.21267099678516388,
          0.1043580025434494,
          1.0
        ],
        "baseColorTexture": {
          "index": 0
        },
        "metallicFactor": 0.0,
        "roughnessFactor": 0.4242599904537201
      }
    }
  ],
  "meshes": [
    {
      "name": "Rebar Bar H10 [396458]_[319274]001",
      "primitives": [
        {
          "attributes": {
            "NORMAL": 1,
            "POSITION": 0,
            "TEXCOORD_0": 2
          },
          "indices": 3,
          "material": 0,
          "mode": 4
        }
      ]
    },
    {
      "name": "Rebar Bar H10 [396459]_[319274]001",
      "primitives": [
        {
          "attributes": {
            "NORMAL": 5,
            "POSITION": 4,
            "TEXCOORD_0": 6
          },
          "indices": 7,
          "material": 0,
          "mode": 4
        }
      ]
    },
    {
      "name": "Rebar Bar H10 : Shape Rebar Shape 5 [396558]_[319274]001",
      "primitives": [
        {
          "attributes": {
            "NORMAL": 9,
            "POSITION": 8,
            "TEXCOORD_0": 10
          },
          "indices": 11,
          "material": 0,
          "mode": 4
        }
      ]
    }
  ],
  "nodes": [
    {
      "matrix": [
        0.0254,
        0.0,
        0.0,
        0.0,
        0.0,
        0.0254,
        0.0,
        0.0,
        0.0,
        0.0,
        0.0254,
        0.0,
        0.0,
        0.0,
        0.0,
        1.0
      ],
      "mesh": 0,
      "name": "Rebar Bar H10 [396458]_[319274]001"
    },
    {
      "children": [
        0
      ],
      "matrix": [
        0.0,
        11.99999713897705,
        0.0,
        0.0,
        0.0,
        0.0,
        -12.0,
        0.0,
        -11.99999713897705,
        0.0,
        0.0,
        0.0,
        -0.08385505599975586,
        6.862877221679687,
        -1.826935385131836,
        1.0
      ]
    },
    {
      "matrix": [
        0.0254,
        0.0,
        0.0,
        0.0,
        0.0,
        0.0254,
        0.0,
        0.0,
        0.0,
        0.0,
        0.0254,
        0.0,
        0.0,
        0.0,
        0.0,
        1.0
      ],
      "mesh": 1,
      "name": "Rebar Bar H10 [396459]_[319274]001"
    },
    {
      "children": [
        2
      ],
      "matrix": [
        3.9639107938654743e-29,
        11.99999713897705,
        2.180983800677272e-14,
        0.0,
        -6.542953434910889e-14,
        2.180983970083861e-14,
        -12.0,
        0.0,
        -11.99999713897705,
        -7.927822791437165e-29,
        6.542952757284531e-14,
        0.0,
        -4.323857394409179,
        6.872878161621093,
        -1.826935385131836,
        1.0
      ]
    },
    {
      "matrix": [
        0.0254,
        0.0,
        0.0,
        0.0,
        0.0,
        0.0254,
        0.0,
        0.0,
        0.0,
        0.0,
        0.0254,
        0.0,
        0.0,
        0.0,
        0.0,
        1.0
      ],
      "mesh": 2,
      "name": "Rebar Bar H10 : Shape Rebar Shape 5 [396558]_[319274]001"
    },
    {
      "children": [
        4
      ],
      "matrix": [
        7.152556463552173e-06,
        -11.99999713897705,
        -4.9420048485519166e-29,
        0.0,
        9.884014511928692e-29,
        4.9420120707892074e-29,
        -11.999999999999998,
        0.0,
        11.99999713897705,
        7.152556463552173e-06,
        9.884019326753554e-29,
        0.0,
        -0.08385505599975586,
        6.90287710571289,
        -1.826935385131836,
        1.0
      ]
    }
  ],
  "samplers": [
    {
      "magFilter": 9729,
      "minFilter": 9729,
      "wrapS": 10497,
      "wrapT": 10497
    }
  ],
  "scenes": [
    {
      "nodes": [
        1,
        3,
        5
      ]
    }
  ],
  "textures": [
    {
      "name": "texture_source0_sampler0",
      "sampler": 0,
      "source": 0
    }
  ]
}
