{
  "accessors": [
    {
      "bufferView": 0,
      "componentType": 5126,
      "count": 64080,
      "max": [
        0.2624672055244446,
        0.01641225814819336,
        0.01640421152114868
      ],
      "min": [
        -0.0984344482421875,
        -13.883935928344727,
        -13.881644248962402
      ],
      "type": "VEC3"
    },
    {
      "bufferView": 0,
      "byteOffset": 12,
      "componentType": 5126,
      "count": 64080,
      "type": "VEC3"
    },
    {
      "bufferView": 0,
      "byteOffset": 24,
      "componentType": 5126,
      "count": 64080,
      "type": "VEC2"
    },
    {
      "bufferView": 1,
      "componentType": 5125,
      "count": 305232,
      "type": "SCALAR"
    },
    {
      "bufferView": 2,
      "componentType": 5126,
      "count": 61840,
      "max": [
        0.2296600341796875,
        13.933145523071289,
        0.016404300928115845
      ],
      "min": [
        -0.0984344482421875,
        -0.016404200345277786,
        -13.927184104919434
      ],
      "type": "VEC3"
    },
    {
      "bufferView": 2,
      "byteOffset": 12,
      "componentType": 5126,
      "count": 61840,
      "type": "VEC3"
    },
    {
      "bufferView": 2,
      "byteOffset": 24,
      "componentType": 5126,
      "count": 61840,
      "type": "VEC2"
    },
    {
      "bufferView": 3,
      "componentType": 5125,
      "count": 295488,
      "type": "SCALAR"
    },
    {
      "bufferView": 4,
      "componentType": 5126,
      "count": 30305,
      "max": [
        0.32808494567871094,
        3.264432430267334,
        0.016404271125793457
      ],
      "min": [
        -0.0984344482421875,
        -0.016404200345277786,
        -13.782774925231934
      ],
      "type": "VEC3"
    },
    {
      "bufferView": 4,
      "byteOffset": 12,
      "componentType": 5126,
      "count": 30305,
      "type": "VEC3"
    },
    {
      "bufferView": 4,
      "byteOffset": 24,
      "componentType": 5126,
      "count": 30305,
      "type": "VEC2"
    },
    {
      "bufferView": 5,
      "componentType": 5125,
      "count": 144072,
      "type": "SCALAR"
    },
    {
      "bufferView": 6,
      "componentType": 5126,
      "count": 30305,
      "max": [
        0.32808494567871094,
        13.782760620117188,
        3.264425277709961
      ],
      "min": [
        -0.09842681884765625,
        -0.016404200345277786,
        -0.016412734985351563
      ],
      "type": "VEC3"
    },
    {
      "bufferView": 6,
      "byteOffset": 12,
      "componentType": 5126,
      "count": 30305,
      "type": "VEC3"
    },
    {
      "bufferView": 6,
      "byteOffset": 24,
      "componentType": 5126,
      "count": 30305,
      "type": "VEC2"
    },
    {
      "bufferView": 7,
      "componentType": 5125,
      "count": 144072,
      "type": "SCALAR"
    }
  ],
  "asset": {
    "version": "2.0"
  },
  "bufferViews": [
    {
      "buffer": 0,
      "byteLength": 2050560,
      "byteStride": 32,
      "target": 34962
    },
    {
      "buffer": 0,
      "byteLength": 1220928,
      "byteOffset": 2050560,
      "target": 34963
    },
    {
      "buffer": 0,
      "byteLength": 1978880,
      "byteOffset": 3271488,
      "byteStride": 32,
      "target": 34962
    },
    {
      "buffer": 0,
      "byteLength": 1181952,
      "byteOffset": 5250368,
      "target": 34963
    },
    {
      "buffer": 0,
      "byteLength": 969760,
      "byteOffset": 6432320,
      "byteStride": 32,
      "target": 34962
    },
    {
      "buffer": 0,
      "byteLength": 576288,
      "byteOffset": 7402080,
      "target": 34963
    },
    {
      "buffer": 0,
      "byteLength": 969760,
      "byteOffset": 7978368,
      "byteStride": 32,
      "target": 34962
    },
    {
      "buffer": 0,
      "byteLength": 576288,
      "byteOffset": 8948128,
      "target": 34963
    }
  ],
  "buffers": [
    {
      "byteLength": 9524416,
      "uri": "15-01-2025.bin"
    }
  ],
  "images": [
    {
      "uri": "Steel_Rebar___B500A__B_or_Cbasecolortexture.jpeg"
    }
  ],
  "materials": [
    {
      "name": "Steel_Rebar___B500A__B_or_C",
      "pbrMetallicRoughness": {
        "baseColorFactor": [
          0.4391480088233948,
          0.21267099678516388,
          0.1043580025434494,
          1.0
        ],
        "baseColorTexture": {
          "index": 0
        },
        "metallicFactor": 0.0,
        "roughnessFactor": 0.4242599904537201
      }
    }
  ],
  "meshes": [
    {
      "name": "Rebar Bar H10 : Shape Rebar Shape 5 [396558]_[319274]001",
      "primitives": [
        {
          "attributes": {
            "NORMAL": 1,
            "POSITION": 0,
            "TEXCOORD_0": 2
          },
          "indices": 3,
          "material": 0,
          "mode": 4
        }
      ]
    },
    {
      "name": "Rebar Bar H10 : Shape Rebar Shape 5 [397089]_[319274]001",
      "primitives": [
        {
          "attributes": {
            "NORMAL": 5,
            "POSITION": 4,
            "TEXCOORD_0": 6
          },
          "indices": 7,
          "material": 0,
          "mode": 4
        }
      ]
    },
    {
      "name": "Rebar Bar H10 [397760]_[319274]001",
      "primitives": [
        {
          "attributes": {
            "NORMAL": 9,
            "POSITION": 8,
            "TEXCOORD_0": 10
          },
          "indices": 11,
          "material": 0,
          "mode": 4
        }
      ]
    },
    {
      "name": "Rebar Bar H10 [397761]_[319274]001",
      "primitives": [
        {
          "attributes": {
            "NORMAL": 13,
            "POSITION": 12,
            "TEXCOORD_0": 14
          },
          "indices": 15,
          "material": 0,
          "mode": 4
        }
      ]
    }
  ],
  "nodes": [
    {
      "matrix": [
        0.0254,
        0.0,
        0.0,
        0.0,
        0.0,
        0.0254,
        0.0,
        0.0,
        0.0,
        0.0,
        0.0254,
        0.0,
        0.0,
        0.0,
        0.0,
        1.0
      ],
      "mesh": 0,
      "name": "Rebar Bar H10 : Shape Rebar Shape 5 [396558]_[319274]001"
    },
    {
      "children": [
        0
      ],
      "matrix": [
        7.152556463552173e-06,
        -11.99999713897705,
        -4.9420048485519166e-29,
        0.0,
        9.884014511928692e-29,
        4.9420120707892074e-29,
        -11.999999999999998,
        0.0,
        11.99999713897705,
        7.152556463552173e-06,
        9.884019326753554e-29,
        0.0,
        -0.08385505599975586,
        6.90287710571289,
        -1.826935385131836,
        1.0
      ]
    },
    {
      "matrix": [
        0.0254,
        0.0,
        0.0,
        0.0,
        0.0,
        0.0254,
        0.0,
        0.0,
        0.0,
        0.0,
        0.0254,
        0.0,
        0.0,
        0.0,
        0.0,
        1.0
      ],
      "mesh": 1,
      "name": "Rebar Bar H10 : Shape Rebar Shape 5 [397089]_[319274]001"
    },
    {
      "children": [
        2
      ],
      "matrix": [
        7.152556463552173e-06,
        -11.99999713897705,
        -2.026774506959459e-14,
        0.0,
        4.0535510467979916e-14,
        2.0267772174648903e-14,
        -11.999999999999998,
        0.0,
        11.99999713897705,
        7.152556463552173e-06,
        4.053553079677065e-14,
        0.0,
        -0.08385505599975586,
        6.8928777160644525,
        2.414887094116211,
        1.0
      ]
    },
    {
      "matrix": [
        0.0254,
        0.0,
        0.0,
        0.0,
        0.0,
        0.0254,
        0.0,
        0.0,
        0.0,
        0.0,
        0.0254,
        0.0,
        0.0,
        0.0,
        0.0,
        1.0
      ],
      "mesh": 2,
      "name": "Rebar Bar H10 [397760]_[319274]001"
    },
    {
      "children": [
        4
      ],
      "matrix": [
        7.152556463552173e-06,
        -11.99999713897705,
        -2.1809831230509144e-14,
        0.0,
        4.361969295420439e-14,
        2.1809861723695246e-14,
        -11.999999999999998,
        0.0,
        11.99999713897705,
        7.152556463552173e-06,
        4.361971328299512e-14,
        0.0,
        -0.08385505599975586,
        6.90287710571289,
        2.414887094116211,
        1.0
      ]
    },
    {
      "matrix": [
        0.0254,
        0.0,
        0.0,
        0.0,
        0.0,
        0.0254,
        0.0,
        0.0,
        0.0,
        0.0,
        0.0254,
        0.0,
        0.0,
        0.0,
        0.0,
        1.0
      ],
      "mesh": 3,
      "name": "Rebar Bar H10 [397761]_[319274]001"
    },
    {
      "children": [
        6
      ],
      "matrix": [
        7.152556463552173e-06,
        -11.99999713897705,
        0.0,
        0.0,
        0.0,
        0.0,
        -11.999999999999998,
        0.0,
        11.99999713897705,
        7.152556463552173e-06,
        0.0,
        0.0,
        -4.323857394409179,
        6.90287710571289,
        2.369048031616211,
        1.0
      ]
    }
  ],
  "samplers": [
    {
      "magFilter": 9729,
      "minFilter": 9729,
      "wrapS": 10497,
      "wrapT": 10497
    }
  ],
  "scenes": [
    {
      "nodes": [
        1,
        3,
        5,
        7
      ]
    }
  ],
  "textures": [
    {
      "name": "texture_source0_sampler0",
      "sampler": 0,
      "source": 0
    }
  ]
}
