{
  "accessors": [
    {
      "bufferView": 0,
      "componentType": 5126,
      "count": 24,
      "max": [
        -86.8185043334961,
        106.63568115234375,
        -6.561679840087891
      ],
      "min": [
        -92.72401428222656,
        100.73017120361328,
        -8.038057327270508
      ],
      "type": "VEC3"
    },
    {
      "bufferView": 0,
      "byteOffset": 12,
      "componentType": 5126,
      "count": 24,
      "type": "VEC3"
    },
    {
      "bufferView": 1,
      "componentType": 5125,
      "count": 36,
      "type": "SCALAR"
    },
    {
      "bufferView": 2,
      "componentType": 5126,
      "count": 54015,
      "max": [
        0.16404342651367188,
        0.01640462875366211,
        13.435057640075684
      ],
      "min": [
        -0.09842300415039063,
        -13.441011428833008,
        -0.01640421152114868
      ],
      "type": "VEC3"
    },
    {
      "bufferView": 2,
      "byteOffset": 12,
      "componentType": 5126,
      "count": 54015,
      "type": "VEC3"
    },
    {
      "bufferView": 2,
      "byteOffset": 24,
      "componentType": 5126,
      "count": 54015,
      "type": "VEC2"
    },
    {
      "bufferView": 3,
      "componentType": 5125,
      "count": 269190,
      "type": "SCALAR"
    },
    {
      "bufferView": 4,
      "componentType": 5126,
      "count": 54270,
      "max": [
        0.16404342651367188,
        0.016411304473876953,
        0.016405105590820313
      ],
      "min": [
        -0.09842681884765625,
        -13.441011428833008,
        -13.435067176818848
      ],
      "type": "VEC3"
    },
    {
      "bufferView": 4,
      "byteOffset": 12,
      "componentType": 5126,
      "count": 54270,
      "type": "VEC3"
    },
    {
      "bufferView": 4,
      "byteOffset": 24,
      "componentType": 5126,
      "count": 54270,
      "type": "VEC2"
    },
    {
      "bufferView": 5,
      "componentType": 5125,
      "count": 270630,
      "type": "SCALAR"
    },
    {
      "bufferView": 6,
      "componentType": 5126,
      "count": 61952,
      "max": [
        0.2296587973833084,
        0.01640462875366211,
        0.01640421152114868
      ],
      "min": [
        -0.0984344482421875,
        -13.933145523071289,
        -13.927184104919434
      ],
      "type": "VEC3"
    },
    {
      "bufferView": 6,
      "byteOffset": 12,
      "componentType": 5126,
      "count": 61952,
      "type": "VEC3"
    },
    {
      "bufferView": 6,
      "byteOffset": 24,
      "componentType": 5126,
      "count": 61952,
      "type": "VEC2"
    },
    {
      "bufferView": 7,
      "componentType": 5125,
      "count": 295824,
      "type": "SCALAR"
    },
    {
      "bufferView": 8,
      "componentType": 5126,
      "count": 61840,
      "max": [
        0.2296587973833084,
        13.933145523071289,
        0.016404271125793457
      ],
      "min": [
        -0.0984344482421875,
        -0.016404200345277786,
        -13.927184104919434
      ],
      "type": "VEC3"
    },
    {
      "bufferView": 8,
      "byteOffset": 12,
      "componentType": 5126,
      "count": 61840,
      "type": "VEC3"
    },
    {
      "bufferView": 8,
      "byteOffset": 24,
      "componentType": 5126,
      "count": 61840,
      "type": "VEC2"
    },
    {
      "bufferView": 9,
      "componentType": 5125,
      "count": 295488,
      "type": "SCALAR"
    }
  ],
  "asset": {
    "version": "2.0"
  },
  "bufferViews": [
    {
      "buffer": 0,
      "byteLength": 768,
      "byteStride": 32,
      "target": 34962
    },
    {
      "buffer": 0,
      "byteLength": 144,
      "byteOffset": 768,
      "target": 34963
    },
    {
      "buffer": 0,
      "byteLength": 1728480,
      "byteOffset": 912,
      "byteStride": 32,
      "target": 34962
    },
    {
      "buffer": 0,
      "byteLength": 1076760,
      "byteOffset": 1729392,
      "target": 34963
    },
    {
      "buffer": 0,
      "byteLength": 1736640,
      "byteOffset": 2806152,
      "byteStride": 32,
      "target": 34962
    },
    {
      "buffer": 0,
      "byteLength": 1082520,
      "byteOffset": 4542792,
      "target": 34963
    },
    {
      "buffer": 0,
      "byteLength": 1982464,
      "byteOffset": 5625312,
      "byteStride": 32,
      "target": 34962
    },
    {
      "buffer": 0,
      "byteLength": 1183296,
      "byteOffset": 7607776,
      "target": 34963
    },
    {
      "buffer": 0,
      "byteLength": 1978880,
      "byteOffset": 8791072,
      "byteStride": 32,
      "target": 34962
    },
    {
      "buffer": 0,
      "byteLength": 1181952,
      "byteOffset": 10769952,
      "target": 34963
    }
  ],
  "buffers": [
    {
      "byteLength": 11951904,
      "uri": "22-01-2025.bin"
    }
  ],
  "images": [
    {
      "uri": "Steel_Rebar___B500A__B_or_Cbasecolortexture.jpeg"
    }
  ],
  "materials": [
    {
      "name": "Concrete___Cast_in_Place_Concrete",
      "pbrMetallicRoughness": {
        "baseColorFactor": [
          0.7185379862785339,
          0.7048349976539612,
          0.6867330074310303,
          1.0
        ],
        "metallicFactor": 0.0,
        "roughnessFactor": 0.5
      }
    },
    {
      "name": "Steel_Rebar___B500A__B_or_C",
      "pbrMetallicRoughness": {
        "baseColorFactor": [
          0.4391480088233948,
          0.21267099678516388,
          0.1043580025434494,
          1.0
        ],
        "baseColorTexture": {
          "index": 0
        },
        "metallicFactor": 0.0,
        "roughnessFactor": 0.4242599904537201
      }
    }
  ],
  "meshes": [
    {
      "name": "Footing-Rectangular 1800 x 1800 x 450mm [329140]001",
      "primitives": [
        {
          "attributes": {
            "NORMAL": 1,
            "POSITION": 0
          },
          "indices": 2,
          "material": 0,
          "mode": 4
        }
      ]
    },
    {
      "name": "Rebar Bar H10 [397895]_[319274]001",
      "primitives": [
        {
          "attributes": {
            "NORMAL": 4,
            "POSITION": 3,
            "TEXCOORD_0": 5
          },
          "indices": 6,
          "material": 1,
          "mode": 4
        }
      ]
    },
    {
      "name": "Rebar Bar H10 [397896]_[319274]001",
      "primitives": [
        {
          "attributes": {
            "NORMAL": 8,
            "POSITION": 7,
            "TEXCOORD_0": 9
          },
          "indices": 10,
          "material": 1,
          "mode": 4
        }
      ]
    },
    {
      "name": "Rebar Bar H10 : Shape Rebar Shape 5 [397909]_[319274]001",
      "primitives": [
        {
          "attributes": {
            "NORMAL": 12,
            "POSITION": 11,
            "TEXCOORD_0": 13
          },
          "indices": 14,
          "material": 1,
          "mode": 4
        }
      ]
    },
    {
      "name": "Rebar Bar H10 : Shape Rebar Shape 5 [398766]_[319274]001",
      "primitives": [
        {
          "attributes": {
            "NORMAL": 16,
            "POSITION": 15,
            "TEXCOORD_0": 17
          },
          "indices": 18,
          "material": 1,
          "mode": 4
        }
      ]
    }
  ],
  "nodes": [
    {
      "matrix": [
        0.0254,
        0.0,
        0.0,
        0.0,
        0.0,
        0.0254,
        0.0,
        0.0,
        0.0,
        0.0,
        0.0254,
        0.0,
        0.0,
        0.0,
        0.0,
        1.0
      ],
      "mesh": 0,
      "name": "Footing-Rectangular 1800 x 1800 x 450mm [329140]001"
    },
    {
      "children": [
        0
      ],
      "matrix": [
        11.999999999999998,
        0.0,
        0.0,
        0.0,
        0.0,
        0.0,
        -11.999999999999998,
        0.0,
        0.0,
        11.999999999999998,
        0.0,
        0.0,
        23.15842209472656,
        3.957877407836914,
        29.897437109374998,
        1.0
      ]
    },
    {
      "matrix": [
        0.0254,
        0.0,
        0.0,
        0.0,
        0.0,
        0.0254,
        0.0,
        0.0,
        0.0,
        0.0,
        0.0254,
        0.0,
        0.0,
        0.0,
        0.0,
        1.0
      ],
      "mesh": 1,
      "name": "Rebar Bar H10 [397895]_[319274]001"
    },
    {
      "children": [
        2
      ],
      "matrix": [
        0.0,
        11.99999713897705,
        0.0,
        0.0,
        0.0,
        0.0,
        -12.0,
        0.0,
        -11.99999713897705,
        0.0,
        0.0,
        0.0,
        -0.15885512924194337,
        9.862877825927734,
        -1.7519329864501954,
        1.0
      ]
    },
    {
      "matrix": [
        0.0254,
        0.0,
        0.0,
        0.0,
        0.0,
        0.0254,
        0.0,
        0.0,
        0.0,
        0.0,
        0.0254,
        0.0,
        0.0,
        0.0,
        0.0,
        1.0
      ],
      "mesh": 2,
      "name": "Rebar Bar H10 [397896]_[319274]001"
    },
    {
      "children": [
        4
      ],
      "matrix": [
        3.9639107938654743e-29,
        11.99999713897705,
        2.180983800677272e-14,
        0.0,
        -6.542953434910889e-14,
        2.180983970083861e-14,
        -12.0,
        0.0,
        -11.99999713897705,
        -7.927822791437165e-29,
        6.542952757284531e-14,
        0.0,
        -4.248859646606445,
        9.872879541015624,
        -1.7519329864501954,
        1.0
      ]
    },
    {
      "matrix": [
        0.0254,
        0.0,
        0.0,
        0.0,
        0.0,
        0.0254,
        0.0,
        0.0,
        0.0,
        0.0,
        0.0254,
        0.0,
        0.0,
        0.0,
        0.0,
        1.0
      ],
      "mesh": 3,
      "name": "Rebar Bar H10 : Shape Rebar Shape 5 [397909]_[319274]001"
    },
    {
      "children": [
        6
      ],
      "matrix": [
        7.152556463552173e-06,
        -11.99999713897705,
        -5.287377050654018e-29,
        0.0,
        1.0574760119839112e-28,
        5.28738427289131e-29,
        -11.999999999999998,
        0.0,
        11.99999713897705,
        7.152556463552173e-06,
        1.0574764934663973e-28,
        0.0,
        -0.08385505599975586,
        9.902877709960936,
        -1.826935385131836,
        1.0
      ]
    },
    {
      "matrix": [
        0.0254,
        0.0,
        0.0,
        0.0,
        0.0,
        0.0254,
        0.0,
        0.0,
        0.0,
        0.0,
        0.0254,
        0.0,
        0.0,
        0.0,
        0.0,
        1.0
      ],
      "mesh": 4,
      "name": "Rebar Bar H10 : Shape Rebar Shape 5 [398766]_[319274]001"
    },
    {
      "children": [
        8
      ],
      "matrix": [
        7.152556463552173e-06,
        -11.99999713897705,
        -2.5321362167414138e-14,
        0.0,
        5.064274127548722e-14,
        2.5321396048732025e-14,
        -11.999999999999998,
        0.0,
        11.99999713897705,
        7.152556463552173e-06,
        5.064276160427795e-14,
        0.0,
        -0.08385505599975586,
        9.902877709960936,
        2.414887094116211,
        1.0
      ]
    }
  ],
  "samplers": [
    {
      "magFilter": 9729,
      "minFilter": 9729,
      "wrapS": 10497,
      "wrapT": 10497
    }
  ],
  "scenes": [
    {
      "nodes": [
        1,
        3,
        5,
        7,
        9
      ]
    }
  ],
  "textures": [
    {
      "name": "texture_source0_sampler0",
      "sampler": 0,
      "source": 0
    }
  ]
}
