{
  "accessors": [
    {
      "bufferView": 0,
      "componentType": 5126,
      "count": 4296,
      "max": [
        1.968505859375,
        0.019685039296746254,
        13.825460433959961
      ],
      "min": [
        0.0,
        -0.01968669891357422,
        -0.019685745239257813
      ],
      "type": "VEC3"
    },
    {
      "bufferView": 0,
      "byteOffset": 12,
      "componentType": 5126,
      "count": 4296,
      "type": "VEC3"
    },
    {
      "bufferView": 0,
      "byteOffset": 24,
      "componentType": 5126,
      "count": 4296,
      "type": "VEC2"
    },
    {
      "bufferView": 1,
      "componentType": 5125,
      "count": 21672,
      "type": "SCALAR"
    },
    {
      "bufferView": 2,
      "componentType": 5126,
      "count": 29088,
      "max": [
        0.3770332336425781,
        8.920289993286133,
        0.35502052307128906
      ],
      "min": [
        -0.6008930206298828,
        -0.3262290954589844,
        -8.927571296691895
      ],
      "type": "VEC3"
    },
    {
      "bufferView": 2,
      "byteOffset": 12,
      "componentType": 5126,
      "count": 29088,
      "type": "VEC3"
    },
    {
      "bufferView": 2,
      "byteOffset": 24,
      "componentType": 5126,
      "count": 29088,
      "type": "VEC2"
    },
    {
      "bufferView": 3,
      "componentType": 5125,
      "count": 127818,
      "type": "SCALAR"
    },
    {
      "bufferView": 4,
      "componentType": 5126,
      "count": 4328,
      "max": [
        2.624673843383789,
        0.02624678611755371,
        13.162729263305664
      ],
      "min": [
        0.0,
        -0.026247739791870117,
        -0.02624671906232834
      ],
      "type": "VEC3"
    },
    {
      "bufferView": 4,
      "byteOffset": 12,
      "componentType": 5126,
      "count": 4328,
      "type": "VEC3"
    },
    {
      "bufferView": 4,
      "byteOffset": 24,
      "componentType": 5126,
      "count": 4328,
      "type": "VEC2"
    },
    {
      "bufferView": 5,
      "componentType": 5125,
      "count": 22170,
      "type": "SCALAR"
    },
    {
      "bufferView": 6,
      "componentType": 5126,
      "count": 4328,
      "max": [
        2.6246719360351563,
        0.02624678611755371,
        13.162729263305664
      ],
      "min": [
        0.0,
        -0.026247739791870117,
        -0.02624671906232834
      ],
      "type": "VEC3"
    },
    {
      "bufferView": 6,
      "byteOffset": 12,
      "componentType": 5126,
      "count": 4328,
      "type": "VEC3"
    },
    {
      "bufferView": 6,
      "byteOffset": 24,
      "componentType": 5126,
      "count": 4328,
      "type": "VEC2"
    },
    {
      "bufferView": 7,
      "componentType": 5125,
      "count": 22170,
      "type": "SCALAR"
    },
    {
      "bufferView": 8,
      "componentType": 5126,
      "count": 4328,
      "max": [
        2.624673843383789,
        0.02624678611755371,
        13.162729263305664
      ],
      "min": [
        0.0,
        -0.026247739791870117,
        -0.02624671906232834
      ],
      "type": "VEC3"
    },
    {
      "bufferView": 8,
      "byteOffset": 12,
      "componentType": 5126,
      "count": 4328,
      "type": "VEC3"
    },
    {
      "bufferView": 8,
      "byteOffset": 24,
      "componentType": 5126,
      "count": 4328,
      "type": "VEC2"
    },
    {
      "bufferView": 9,
      "componentType": 5125,
      "count": 22170,
      "type": "SCALAR"
    },
    {
      "bufferView": 10,
      "componentType": 5126,
      "count": 4296,
      "max": [
        1.9685020446777344,
        0.01968526840209961,
        13.825460433959961
      ],
      "min": [
        -1.9073486328125e-06,
        -0.019686222076416016,
        -0.019685745239257813
      ],
      "type": "VEC3"
    },
    {
      "bufferView": 10,
      "byteOffset": 12,
      "componentType": 5126,
      "count": 4296,
      "type": "VEC3"
    },
    {
      "bufferView": 10,
      "byteOffset": 24,
      "componentType": 5126,
      "count": 4296,
      "type": "VEC2"
    },
    {
      "bufferView": 11,
      "componentType": 5125,
      "count": 21672,
      "type": "SCALAR"
    },
    {
      "bufferView": 12,
      "componentType": 5126,
      "count": 4296,
      "max": [
        1.9685077667236328,
        0.01968526840209961,
        13.825460433959961
      ],
      "min": [
        0.0,
        -0.019686222076416016,
        -0.019685745239257813
      ],
      "type": "VEC3"
    },
    {
      "bufferView": 12,
      "byteOffset": 12,
      "componentType": 5126,
      "count": 4296,
      "type": "VEC3"
    },
    {
      "bufferView": 12,
      "byteOffset": 24,
      "componentType": 5126,
      "count": 4296,
      "type": "VEC2"
    },
    {
      "bufferView": 13,
      "componentType": 5125,
      "count": 21672,
      "type": "SCALAR"
    },
    {
      "bufferView": 14,
      "componentType": 5126,
      "count": 4296,
      "max": [
        1.968505859375,
        0.01968526840209961,
        13.825460433959961
      ],
      "min": [
        0.0,
        -0.019686222076416016,
        -0.019685745239257813
      ],
      "type": "VEC3"
    },
    {
      "bufferView": 14,
      "byteOffset": 12,
      "componentType": 5126,
      "count": 4296,
      "type": "VEC3"
    },
    {
      "bufferView": 14,
      "byteOffset": 24,
      "componentType": 5126,
      "count": 4296,
      "type": "VEC2"
    },
    {
      "bufferView": 15,
      "componentType": 5125,
      "count": 21672,
      "type": "SCALAR"
    },
    {
      "bufferView": 16,
      "componentType": 5126,
      "count": 54000,
      "max": [
        0.2624683380126953,
        13.441011428833008,
        13.435039520263672
      ],
      "min": [
        0.0,
        -0.016404200345277786,
        -0.016405105590820313
      ],
      "type": "VEC3"
    },
    {
      "bufferView": 16,
      "byteOffset": 12,
      "componentType": 5126,
      "count": 54000,
      "type": "VEC3"
    },
    {
      "bufferView": 16,
      "byteOffset": 24,
      "componentType": 5126,
      "count": 54000,
      "type": "VEC2"
    },
    {
      "bufferView": 17,
      "componentType": 5125,
      "count": 269190,
      "type": "SCALAR"
    }
  ],
  "asset": {
    "version": "2.0"
  },
  "bufferViews": [
    {
      "buffer": 0,
      "byteLength": 137472,
      "byteStride": 32,
      "target": 34962
    },
    {
      "buffer": 0,
      "byteLength": 86688,
      "byteOffset": 137472,
      "target": 34963
    },
    {
      "buffer": 0,
      "byteLength": 930816,
      "byteOffset": 224160,
      "byteStride": 32,
      "target": 34962
    },
    {
      "buffer": 0,
      "byteLength": 511272,
      "byteOffset": 1154976,
      "target": 34963
    },
    {
      "buffer": 0,
      "byteLength": 138496,
      "byteOffset": 1666248,
      "byteStride": 32,
      "target": 34962
    },
    {
      "buffer": 0,
      "byteLength": 88680,
      "byteOffset": 1804744,
      "target": 34963
    },
    {
      "buffer": 0,
      "byteLength": 138496,
      "byteOffset": 1893424,
      "byteStride": 32,
      "target": 34962
    },
    {
      "buffer": 0,
      "byteLength": 88680,
      "byteOffset": 2031920,
      "target": 34963
    },
    {
      "buffer": 0,
      "byteLength": 138496,
      "byteOffset": 2120600,
      "byteStride": 32,
      "target": 34962
    },
    {
      "buffer": 0,
      "byteLength": 88680,
      "byteOffset": 2259096,
      "target": 34963
    },
    {
      "buffer": 0,
      "byteLength": 137472,
      "byteOffset": 2347776,
      "byteStride": 32,
      "target": 34962
    },
    {
      "buffer": 0,
      "byteLength": 86688,
      "byteOffset": 2485248,
      "target": 34963
    },
    {
      "buffer": 0,
      "byteLength": 137472,
      "byteOffset": 2571936,
      "byteStride": 32,
      "target": 34962
    },
    {
      "buffer": 0,
      "byteLength": 86688,
      "byteOffset": 2709408,
      "target": 34963
    },
    {
      "buffer": 0,
      "byteLength": 137472,
      "byteOffset": 2796096,
      "byteStride": 32,
      "target": 34962
    },
    {
      "buffer": 0,
      "byteLength": 86688,
      "byteOffset": 2933568,
      "target": 34963
    },
    {
      "buffer": 0,
      "byteLength": 1728000,
      "byteOffset": 3020256,
      "byteStride": 32,
      "target": 34962
    },
    {
      "buffer": 0,
      "byteLength": 1076760,
      "byteOffset": 4748256,
      "target": 34963
    }
  ],
  "buffers": [
    {
      "byteLength": 5825016,
      "uri": "01-10-2025.bin"
    }
  ],
  "extensionsUsed": [
    "KHR_texture_transform"
  ],
  "images": [
    {
      "uri": "Steel_Rebar___B500A__B_or_Cbasecolortexture.jpeg"
    }
  ],
  "materials": [
    {
      "name": "Steel_Rebar___B500A__B_or_C",
      "pbrMetallicRoughness": {
        "baseColorFactor": [
          0.4391480088233948,
          0.21267099678516388,
          0.1043580025434494,
          1.0
        ],
        "baseColorTexture": {
          "extensions": {
            "KHR_texture_transform": {
              "scale": [
                0.8466669917106628,
                0.8466669917106628
              ]
            }
          },
          "index": 0
        },
        "metallicFactor": 0.0,
        "roughnessFactor": 0.4242599904537201
      }
    }
  ],
  "meshes": [
    {
      "name": "Rebar Bar H12 : Shape Rebar Shape 2 [386475]_[319274]001",
      "primitives": [
        {
          "attributes": {
            "NORMAL": 1,
            "POSITION": 0,
            "TEXCOORD_0": 2
          },
          "indices": 3,
          "material": 0,
          "mode": 4
        }
      ]
    },
    {
      "name": "Rebar Bar H8 : Shape 52 [386791]_[319274]001",
      "primitives": [
        {
          "attributes": {
            "NORMAL": 5,
            "POSITION": 4,
            "TEXCOORD_0": 6
          },
          "indices": 7,
          "material": 0,
          "mode": 4
        }
      ]
    },
    {
      "name": "Rebar Bar H16 : Shape Rebar Shape 2 [386793]_[319274]001",
      "primitives": [
        {
          "attributes": {
            "NORMAL": 9,
            "POSITION": 8,
            "TEXCOORD_0": 10
          },
          "indices": 11,
          "material": 0,
          "mode": 4
        }
      ]
    },
    {
      "name": "Rebar Bar H16 : Shape Rebar Shape 2 [386794]_[319274]001",
      "primitives": [
        {
          "attributes": {
            "NORMAL": 13,
            "POSITION": 12,
            "TEXCOORD_0": 14
          },
          "indices": 15,
          "material": 0,
          "mode": 4
        }
      ]
    },
    {
      "name": "Rebar Bar H16 : Shape Rebar Shape 2 [386795]_[319274]001",
      "primitives": [
        {
          "attributes": {
            "NORMAL": 17,
            "POSITION": 16,
            "TEXCOORD_0": 18
          },
          "indices": 19,
          "material": 0,
          "mode": 4
        }
      ]
    },
    {
      "name": "Rebar Bar H12 : Shape Rebar Shape 2 [386796]_[319274]001",
      "primitives": [
        {
          "attributes": {
            "NORMAL": 21,
            "POSITION": 20,
            "TEXCOORD_0": 22
          },
          "indices": 23,
          "material": 0,
          "mode": 4
        }
      ]
    },
    {
      "name": "Rebar Bar H12 : Shape Rebar Shape 2 [386797]_[319274]001",
      "primitives": [
        {
          "attributes": {
            "NORMAL": 25,
            "POSITION": 24,
            "TEXCOORD_0": 26
          },
          "indices": 27,
          "material": 0,
          "mode": 4
        }
      ]
    },
    {
      "name": "Rebar Bar H12 : Shape Rebar Shape 2 [386798]_[319274]001",
      "primitives": [
        {
          "attributes": {
            "NORMAL": 29,
            "POSITION": 28,
            "TEXCOORD_0": 30
          },
          "indices": 31,
          "material": 0,
          "mode": 4
        }
      ]
    },
    {
      "name": "Rebar Bar H10 [397895]_[319274]001",
      "primitives": [
        {
          "attributes": {
            "NORMAL": 33,
            "POSITION": 32,
            "TEXCOORD_0": 34
          },
          "indices": 35,
          "material": 0,
          "mode": 4
        }
      ]
    }
  ],
  "nodes": [
    {
      "matrix": [
        0.0254,
        0.0,
        0.0,
        0.0,
        0.0,
        0.0254,
        0.0,
        0.0,
        0.0,
        0.0,
        0.0254,
        0.0,
        0.0,
        0.0,
        0.0,
        1.0
      ],
      "mesh": 0,
      "name": "Rebar Bar H12 : Shape Rebar Shape 2 [386475]_[319274]001"
    },
    {
      "children": [
        0
      ],
      "matrix": [
        -5.245366310191457e-07,
        12.0,
        0.0,
        0.0,
        2.1316282072803006e-14,
        9.31764232026825e-22,
        -12.0,
        0.0,
        -12.0,
        -5.245366310191457e-07,
        -2.1316282072803006e-14,
        0.0,
        0.9642483139038086,
        5.357161376953125,
        -4.776681304931641,
        1.0
      ]
    },
    {
      "matrix": [
        0.0254,
        0.0,
        0.0,
        0.0,
        0.0,
        0.0254,
        0.0,
        0.0,
        0.0,
        0.0,
        0.0254,
        0.0,
        0.0,
        0.0,
        0.0,
        1.0
      ],
      "mesh": 1,
      "name": "Rebar Bar H8 : Shape 52 [386791]_[319274]001"
    },
    {
      "children": [
        2
      ],
      "matrix": [
        -3.7090342175361e-07,
        8.485280990600586,
        8.485280990600586,
        0.0,
        8.485280990600586,
        5.999999523162842,
        -5.999999046325684,
        0.0,
        -8.485280990600586,
        5.999999523162842,
        -6.0,
        0.0,
        -2.9857520553588865,
        5.8725113159179685,
        -0.6749170886993408,
        1.0
      ]
    },
    {
      "matrix": [
        0.0254,
        0.0,
        0.0,
        0.0,
        0.0,
        0.0254,
        0.0,
        0.0,
        0.0,
        0.0,
        0.0254,
        0.0,
        0.0,
        0.0,
        0.0,
        1.0
      ],
      "mesh": 2,
      "name": "Rebar Bar H16 : Shape Rebar Shape 2 [386793]_[319274]001"
    },
    {
      "children": [
        4
      ],
      "matrix": [
        -5.245366310191457e-07,
        12.0,
        0.0,
        0.0,
        5.395683899678262e-14,
        2.3585282060070137e-21,
        -12.0,
        0.0,
        -12.0,
        -5.245366310191457e-07,
        -5.395683899678262e-14,
        0.0,
        0.962248435974121,
        4.958808947753906,
        -0.626701427078247,
        1.0
      ]
    },
    {
      "matrix": [
        0.0254,
        0.0,
        0.0,
        0.0,
        0.0,
        0.0254,
        0.0,
        0.0,
        0.0,
        0.0,
        0.0254,
        0.0,
        0.0,
        0.0,
        0.0,
        1.0
      ],
      "mesh": 3,
      "name": "Rebar Bar H16 : Shape Rebar Shape 2 [386794]_[319274]001"
    },
    {
      "children": [
        6
      ],
      "matrix": [
        -5.245366310191457e-07,
        12.0,
        0.0,
        0.0,
        5.395683899678262e-14,
        2.3585282060070137e-21,
        -12.0,
        0.0,
        -12.0,
        -5.245366310191457e-07,
        -5.395683899678262e-14,
        0.0,
        0.962248435974121,
        4.958339208984375,
        -0.7751621326446533,
        1.0
      ]
    },
    {
      "matrix": [
        0.0254,
        0.0,
        0.0,
        0.0,
        0.0,
        0.0254,
        0.0,
        0.0,
        0.0,
        0.0,
        0.0254,
        0.0,
        0.0,
        0.0,
        0.0,
        1.0
      ],
      "mesh": 4,
      "name": "Rebar Bar H16 : Shape Rebar Shape 2 [386795]_[319274]001"
    },
    {
      "children": [
        8
      ],
      "matrix": [
        -5.245366310191457e-07,
        12.0,
        0.0,
        0.0,
        5.395683899678262e-14,
        2.3585282060070137e-21,
        -12.0,
        0.0,
        -12.0,
        -5.245366310191457e-07,
        -5.395683899678262e-14,
        0.0,
        0.962248435974121,
        4.958808947753906,
        -0.7018714027404784,
        1.0
      ]
    },
    {
      "matrix": [
        0.0254,
        0.0,
        0.0,
        0.0,
        0.0,
        0.0254,
        0.0,
        0.0,
        0.0,
        0.0,
        0.0254,
        0.0,
        0.0,
        0.0,
        0.0,
        1.0
      ],
      "mesh": 5,
      "name": "Rebar Bar H12 : Shape Rebar Shape 2 [386796]_[319274]001"
    },
    {
      "children": [
        10
      ],
      "matrix": [
        -5.245366310191457e-07,
        12.0,
        0.0,
        0.0,
        3.877306868583716e-14,
        1.694824614616355e-21,
        -12.0,
        0.0,
        -12.0,
        -5.245366310191457e-07,
        -3.877306868583716e-14,
        0.0,
        0.9642483139038086,
        5.356806747436523,
        -0.6242804992675781,
        1.0
      ]
    },
    {
      "matrix": [
        0.0254,
        0.0,
        0.0,
        0.0,
        0.0,
        0.0254,
        0.0,
        0.0,
        0.0,
        0.0,
        0.0254,
        0.0,
        0.0,
        0.0,
        0.0,
        1.0
      ],
      "mesh": 6,
      "name": "Rebar Bar H12 : Shape Rebar Shape 2 [386797]_[319274]001"
    },
    {
      "children": [
        12
      ],
      "matrix": [
        -5.245366310191457e-07,
        12.0,
        0.0,
        0.0,
        2.1316282072803006e-14,
        9.31764232026825e-22,
        -12.0,
        0.0,
        -12.0,
        -5.245366310191457e-07,
        -2.1316282072803006e-14,
        0.0,
        0.9642483139038086,
        5.3578717987060545,
        -0.6999478282928466,
        1.0
      ]
    },
    {
      "matrix": [
        0.0254,
        0.0,
        0.0,
        0.0,
        0.0,
        0.0254,
        0.0,
        0.0,
        0.0,
        0.0,
        0.0254,
        0.0,
        0.0,
        0.0,
        0.0,
        1.0
      ],
      "mesh": 7,
      "name": "Rebar Bar H12 : Shape Rebar Shape 2 [386798]_[319274]001"
    },
    {
      "children": [
        14
      ],
      "matrix": [
        -5.245366310191457e-07,
        12.0,
        0.0,
        0.0,
        2.1316282072803006e-14,
        9.31764232026825e-22,
        -12.0,
        0.0,
        -12.0,
        -5.245366310191457e-07,
        -2.1316282072803006e-14,
        0.0,
        0.9642483139038086,
        5.357161376953125,
        -0.7766807899475098,
        1.0
      ]
    },
    {
      "matrix": [
        0.0254,
        0.0,
        0.0,
        0.0,
        0.0,
        0.0254,
        0.0,
        0.0,
        0.0,
        0.0,
        0.0254,
        0.0,
        0.0,
        0.0,
        0.0,
        1.0
      ],
      "mesh": 8,
      "name": "Rebar Bar H10 [397895]_[319274]001"
    },
    {
      "children": [
        16
      ],
      "matrix": [
        -5.245366310191457e-07,
        -12.0,
        -0.0,
        0.0,
        4.096202921745434e-29,
        -1.7905071621835727e-36,
        -12.0,
        0.0,
        12.0,
        -5.245366310191457e-07,
        4.096202921745434e-29,
        0.0,
        -3.1847515365600585,
        5.955000466918945,
        -0.655712446975708,
        1.0
      ]
    }
  ],
  "samplers": [
    {
      "magFilter": 9729,
      "minFilter": 9729,
      "wrapS": 10497,
      "wrapT": 10497
    }
  ],
  "scenes": [
    {
      "nodes": [
        1,
        3,
        5,
        7,
        9,
        11,
        13,
        15,
        17
      ]
    }
  ],
  "textures": [
    {
      "name": "texture_source0_sampler0",
      "sampler": 0,
      "source": 0
    }
  ]
}
