{
  "accessors": [
    {
      "bufferView": 0,
      "componentType": 5126,
      "count": 54270,
      "max": [
        0.2624664306640625,
        13.441011428833008,
        0.016404200345277786
      ],
      "min": [
        -3.814697265625e-06,
        -0.016404200345277786,
        -13.435040473937988
      ],
      "type": "VEC3"
    },
    {
      "bufferView": 0,
      "byteOffset": 12,
      "componentType": 5126,
      "count": 54270,
      "type": "VEC3"
    },
    {
      "bufferView": 1,
      "componentType": 5125,
      "count": 270630,
      "type": "SCALAR"
    },
    {
      "bufferView": 2,
      "componentType": 5126,
      "count": 61952,
      "max": [
        0.3280830383300781,
        13.933137893676758,
        0.016405105590820313
      ],
      "min": [
        -1.9073486328125e-06,
        -0.016404200345277786,
        -13.927165031433105
      ],
      "type": "VEC3"
    },
    {
      "bufferView": 2,
      "byteOffset": 12,
      "componentType": 5126,
      "count": 61952,
      "type": "VEC3"
    },
    {
      "bufferView": 3,
      "componentType": 5125,
      "count": 295824,
      "type": "SCALAR"
    },
    {
      "bufferView": 4,
      "componentType": 5126,
      "count": 61840,
      "max": [
        0.3280830383300781,
        0.016404200345277786,
        0.016404200345277786
      ],
      "min": [
        -1.9073486328125e-06,
        -13.933137893676758,
        -13.927165031433105
      ],
      "type": "VEC3"
    },
    {
      "bufferView": 4,
      "byteOffset": 12,
      "componentType": 5126,
      "count": 61840,
      "type": "VEC3"
    },
    {
      "bufferView": 5,
      "componentType": 5125,
      "count": 295488,
      "type": "SCALAR"
    }
  ],
  "asset": {
    "version": "2.0"
  },
  "bufferViews": [
    {
      "buffer": 0,
      "byteLength": 1736640,
      "byteStride": 32,
      "target": 34962
    },
    {
      "buffer": 0,
      "byteLength": 1082520,
      "byteOffset": 1736640,
      "target": 34963
    },
    {
      "buffer": 0,
      "byteLength": 1982464,
      "byteOffset": 2819160,
      "byteStride": 32,
      "target": 34962
    },
    {
      "buffer": 0,
      "byteLength": 1183296,
      "byteOffset": 4801624,
      "target": 34963
    },
    {
      "buffer": 0,
      "byteLength": 1978880,
      "byteOffset": 5984920,
      "byteStride": 32,
      "target": 34962
    },
    {
      "buffer": 0,
      "byteLength": 1181952,
      "byteOffset": 7963800,
      "target": 34963
    }
  ],
  "buffers": [
    {
      "byteLength": 9145752,
      "uri": "02-10-2025.bin"
    }
  ],
  "materials": [
    {
      "name": "fallback Material",
      "pbrMetallicRoughness": {
        "baseColorFactor": [
          0.0,
          0.0,
          0.0,
          1.0
        ]
      }
    }
  ],
  "meshes": [
    {
      "name": "Rebar Bar H10 [397896]_[319274]001",
      "primitives": [
        {
          "attributes": {
            "NORMAL": 1,
            "POSITION": 0
          },
          "indices": 2,
          "material": 0,
          "mode": 4
        }
      ]
    },
    {
      "name": "Rebar Bar H10 : Shape Rebar Shape 5 [397909]_[319274]001",
      "primitives": [
        {
          "attributes": {
            "NORMAL": 4,
            "POSITION": 3
          },
          "indices": 5,
          "material": 0,
          "mode": 4
        }
      ]
    },
    {
      "name": "Rebar Bar H10 : Shape Rebar Shape 5 [398766]_[319274]001",
      "primitives": [
        {
          "attributes": {
            "NORMAL": 7,
            "POSITION": 6
          },
          "indices": 8,
          "material": 0,
          "mode": 4
        }
      ]
    }
  ],
  "nodes": [
    {
      "matrix": [
        0.0254,
        0.0,
        0.0,
        0.0,
        0.0,
        0.0254,
        0.0,
        0.0,
        0.0,
        0.0,
        0.0254,
        0.0,
        0.0,
        0.0,
        0.0,
        1.0
      ],
      "mesh": 0,
      "name": "Rebar Bar H10 [397896]_[319274]001"
    },
    {
      "children": [
        0
      ],
      "matrix": [
        -5.245366310191457e-07,
        -12.0,
        -0.0,
        0.0,
        -1.938653434291858e-14,
        8.474123073081775e-22,
        -12.0,
        0.0,
        12.0,
        -5.245366310191457e-07,
        -1.938653434291858e-14,
        0.0,
        0.9052484268188477,
        5.964999856567383,
        -0.655712446975708,
        1.0
      ]
    },
    {
      "matrix": [
        0.0254,
        0.0,
        0.0,
        0.0,
        0.0,
        0.0254,
        0.0,
        0.0,
        0.0,
        0.0,
        0.0254,
        0.0,
        0.0,
        0.0,
        0.0,
        1.0
      ],
      "mesh": 1,
      "name": "Rebar Bar H10 : Shape Rebar Shape 5 [397909]_[319274]001"
    },
    {
      "children": [
        2
      ],
      "matrix": [
        -5.245366310191457e-07,
        12.0,
        0.0,
        0.0,
        5.927447228755856e-29,
        2.5909695611340876e-36,
        -12.0,
        0.0,
        -12.0,
        -5.245366310191457e-07,
        -5.927447228755856e-29,
        0.0,
        -3.2597514160156247,
        5.8750006988525385,
        -0.5807124221801757,
        1.0
      ]
    },
    {
      "matrix": [
        0.0254,
        0.0,
        0.0,
        0.0,
        0.0,
        0.0254,
        0.0,
        0.0,
        0.0,
        0.0,
        0.0254,
        0.0,
        0.0,
        0.0,
        0.0,
        1.0
      ],
      "mesh": 2,
      "name": "Rebar Bar H10 : Shape Rebar Shape 5 [398766]_[319274]001"
    },
    {
      "children": [
        4
      ],
      "matrix": [
        -5.245366310191457e-07,
        12.0,
        0.0,
        0.0,
        1.938653434291858e-14,
        8.474123073081775e-22,
        -12.0,
        0.0,
        -12.0,
        -5.245366310191457e-07,
        -1.938653434291858e-14,
        0.0,
        -3.2597514160156247,
        5.8750006988525385,
        -4.822532769775391,
        1.0
      ]
    }
  ],
  "scenes": [
    {
      "nodes": [
        1,
        3,
        5
      ]
    }
  ]
}
