{
  "accessors": [
    {
      "bufferView": 0,
      "componentType": 5126,
      "count": 61840,
      "max": [
        0.3280830383300781,
        0.016404200345277786,
        0.016404200345277786
      ],
      "min": [
        -1.9073486328125e-06,
        -13.933137893676758,
        -13.927165031433105
      ],
      "type": "VEC3"
    },
    {
      "bufferView": 0,
      "byteOffset": 12,
      "componentType": 5126,
      "count": 61840,
      "type": "VEC3"
    },
    {
      "bufferView": 1,
      "componentType": 5125,
      "count": 295488,
      "type": "SCALAR"
    },
    {
      "bufferView": 2,
      "componentType": 5126,
      "count": 29464,
      "max": [
        3.2808399200439453,
        13.78274917602539,
        0.016405105590820313
      ],
      "min": [
        -4.76837158203125e-07,
        -0.016404200345277786,
        -0.246063232421875
      ],
      "type": "VEC3"
    },
    {
      "bufferView": 2,
      "byteOffset": 12,
      "componentType": 5126,
      "count": 29464,
      "type": "VEC3"
    },
    {
      "bufferView": 3,
      "componentType": 5125,
      "count": 139374,
      "type": "SCALAR"
    },
    {
      "bufferView": 4,
      "componentType": 5126,
      "count": 29464,
      "max": [
        3.280841827392578,
        0.016404200345277786,
        0.246063232421875
      ],
      "min": [
        0.0,
        -13.782750129699707,
        -0.016407012939453125
      ],
      "type": "VEC3"
    },
    {
      "bufferView": 4,
      "byteOffset": 12,
      "componentType": 5126,
      "count": 29464,
      "type": "VEC3"
    },
    {
      "bufferView": 5,
      "componentType": 5125,
      "count": 139374,
      "type": "SCALAR"
    },
    {
      "bufferView": 6,
      "componentType": 5126,
      "count": 29464,
      "max": [
        3.2808408737182617,
        13.782748222351074,
        0.016405105590820313
      ],
      "min": [
        0.0,
        -0.016404390335083008,
        -0.246063232421875
      ],
      "type": "VEC3"
    },
    {
      "bufferView": 6,
      "byteOffset": 12,
      "componentType": 5126,
      "count": 29464,
      "type": "VEC3"
    },
    {
      "bufferView": 7,
      "componentType": 5125,
      "count": 139374,
      "type": "SCALAR"
    },
    {
      "bufferView": 8,
      "componentType": 5126,
      "count": 29464,
      "max": [
        3.280839681625366,
        13.782748222351074,
        0.016405105590820313
      ],
      "min": [
        0.0,
        -0.016404200345277786,
        -0.246063232421875
      ],
      "type": "VEC3"
    },
    {
      "bufferView": 8,
      "byteOffset": 12,
      "componentType": 5126,
      "count": 29464,
      "type": "VEC3"
    },
    {
      "bufferView": 9,
      "componentType": 5125,
      "count": 139374,
      "type": "SCALAR"
    },
    {
      "bufferView": 10,
      "componentType": 5126,
      "count": 24,
      "max": [
        2.3302109241485596,
        15.832389831542969,
        19.192913055419922
      ],
      "min": [
        -9.808897018432617,
        15.012179374694824,
        18.700786590576172
      ],
      "type": "VEC3"
    },
    {
      "bufferView": 10,
      "byteOffset": 12,
      "componentType": 5126,
      "count": 24,
      "type": "VEC3"
    },
    {
      "bufferView": 11,
      "componentType": 5125,
      "count": 36,
      "type": "SCALAR"
    }
  ],
  "asset": {
    "version": "2.0"
  },
  "bufferViews": [
    {
      "buffer": 0,
      "byteLength": 1978880,
      "byteStride": 32,
      "target": 34962
    },
    {
      "buffer": 0,
      "byteLength": 1181952,
      "byteOffset": 1978880,
      "target": 34963
    },
    {
      "buffer": 0,
      "byteLength": 942848,
      "byteOffset": 3160832,
      "byteStride": 32,
      "target": 34962
    },
    {
      "buffer": 0,
      "byteLength": 557496,
      "byteOffset": 4103680,
      "target": 34963
    },
    {
      "buffer": 0,
      "byteLength": 942848,
      "byteOffset": 4661176,
      "byteStride": 32,
      "target": 34962
    },
    {
      "buffer": 0,
      "byteLength": 557496,
      "byteOffset": 5604024,
      "target": 34963
    },
    {
      "buffer": 0,
      "byteLength": 942848,
      "byteOffset": 6161520,
      "byteStride": 32,
      "target": 34962
    },
    {
      "buffer": 0,
      "byteLength": 557496,
      "byteOffset": 7104368,
      "target": 34963
    },
    {
      "buffer": 0,
      "byteLength": 942848,
      "byteOffset": 7661864,
      "byteStride": 32,
      "target": 34962
    },
    {
      "buffer": 0,
      "byteLength": 557496,
      "byteOffset": 8604712,
      "target": 34963
    },
    {
      "buffer": 0,
      "byteLength": 768,
      "byteOffset": 9162208,
      "byteStride": 32,
      "target": 34962
    },
    {
      "buffer": 0,
      "byteLength": 144,
      "byteOffset": 9162976,
      "target": 34963
    }
  ],
  "buffers": [
    {
      "byteLength": 9163120,
      "uri": "03-10-2025.bin"
    }
  ],
  "materials": [
    {
      "name": "fallback Material",
      "pbrMetallicRoughness": {
        "baseColorFactor": [
          0.0,
          0.0,
          0.0,
          1.0
        ]
      }
    },
    {
      "name": "fallback Material",
      "pbrMetallicRoughness": {
        "baseColorFactor": [
          0.0,
          0.0,
          0.0,
          1.0
        ]
      }
    }
  ],
  "meshes": [
    {
      "name": "Rebar Bar H10 : Shape Rebar Shape 5 [398766]_[319274]001",
      "primitives": [
        {
          "attributes": {
            "NORMAL": 1,
            "POSITION": 0
          },
          "indices": 2,
          "material": 0,
          "mode": 4
        }
      ]
    },
    {
      "name": "Rebar Bar H10 [398937]_[319274]001",
      "primitives": [
        {
          "attributes": {
            "NORMAL": 4,
            "POSITION": 3
          },
          "indices": 5,
          "material": 0,
          "mode": 4
        }
      ]
    },
    {
      "name": "Rebar Bar H10 [398938]_[319274]001",
      "primitives": [
        {
          "attributes": {
            "NORMAL": 7,
            "POSITION": 6
          },
          "indices": 8,
          "material": 0,
          "mode": 4
        }
      ]
    },
    {
      "name": "Rebar Bar H10 [398972]_[319274]001",
      "primitives": [
        {
          "attributes": {
            "NORMAL": 10,
            "POSITION": 9
          },
          "indices": 11,
          "material": 0,
          "mode": 4
        }
      ]
    },
    {
      "name": "Rebar Bar H10 [398973]_[319274]001",
      "primitives": [
        {
          "attributes": {
            "NORMAL": 13,
            "POSITION": 12
          },
          "indices": 14,
          "material": 0,
          "mode": 4
        }
      ]
    },
    {
      "name": "Concrete - Rectangular Beam 250 x 300mm [381347]001",
      "primitives": [
        {
          "attributes": {
            "NORMAL": 16,
            "POSITION": 15
          },
          "indices": 17,
          "material": 1,
          "mode": 4
        }
      ]
    }
  ],
  "nodes": [
    {
      "matrix": [
        0.0254,
        0.0,
        0.0,
        0.0,
        0.0,
        0.0254,
        0.0,
        0.0,
        0.0,
        0.0,
        0.0254,
        0.0,
        0.0,
        0.0,
        0.0,
        1.0
      ],
      "mesh": 0,
      "name": "Rebar Bar H10 : Shape Rebar Shape 5 [398766]_[319274]001"
    },
    {
      "children": [
        0
      ],
      "matrix": [
        -5.245366310191457e-07,
        12.0,
        0.0,
        0.0,
        1.938653434291858e-14,
        8.474123073081775e-22,
        -12.0,
        0.0,
        -12.0,
        -5.245366310191457e-07,
        -1.938653434291858e-14,
        0.0,
        -3.2597514160156247,
        5.8750006988525385,
        -4.822532769775391,
        1.0
      ]
    },
    {
      "matrix": [
        0.0254,
        0.0,
        0.0,
        0.0,
        0.0,
        0.0254,
        0.0,
        0.0,
        0.0,
        0.0,
        0.0254,
        0.0,
        0.0,
        0.0,
        0.0,
        1.0
      ],
      "mesh": 1,
      "name": "Rebar Bar H10 [398937]_[319274]001"
    },
    {
      "children": [
        2
      ],
      "matrix": [
        -5.245366310191457e-07,
        0.0,
        12.0,
        0.0,
        12.0,
        0.0,
        5.245366310191457e-07,
        0.0,
        0.0,
        12.0,
        0.0,
        0.0,
        -3.215733560180664,
        5.969999938964843,
        -1.5757123474121093,
        1.0
      ]
    },
    {
      "matrix": [
        0.0254,
        0.0,
        0.0,
        0.0,
        0.0,
        0.0254,
        0.0,
        0.0,
        0.0,
        0.0,
        0.0254,
        0.0,
        0.0,
        0.0,
        0.0,
        1.0
      ],
      "mesh": 2,
      "name": "Rebar Bar H10 [398938]_[319274]001"
    },
    {
      "children": [
        4
      ],
      "matrix": [
        -12.0,
        1.4695761172230828e-15,
        1.0490732620382914e-06,
        0.0,
        -1.0490732620382914e-06,
        1.0490732620382914e-06,
        -12.0,
        0.0,
        -9.318248077446953e-14,
        -12.0,
        -1.0490732620382914e-06,
        0.0,
        -2.2647516845703124,
        5.969999938964843,
        -4.822532769775391,
        1.0
      ]
    },
    {
      "matrix": [
        0.0254,
        0.0,
        0.0,
        0.0,
        0.0,
        0.0254,
        0.0,
        0.0,
        0.0,
        0.0,
        0.0254,
        0.0,
        0.0,
        0.0,
        0.0,
        1.0
      ],
      "mesh": 3,
      "name": "Rebar Bar H10 [398972]_[319274]001"
    },
    {
      "children": [
        6
      ],
      "matrix": [
        -5.245366310191457e-07,
        0.0,
        -12.0,
        0.0,
        -12.0,
        0.0,
        5.245366310191457e-07,
        0.0,
        0.0,
        12.0,
        0.0,
        0.0,
        0.936230256652832,
        5.969999938964843,
        -3.8275326507568357,
        1.0
      ]
    },
    {
      "matrix": [
        0.0254,
        0.0,
        0.0,
        0.0,
        0.0,
        0.0254,
        0.0,
        0.0,
        0.0,
        0.0,
        0.0254,
        0.0,
        0.0,
        0.0,
        0.0,
        1.0
      ],
      "mesh": 4,
      "name": "Rebar Bar H10 [398973]_[319274]001"
    },
    {
      "children": [
        8
      ],
      "matrix": [
        11.999999999999998,
        0.0,
        0.0,
        0.0,
        0.0,
        0.0,
        -11.999999999999998,
        0.0,
        0.0,
        11.999999999999998,
        0.0,
        0.0,
        -0.014751678001880646,
        5.969999938964843,
        -0.5807124221801757,
        1.0
      ]
    },
    {
      "matrix": [
        0.0254,
        0.0,
        0.0,
        0.0,
        0.0,
        0.0254,
        0.0,
        0.0,
        0.0,
        0.0,
        0.0254,
        0.0,
        0.0,
        0.0,
        0.0,
        1.0
      ],
      "mesh": 5,
      "name": "Concrete - Rectangular Beam 250 x 300mm [381347]001"
    },
    {
      "children": [
        10
      ],
      "matrix": [
        11.999999999999998,
        0.0,
        0.0,
        0.0,
        0.0,
        0.0,
        -11.999999999999998,
        0.0,
        0.0,
        11.999999999999998,
        0.0,
        0.0,
        0.0,
        0.0,
        0.0,
        1.0
      ]
    }
  ],
  "scenes": [
    {
      "nodes": [
        1,
        3,
        5,
        7,
        9,
        11
      ]
    }
  ]
}
