{
  "accessors": [
    {
      "bufferView": 0,
      "componentType": 5126,
      "count": 24,
      "max": [
        3.2324419021606445,
        14.930158615112305,
        19.192913055419922
      ],
      "min": [
        2.412231922149658,
        2.791051149368286,
        18.700786590576172
      ],
      "type": "VEC3"
    },
    {
      "bufferView": 0,
      "byteOffset": 12,
      "componentType": 5126,
      "count": 24,
      "type": "VEC3"
    },
    {
      "bufferView": 1,
      "componentType": 5125,
      "count": 36,
      "type": "SCALAR"
    },
    {
      "bufferView": 2,
      "componentType": 5126,
      "count": 24,
      "max": [
        -9.890917778015137,
        14.930158615112305,
        19.192913055419922
      ],
      "min": [
        -10.711127281188965,
        2.791051149368286,
        18.700786590576172
      ],
      "type": "VEC3"
    },
    {
      "bufferView": 2,
      "byteOffset": 12,
      "componentType": 5126,
      "count": 24,
      "type": "VEC3"
    },
    {
      "bufferView": 3,
      "componentType": 5125,
      "count": 36,
      "type": "SCALAR"
    },
    {
      "bufferView": 4,
      "componentType": 5126,
      "count": 24,
      "max": [
        2.3302109241485596,
        2.7090301513671875,
        19.192913055419922
      ],
      "min": [
        -9.808897018432617,
        1.8888202905654907,
        18.700786590576172
      ],
      "type": "VEC3"
    },
    {
      "bufferView": 4,
      "byteOffset": 12,
      "componentType": 5126,
      "count": 24,
      "type": "VEC3"
    },
    {
      "bufferView": 5,
      "componentType": 5125,
      "count": 36,
      "type": "SCALAR"
    },
    {
      "bufferView": 6,
      "componentType": 5126,
      "count": 36,
      "max": [
        3.314462900161743,
        15.92038345336914,
        19.685039520263672
      ],
      "min": [
        -10.7931489944458,
        1.806799292564392,
        19.192913055419922
      ],
      "type": "VEC3"
    },
    {
      "bufferView": 6,
      "byteOffset": 12,
      "componentType": 5126,
      "count": 36,
      "type": "VEC3"
    },
    {
      "bufferView": 6,
      "byteOffset": 24,
      "componentType": 5126,
      "count": 36,
      "type": "VEC2"
    },
    {
      "bufferView": 7,
      "componentType": 5125,
      "count": 78,
      "type": "SCALAR"
    },
    {
      "bufferView": 6,
      "byteOffset": 1152,
      "componentType": 5126,
      "count": 4,
      "max": [
        3.314462900161743,
        15.92038345336914,
        19.685039520263672
      ],
      "min": [
        -10.7931489944458,
        1.806799292564392,
        19.685039520263672
      ],
      "type": "VEC3"
    },
    {
      "bufferView": 6,
      "byteOffset": 1164,
      "componentType": 5126,
      "count": 4,
      "type": "VEC3"
    },
    {
      "bufferView": 6,
      "byteOffset": 1176,
      "componentType": 5126,
      "count": 4,
      "type": "VEC2"
    },
    {
      "bufferView": 7,
      "byteOffset": 312,
      "componentType": 5125,
      "count": 6,
      "type": "SCALAR"
    }
  ],
  "asset": {
    "version": "2.0"
  },
  "bufferViews": [
    {
      "buffer": 0,
      "byteLength": 768,
      "byteStride": 32,
      "target": 34962
    },
    {
      "buffer": 0,
      "byteLength": 144,
      "byteOffset": 768,
      "target": 34963
    },
    {
      "buffer": 0,
      "byteLength": 768,
      "byteOffset": 912,
      "byteStride": 32,
      "target": 34962
    },
    {
      "buffer": 0,
      "byteLength": 144,
      "byteOffset": 1680,
      "target": 34963
    },
    {
      "buffer": 0,
      "byteLength": 768,
      "byteOffset": 1824,
      "byteStride": 32,
      "target": 34962
    },
    {
      "buffer": 0,
      "byteLength": 144,
      "byteOffset": 2592,
      "target": 34963
    },
    {
      "buffer": 0,
      "byteLength": 1280,
      "byteOffset": 2736,
      "byteStride": 32,
      "target": 34962
    },
    {
      "buffer": 0,
      "byteLength": 336,
      "byteOffset": 4016,
      "target": 34963
    }
  ],
  "buffers": [
    {
      "byteLength": 4352,
      "uri": "04-10-2025.bin"
    }
  ],
  "extensionsUsed": [
    "KHR_texture_transform"
  ],
  "images": [
    {
      "uri": "Concrete_Masonry__Floor_Blockbasecolortexture.png"
    },
    {
      "uri": "Vapor_Retarderbasecolortexture.png"
    }
  ],
  "materials": [
    {
      "name": "Concrete___Cast_in_Place_Concrete",
      "pbrMetallicRoughness": {
        "baseColorFactor": [
          0.7185379862785339,
          0.7048349976539612,
          0.6867330074310303,
          1.0
        ],
        "metallicFactor": 0.0,
        "roughnessFactor": 0.5
      }
    },
    {
      "name": "Concrete_Masonry__Floor_Block",
      "pbrMetallicRoughness": {
        "baseColorFactor": [
          0.47099998593330383,
          0.47099998593330383,
          0.47099998593330383,
          1.0
        ],
        "baseColorTexture": {
          "extensions": {
            "KHR_texture_transform": {
              "scale": [
                0.2553189992904663,
                0.2593719959259033
              ]
            }
          },
          "index": 0
        },
        "metallicFactor": 0.0,
        "roughnessFactor": 0.5
      }
    },
    {
      "name": "Vapor_Retarder",
      "pbrMetallicRoughness": {
        "baseColorFactor": [
          0.3149999976158142,
          0.3149999976158142,
          0.3149999976158142,
          1.0
        ],
        "baseColorTexture": {
          "extensions": {
            "KHR_texture_transform": {
              "scale": [
                0.375,
                0.375
              ]
            }
          },
          "index": 1
        },
        "metallicFactor": 0.0
      }
    }
  ],
  "meshes": [
    {
      "name": "Concrete - Rectangular Beam 250 x 300mm [381404]001",
      "primitives": [
        {
          "attributes": {
            "NORMAL": 1,
            "POSITION": 0
          },
          "indices": 2,
          "material": 0,
          "mode": 4
        }
      ]
    },
    {
      "name": "Concrete - Rectangular Beam 250 x 300mm [381450]001",
      "primitives": [
        {
          "attributes": {
            "NORMAL": 4,
            "POSITION": 3
          },
          "indices": 5,
          "material": 0,
          "mode": 4
        }
      ]
    },
    {
      "name": "Concrete - Rectangular Beam 250 x 300mm [381490]001",
      "primitives": [
        {
          "attributes": {
            "NORMAL": 7,
            "POSITION": 6
          },
          "indices": 8,
          "material": 0,
          "mode": 4
        }
      ]
    },
    {
      "name": "Floor Normal Slab 150mm [390246]001",
      "primitives": [
        {
          "attributes": {
            "NORMAL": 10,
            "POSITION": 9,
            "TEXCOORD_0": 11
          },
          "indices": 12,
          "material": 1,
          "mode": 4
        },
        {
          "attributes": {
            "NORMAL": 14,
            "POSITION": 13,
            "TEXCOORD_0": 15
          },
          "indices": 16,
          "material": 2,
          "mode": 4
        }
      ]
    }
  ],
  "nodes": [
    {
      "matrix": [
        0.0254,
        0.0,
        0.0,
        0.0,
        0.0,
        0.0254,
        0.0,
        0.0,
        0.0,
        0.0,
        0.0254,
        0.0,
        0.0,
        0.0,
        0.0,
        1.0
      ],
      "mesh": 0,
      "name": "Concrete - Rectangular Beam 250 x 300mm [381404]001"
    },
    {
      "children": [
        0
      ],
      "matrix": [
        11.999999999999998,
        0.0,
        0.0,
        0.0,
        0.0,
        0.0,
        -11.999999999999998,
        0.0,
        0.0,
        11.999999999999998,
        0.0,
        0.0,
        0.0,
        0.0,
        0.0,
        1.0
      ]
    },
    {
      "matrix": [
        0.0254,
        0.0,
        0.0,
        0.0,
        0.0,
        0.0254,
        0.0,
        0.0,
        0.0,
        0.0,
        0.0254,
        0.0,
        0.0,
        0.0,
        0.0,
        1.0
      ],
      "mesh": 1,
      "name": "Concrete - Rectangular Beam 250 x 300mm [381450]001"
    },
    {
      "children": [
        2
      ],
      "matrix": [
        11.999999999999998,
        0.0,
        0.0,
        0.0,
        0.0,
        0.0,
        -11.999999999999998,
        0.0,
        0.0,
        11.999999999999998,
        0.0,
        0.0,
        0.0,
        0.0,
        0.0,
        1.0
      ]
    },
    {
      "matrix": [
        0.0254,
        0.0,
        0.0,
        0.0,
        0.0,
        0.0254,
        0.0,
        0.0,
        0.0,
        0.0,
        0.0254,
        0.0,
        0.0,
        0.0,
        0.0,
        1.0
      ],
      "mesh": 2,
      "name": "Concrete - Rectangular Beam 250 x 300mm [381490]001"
    },
    {
      "children": [
        4
      ],
      "matrix": [
        11.999999999999998,
        0.0,
        0.0,
        0.0,
        0.0,
        0.0,
        -11.999999999999998,
        0.0,
        0.0,
        11.999999999999998,
        0.0,
        0.0,
        0.0,
        0.0,
        0.0,
        1.0
      ]
    },
    {
      "matrix": [
        0.0254,
        0.0,
        0.0,
        0.0,
        0.0,
        0.0254,
        0.0,
        0.0,
        0.0,
        0.0,
        0.0254,
        0.0,
        0.0,
        0.0,
        0.0,
        1.0
      ],
      "mesh": 3,
      "name": "Floor Normal Slab 150mm [390246]001"
    },
    {
      "children": [
        6
      ],
      "matrix": [
        11.999999999999998,
        0.0,
        0.0,
        0.0,
        0.0,
        0.0,
        -11.999999999999998,
        0.0,
        0.0,
        11.999999999999998,
        0.0,
        0.0,
        0.0,
        0.0,
        0.0,
        1.0
      ]
    }
  ],
  "samplers": [
    {
      "magFilter": 9729,
      "minFilter": 9729,
      "wrapS": 10497,
      "wrapT": 10497
    },
    {
      "magFilter": 9729,
      "minFilter": 9729,
      "wrapS": 10497,
      "wrapT": 10497
    }
  ],
  "scenes": [
    {
      "nodes": [
        1,
        3,
        5,
        7
      ]
    }
  ],
  "textures": [
    {
      "name": "texture_source0_sampler0",
      "sampler": 0,
      "source": 0
    },
    {
      "name": "texture_source1_sampler1",
      "sampler": 1,
      "source": 1
    }
  ]
}
