{
  "accessors": [
    {
      "bufferView": 0,
      "componentType": 5126,
      "count": 27040,
      "max": [
        1.143864631652832,
        5.552166938781738,
        0.016404200345277786
      ],
      "min": [
        0.0,
        -0.01640605926513672,
        -5.55216646194458
      ],
      "type": "VEC3"
    },
    {
      "bufferView": 0,
      "byteOffset": 12,
      "componentType": 5126,
      "count": 27040,
      "type": "VEC3"
    },
    {
      "bufferView": 1,
      "componentType": 5125,
      "count": 131001,
      "type": "SCALAR"
    },
    {
      "bufferView": 2,
      "componentType": 5126,
      "count": 27040,
      "max": [
        1.143864631652832,
        5.5521650314331055,
        5.55216646194458
      ],
      "min": [
        0.0,
        -0.016404200345277786,
        -0.01640605926513672
      ],
      "type": "VEC3"
    },
    {
      "bufferView": 2,
      "byteOffset": 12,
      "componentType": 5126,
      "count": 27040,
      "type": "VEC3"
    },
    {
      "bufferView": 3,
      "componentType": 5125,
      "count": 131001,
      "type": "SCALAR"
    },
    {
      "bufferView": 4,
      "componentType": 5126,
      "count": 27040,
      "max": [
        1.1438651084899902,
        5.552166938781738,
        0.01640462875366211
      ],
      "min": [
        0.0,
        -0.01640605926513672,
        -5.552165508270264
      ],
      "type": "VEC3"
    },
    {
      "bufferView": 4,
      "byteOffset": 12,
      "componentType": 5126,
      "count": 27040,
      "type": "VEC3"
    },
    {
      "bufferView": 5,
      "componentType": 5125,
      "count": 131001,
      "type": "SCALAR"
    },
    {
      "bufferView": 6,
      "componentType": 5126,
      "count": 27040,
      "max": [
        1.143864631652832,
        5.5521650314331055,
        5.552165985107422
      ],
      "min": [
        -4.76837158203125e-07,
        -0.016404200345277786,
        -0.016404204070568085
      ],
      "type": "VEC3"
    },
    {
      "bufferView": 6,
      "byteOffset": 12,
      "componentType": 5126,
      "count": 27040,
      "type": "VEC3"
    },
    {
      "bufferView": 7,
      "componentType": 5125,
      "count": 131001,
      "type": "SCALAR"
    },
    {
      "bufferView": 8,
      "componentType": 5126,
      "count": 27040,
      "max": [
        1.1438651084899902,
        5.552165508270264,
        0.01640462875366211
      ],
      "min": [
        0.0,
        -0.016404200345277786,
        -5.552165508270264
      ],
      "type": "VEC3"
    },
    {
      "bufferView": 8,
      "byteOffset": 12,
      "componentType": 5126,
      "count": 27040,
      "type": "VEC3"
    },
    {
      "bufferView": 9,
      "componentType": 5125,
      "count": 131001,
      "type": "SCALAR"
    },
    {
      "bufferView": 10,
      "componentType": 5126,
      "count": 27040,
      "max": [
        1.143864631652832,
        5.552165508270264,
        5.552165985107422
      ],
      "min": [
        -4.76837158203125e-07,
        -0.01640424132347107,
        -0.016404204070568085
      ],
      "type": "VEC3"
    },
    {
      "bufferView": 10,
      "byteOffset": 12,
      "componentType": 5126,
      "count": 27040,
      "type": "VEC3"
    },
    {
      "bufferView": 11,
      "componentType": 5125,
      "count": 131001,
      "type": "SCALAR"
    }
  ],
  "asset": {
    "version": "2.0"
  },
  "bufferViews": [
    {
      "buffer": 0,
      "byteLength": 865280,
      "byteStride": 32,
      "target": 34962
    },
    {
      "buffer": 0,
      "byteLength": 524004,
      "byteOffset": 865280,
      "target": 34963
    },
    {
      "buffer": 0,
      "byteLength": 865280,
      "byteOffset": 1389284,
      "byteStride": 32,
      "target": 34962
    },
    {
      "buffer": 0,
      "byteLength": 524004,
      "byteOffset": 2254564,
      "target": 34963
    },
    {
      "buffer": 0,
      "byteLength": 865280,
      "byteOffset": 2778568,
      "byteStride": 32,
      "target": 34962
    },
    {
      "buffer": 0,
      "byteLength": 524004,
      "byteOffset": 3643848,
      "target": 34963
    },
    {
      "buffer": 0,
      "byteLength": 865280,
      "byteOffset": 4167852,
      "byteStride": 32,
      "target": 34962
    },
    {
      "buffer": 0,
      "byteLength": 524004,
      "byteOffset": 5033132,
      "target": 34963
    },
    {
      "buffer": 0,
      "byteLength": 865280,
      "byteOffset": 5557136,
      "byteStride": 32,
      "target": 34962
    },
    {
      "buffer": 0,
      "byteLength": 524004,
      "byteOffset": 6422416,
      "target": 34963
    },
    {
      "buffer": 0,
      "byteLength": 865280,
      "byteOffset": 6946420,
      "byteStride": 32,
      "target": 34962
    },
    {
      "buffer": 0,
      "byteLength": 524004,
      "byteOffset": 7811700,
      "target": 34963
    }
  ],
  "buffers": [
    {
      "byteLength": 8335704,
      "uri": "11-09-2025.bin"
    }
  ],
  "materials": [
    {
      "name": "fallback Material",
      "pbrMetallicRoughness": {
        "baseColorFactor": [
          0.0,
          0.0,
          0.0,
          1.0
        ]
      }
    }
  ],
  "meshes": [
    {
      "name": "Rebar Bar Structural Rebar 1 : Shape 21 [355494]_[319274]001",
      "primitives": [
        {
          "attributes": {
            "NORMAL": 1,
            "POSITION": 0
          },
          "indices": 2,
          "material": 0,
          "mode": 4
        }
      ]
    },
    {
      "name": "Rebar Bar Structural Rebar 1 : Shape 21 [355495]_[319274]001",
      "primitives": [
        {
          "attributes": {
            "NORMAL": 4,
            "POSITION": 3
          },
          "indices": 5,
          "material": 0,
          "mode": 4
        }
      ]
    },
    {
      "name": "Rebar Bar Structural Rebar 1 : Shape 21 [355508]_[319274]001",
      "primitives": [
        {
          "attributes": {
            "NORMAL": 7,
            "POSITION": 6
          },
          "indices": 8,
          "material": 0,
          "mode": 4
        }
      ]
    },
    {
      "name": "Rebar Bar Structural Rebar 1 : Shape 21 [355509]_[319274]001",
      "primitives": [
        {
          "attributes": {
            "NORMAL": 10,
            "POSITION": 9
          },
          "indices": 11,
          "material": 0,
          "mode": 4
        }
      ]
    },
    {
      "name": "Rebar Bar Structural Rebar 1 : Shape 21 [355524]_[319274]001",
      "primitives": [
        {
          "attributes": {
            "NORMAL": 13,
            "POSITION": 12
          },
          "indices": 14,
          "material": 0,
          "mode": 4
        }
      ]
    },
    {
      "name": "Rebar Bar Structural Rebar 1 : Shape 21 [355525]_[319274]001",
      "primitives": [
        {
          "attributes": {
            "NORMAL": 16,
            "POSITION": 15
          },
          "indices": 17,
          "material": 0,
          "mode": 4
        }
      ]
    }
  ],
  "nodes": [
    {
      "matrix": [
        0.0254,
        0.0,
        0.0,
        0.0,
        0.0,
        0.0254,
        0.0,
        0.0,
        0.0,
        0.0,
        0.0254,
        0.0,
        0.0,
        0.0,
        0.0,
        1.0
      ],
      "mesh": 0,
      "name": "Rebar Bar Structural Rebar 1 : Shape 21 [355494]_[319274]001"
    },
    {
      "children": [
        0
      ],
      "matrix": [
        -5.245366310191457e-07,
        -12.0,
        -0.0,
        0.0,
        0.0,
        0.0,
        -12.0,
        0.0,
        12.0,
        -5.245366310191457e-07,
        0.0,
        0.0,
        -2.296101708984375,
        -2.050000064086914,
        -3.857063018798828,
        1.0
      ]
    },
    {
      "matrix": [
        0.0254,
        0.0,
        0.0,
        0.0,
        0.0,
        0.0254,
        0.0,
        0.0,
        0.0,
        0.0,
        0.0254,
        0.0,
        0.0,
        0.0,
        0.0,
        1.0
      ],
      "mesh": 1,
      "name": "Rebar Bar Structural Rebar 1 : Shape 21 [355495]_[319274]001"
    },
    {
      "children": [
        2
      ],
      "matrix": [
        -5.245366310191457e-07,
        -12.0,
        -0.0,
        0.0,
        0.0,
        0.0,
        -12.0,
        0.0,
        12.0,
        -5.245366310191457e-07,
        0.0,
        0.0,
        -3.983401818847656,
        -2.050000064086914,
        -3.857063018798828,
        1.0
      ]
    },
    {
      "matrix": [
        0.0254,
        0.0,
        0.0,
        0.0,
        0.0,
        0.0254,
        0.0,
        0.0,
        0.0,
        0.0,
        0.0254,
        0.0,
        0.0,
        0.0,
        0.0,
        1.0
      ],
      "mesh": 2,
      "name": "Rebar Bar Structural Rebar 1 : Shape 21 [355508]_[319274]001"
    },
    {
      "children": [
        4
      ],
      "matrix": [
        -5.245366310191457e-07,
        -12.0,
        -0.0,
        0.0,
        0.0,
        0.0,
        -12.0,
        0.0,
        12.0,
        -5.245366310191457e-07,
        0.0,
        0.0,
        1.703898321533203,
        -2.050000064086914,
        -3.857063018798828,
        1.0
      ]
    },
    {
      "matrix": [
        0.0254,
        0.0,
        0.0,
        0.0,
        0.0,
        0.0254,
        0.0,
        0.0,
        0.0,
        0.0,
        0.0254,
        0.0,
        0.0,
        0.0,
        0.0,
        1.0
      ],
      "mesh": 3,
      "name": "Rebar Bar Structural Rebar 1 : Shape 21 [355509]_[319274]001"
    },
    {
      "children": [
        6
      ],
      "matrix": [
        -5.245366310191457e-07,
        -12.0,
        -0.0,
        0.0,
        0.0,
        0.0,
        -12.0,
        0.0,
        12.0,
        -5.245366310191457e-07,
        0.0,
        0.0,
        0.01659832067489624,
        -2.050000064086914,
        -3.857063018798828,
        1.0
      ]
    },
    {
      "matrix": [
        0.0254,
        0.0,
        0.0,
        0.0,
        0.0,
        0.0254,
        0.0,
        0.0,
        0.0,
        0.0,
        0.0254,
        0.0,
        0.0,
        0.0,
        0.0,
        1.0
      ],
      "mesh": 4,
      "name": "Rebar Bar Structural Rebar 1 : Shape 21 [355524]_[319274]001"
    },
    {
      "children": [
        8
      ],
      "matrix": [
        -5.245366310191457e-07,
        -12.0,
        -0.0,
        0.0,
        0.0,
        0.0,
        -12.0,
        0.0,
        12.0,
        -5.245366310191457e-07,
        0.0,
        0.0,
        1.703898321533203,
        -2.050000064086914,
        0.14293759307861328,
        1.0
      ]
    },
    {
      "matrix": [
        0.0254,
        0.0,
        0.0,
        0.0,
        0.0,
        0.0254,
        0.0,
        0.0,
        0.0,
        0.0,
        0.0254,
        0.0,
        0.0,
        0.0,
        0.0,
        1.0
      ],
      "mesh": 5,
      "name": "Rebar Bar Structural Rebar 1 : Shape 21 [355525]_[319274]001"
    },
    {
      "children": [
        10
      ],
      "matrix": [
        -5.245366310191457e-07,
        -12.0,
        -0.0,
        0.0,
        0.0,
        0.0,
        -12.0,
        0.0,
        12.0,
        -5.245366310191457e-07,
        0.0,
        0.0,
        0.01659832067489624,
        -2.050000064086914,
        0.14293759307861328,
        1.0
      ]
    }
  ],
  "scenes": [
    {
      "nodes": [
        1,
        3,
        5,
        7,
        9,
        11
      ]
    }
  ]
}
