{
  "accessors": [
    {
      "bufferView": 0,
      "componentType": 5126,
      "count": 27040,
      "max": [
        1.143864631652832,
        5.552165508270264,
        5.552165985107422
      ],
      "min": [
        -4.76837158203125e-07,
        -0.01640424132347107,
        -0.016404204070568085
      ],
      "type": "VEC3"
    },
    {
      "bufferView": 0,
      "byteOffset": 12,
      "componentType": 5126,
      "count": 27040,
      "type": "VEC3"
    },
    {
      "bufferView": 1,
      "componentType": 5125,
      "count": 131001,
      "type": "SCALAR"
    },
    {
      "bufferView": 2,
      "componentType": 5126,
      "count": 27040,
      "max": [
        1.143864631652832,
        5.552165508270264,
        0.016404200345277786
      ],
      "min": [
        0.0,
        -0.016404200345277786,
        -5.55216646194458
      ],
      "type": "VEC3"
    },
    {
      "bufferView": 2,
      "byteOffset": 12,
      "componentType": 5126,
      "count": 27040,
      "type": "VEC3"
    },
    {
      "bufferView": 3,
      "componentType": 5125,
      "count": 131001,
      "type": "SCALAR"
    },
    {
      "bufferView": 4,
      "componentType": 5126,
      "count": 27040,
      "max": [
        1.143864631652832,
        5.552165508270264,
        5.55216646194458
      ],
      "min": [
        0.0,
        -0.01640424132347107,
        -0.01640605926513672
      ],
      "type": "VEC3"
    },
    {
      "bufferView": 4,
      "byteOffset": 12,
      "componentType": 5126,
      "count": 27040,
      "type": "VEC3"
    },
    {
      "bufferView": 5,
      "componentType": 5125,
      "count": 131001,
      "type": "SCALAR"
    },
    {
      "bufferView": 6,
      "componentType": 5126,
      "count": 18012,
      "max": [
        0.4264087677001953,
        0.5510411262512207,
        0.016404200345277786
      ],
      "min": [
        -0.5122756958007813,
        -0.38686466217041016,
        -7.228091716766357
      ],
      "type": "VEC3"
    },
    {
      "bufferView": 6,
      "byteOffset": 12,
      "componentType": 5126,
      "count": 18012,
      "type": "VEC3"
    },
    {
      "bufferView": 7,
      "componentType": 5125,
      "count": 78408,
      "type": "SCALAR"
    },
    {
      "bufferView": 8,
      "componentType": 5126,
      "count": 2093,
      "max": [
        7.611548900604248,
        1.0439567565917969,
        0.03280925750732422
      ],
      "min": [
        0.0,
        -0.03280840069055557,
        -1.0439558029174805
      ],
      "type": "VEC3"
    },
    {
      "bufferView": 8,
      "byteOffset": 12,
      "componentType": 5126,
      "count": 2093,
      "type": "VEC3"
    },
    {
      "bufferView": 9,
      "componentType": 5125,
      "count": 10665,
      "type": "SCALAR"
    },
    {
      "bufferView": 10,
      "componentType": 5126,
      "count": 2093,
      "max": [
        7.611548900604248,
        1.0439577102661133,
        1.0439567565917969
      ],
      "min": [
        0.0,
        -0.03280840069055557,
        -0.03280925750732422
      ],
      "type": "VEC3"
    },
    {
      "bufferView": 10,
      "byteOffset": 12,
      "componentType": 5126,
      "count": 2093,
      "type": "VEC3"
    },
    {
      "bufferView": 11,
      "componentType": 5125,
      "count": 10665,
      "type": "SCALAR"
    },
    {
      "bufferView": 12,
      "componentType": 5126,
      "count": 2093,
      "max": [
        7.611548900604248,
        0.03280840069055557,
        1.0439567565917969
      ],
      "min": [
        0.0,
        -1.0439567565917969,
        -0.03280925750732422
      ],
      "type": "VEC3"
    },
    {
      "bufferView": 12,
      "byteOffset": 12,
      "componentType": 5126,
      "count": 2093,
      "type": "VEC3"
    },
    {
      "bufferView": 13,
      "componentType": 5125,
      "count": 10665,
      "type": "SCALAR"
    },
    {
      "bufferView": 14,
      "componentType": 5126,
      "count": 2093,
      "max": [
        7.611548900604248,
        0.03280840069055557,
        0.03280925750732422
      ],
      "min": [
        0.0,
        -1.0439567565917969,
        -1.0439558029174805
      ],
      "type": "VEC3"
    },
    {
      "bufferView": 14,
      "byteOffset": 12,
      "componentType": 5126,
      "count": 2093,
      "type": "VEC3"
    },
    {
      "bufferView": 15,
      "componentType": 5125,
      "count": 10665,
      "type": "SCALAR"
    },
    {
      "bufferView": 16,
      "componentType": 5126,
      "count": 2092,
      "max": [
        7.611548900604248,
        1.4501314163208008,
        0.026247024536132813
      ],
      "min": [
        0.0,
        -0.02624797821044922,
        -0.026247024536132813
      ],
      "type": "VEC3"
    },
    {
      "bufferView": 16,
      "byteOffset": 12,
      "componentType": 5126,
      "count": 2092,
      "type": "VEC3"
    },
    {
      "bufferView": 17,
      "componentType": 5125,
      "count": 10752,
      "type": "SCALAR"
    },
    {
      "bufferView": 18,
      "componentType": 5126,
      "count": 2036,
      "max": [
        7.611548900604248,
        0.02624671906232834,
        0.02624671906232834
      ],
      "min": [
        0.0,
        -0.02624671906232834,
        -1.1220502853393555
      ],
      "type": "VEC3"
    },
    {
      "bufferView": 18,
      "byteOffset": 12,
      "componentType": 5126,
      "count": 2036,
      "type": "VEC3"
    },
    {
      "bufferView": 19,
      "componentType": 5125,
      "count": 10440,
      "type": "SCALAR"
    },
    {
      "bufferView": 20,
      "componentType": 5126,
      "count": 2036,
      "max": [
        7.611548900604248,
        0.02624671906232834,
        1.1220464706420898
      ],
      "min": [
        0.0,
        -0.02624671906232834,
        -0.026247024536132813
      ],
      "type": "VEC3"
    },
    {
      "bufferView": 20,
      "byteOffset": 12,
      "componentType": 5126,
      "count": 2036,
      "type": "VEC3"
    },
    {
      "bufferView": 21,
      "componentType": 5125,
      "count": 10440,
      "type": "SCALAR"
    },
    {
      "bufferView": 22,
      "componentType": 5126,
      "count": 2092,
      "max": [
        7.611548900604248,
        0.02624797821044922,
        0.026247024536132813
      ],
      "min": [
        0.0,
        -1.4501304626464844,
        -0.026247024536132813
      ],
      "type": "VEC3"
    },
    {
      "bufferView": 22,
      "byteOffset": 12,
      "componentType": 5126,
      "count": 2092,
      "type": "VEC3"
    },
    {
      "bufferView": 23,
      "componentType": 5125,
      "count": 10752,
      "type": "SCALAR"
    }
  ],
  "asset": {
    "version": "2.0"
  },
  "bufferViews": [
    {
      "buffer": 0,
      "byteLength": 865280,
      "byteStride": 32,
      "target": 34962
    },
    {
      "buffer": 0,
      "byteLength": 524004,
      "byteOffset": 865280,
      "target": 34963
    },
    {
      "buffer": 0,
      "byteLength": 865280,
      "byteOffset": 1389284,
      "byteStride": 32,
      "target": 34962
    },
    {
      "buffer": 0,
      "byteLength": 524004,
      "byteOffset": 2254564,
      "target": 34963
    },
    {
      "buffer": 0,
      "byteLength": 865280,
      "byteOffset": 2778568,
      "byteStride": 32,
      "target": 34962
    },
    {
      "buffer": 0,
      "byteLength": 524004,
      "byteOffset": 3643848,
      "target": 34963
    },
    {
      "buffer": 0,
      "byteLength": 576384,
      "byteOffset": 4167852,
      "byteStride": 32,
      "target": 34962
    },
    {
      "buffer": 0,
      "byteLength": 313632,
      "byteOffset": 4744236,
      "target": 34963
    },
    {
      "buffer": 0,
      "byteLength": 66976,
      "byteOffset": 5057868,
      "byteStride": 32,
      "target": 34962
    },
    {
      "buffer": 0,
      "byteLength": 42660,
      "byteOffset": 5124844,
      "target": 34963
    },
    {
      "buffer": 0,
      "byteLength": 66976,
      "byteOffset": 5167504,
      "byteStride": 32,
      "target": 34962
    },
    {
      "buffer": 0,
      "byteLength": 42660,
      "byteOffset": 5234480,
      "target": 34963
    },
    {
      "buffer": 0,
      "byteLength": 66976,
      "byteOffset": 5277140,
      "byteStride": 32,
      "target": 34962
    },
    {
      "buffer": 0,
      "byteLength": 42660,
      "byteOffset": 5344116,
      "target": 34963
    },
    {
      "buffer": 0,
      "byteLength": 66976,
      "byteOffset": 5386776,
      "byteStride": 32,
      "target": 34962
    },
    {
      "buffer": 0,
      "byteLength": 42660,
      "byteOffset": 5453752,
      "target": 34963
    },
    {
      "buffer": 0,
      "byteLength": 66944,
      "byteOffset": 5496412,
      "byteStride": 32,
      "target": 34962
    },
    {
      "buffer": 0,
      "byteLength": 43008,
      "byteOffset": 5563356,
      "target": 34963
    },
    {
      "buffer": 0,
      "byteLength": 65152,
      "byteOffset": 5606364,
      "byteStride": 32,
      "target": 34962
    },
    {
      "buffer": 0,
      "byteLength": 41760,
      "byteOffset": 5671516,
      "target": 34963
    },
    {
      "buffer": 0,
      "byteLength": 65152,
      "byteOffset": 5713276,
      "byteStride": 32,
      "target": 34962
    },
    {
      "buffer": 0,
      "byteLength": 41760,
      "byteOffset": 5778428,
      "target": 34963
    },
    {
      "buffer": 0,
      "byteLength": 66944,
      "byteOffset": 5820188,
      "byteStride": 32,
      "target": 34962
    },
    {
      "buffer": 0,
      "byteLength": 43008,
      "byteOffset": 5887132,
      "target": 34963
    }
  ],
  "buffers": [
    {
      "byteLength": 5930140,
      "uri": "12-09-2025.bin"
    }
  ],
  "materials": [
    {
      "name": "fallback Material",
      "pbrMetallicRoughness": {
        "baseColorFactor": [
          0.0,
          0.0,
          0.0,
          1.0
        ]
      }
    },
    {
      "name": "fallback Material",
      "pbrMetallicRoughness": {
        "baseColorFactor": [
          0.0,
          0.0,
          0.0,
          1.0
        ]
      }
    }
  ],
  "meshes": [
    {
      "name": "Rebar Bar Structural Rebar 1 : Shape 21 [355525]_[319274]001",
      "primitives": [
        {
          "attributes": {
            "NORMAL": 1,
            "POSITION": 0
          },
          "indices": 2,
          "material": 0,
          "mode": 4
        }
      ]
    },
    {
      "name": "Rebar Bar Structural Rebar 1 : Shape 21 [355538]_[319274]001",
      "primitives": [
        {
          "attributes": {
            "NORMAL": 4,
            "POSITION": 3
          },
          "indices": 5,
          "material": 0,
          "mode": 4
        }
      ]
    },
    {
      "name": "Rebar Bar Structural Rebar 1 : Shape 21 [355539]_[319274]001",
      "primitives": [
        {
          "attributes": {
            "NORMAL": 7,
            "POSITION": 6
          },
          "indices": 8,
          "material": 0,
          "mode": 4
        }
      ]
    },
    {
      "name": "Rebar Bar H10 : Shape 52 [368273]_[319274]001",
      "primitives": [
        {
          "attributes": {
            "NORMAL": 10,
            "POSITION": 9
          },
          "indices": 11,
          "material": 1,
          "mode": 4
        }
      ]
    },
    {
      "name": "Rebar Bar H20 : Shape Rebar Shape 1 [368274]_[319274]001",
      "primitives": [
        {
          "attributes": {
            "NORMAL": 13,
            "POSITION": 12
          },
          "indices": 14,
          "material": 1,
          "mode": 4
        }
      ]
    },
    {
      "name": "Rebar Bar H20 : Shape Rebar Shape 1 [368275]_[319274]001",
      "primitives": [
        {
          "attributes": {
            "NORMAL": 16,
            "POSITION": 15
          },
          "indices": 17,
          "material": 1,
          "mode": 4
        }
      ]
    },
    {
      "name": "Rebar Bar H20 : Shape Rebar Shape 1 [368276]_[319274]001",
      "primitives": [
        {
          "attributes": {
            "NORMAL": 19,
            "POSITION": 18
          },
          "indices": 20,
          "material": 1,
          "mode": 4
        }
      ]
    },
    {
      "name": "Rebar Bar H20 : Shape Rebar Shape 1 [368277]_[319274]001",
      "primitives": [
        {
          "attributes": {
            "NORMAL": 22,
            "POSITION": 21
          },
          "indices": 23,
          "material": 1,
          "mode": 4
        }
      ]
    },
    {
      "name": "Rebar Bar H16 : Shape Rebar Shape 1 [368278]_[319274]001",
      "primitives": [
        {
          "attributes": {
            "NORMAL": 25,
            "POSITION": 24
          },
          "indices": 26,
          "material": 1,
          "mode": 4
        }
      ]
    },
    {
      "name": "Rebar Bar H16 : Shape Rebar Shape 1 [368279]_[319274]001",
      "primitives": [
        {
          "attributes": {
            "NORMAL": 28,
            "POSITION": 27
          },
          "indices": 29,
          "material": 1,
          "mode": 4
        }
      ]
    },
    {
      "name": "Rebar Bar H16 : Shape Rebar Shape 1 [368280]_[319274]001",
      "primitives": [
        {
          "attributes": {
            "NORMAL": 31,
            "POSITION": 30
          },
          "indices": 32,
          "material": 1,
          "mode": 4
        }
      ]
    },
    {
      "name": "Rebar Bar H16 : Shape Rebar Shape 1 [368281]_[319274]001",
      "primitives": [
        {
          "attributes": {
            "NORMAL": 34,
            "POSITION": 33
          },
          "indices": 35,
          "material": 1,
          "mode": 4
        }
      ]
    }
  ],
  "nodes": [
    {
      "matrix": [
        0.0254,
        0.0,
        0.0,
        0.0,
        0.0,
        0.0254,
        0.0,
        0.0,
        0.0,
        0.0,
        0.0254,
        0.0,
        0.0,
        0.0,
        0.0,
        1.0
      ],
      "mesh": 0,
      "name": "Rebar Bar Structural Rebar 1 : Shape 21 [355525]_[319274]001"
    },
    {
      "children": [
        0
      ],
      "matrix": [
        -5.245366310191457e-07,
        -12.0,
        -0.0,
        0.0,
        0.0,
        0.0,
        -12.0,
        0.0,
        12.0,
        -5.245366310191457e-07,
        0.0,
        0.0,
        0.01659832067489624,
        -2.050000064086914,
        0.14293759307861328,
        1.0
      ]
    },
    {
      "matrix": [
        0.0254,
        0.0,
        0.0,
        0.0,
        0.0,
        0.0254,
        0.0,
        0.0,
        0.0,
        0.0,
        0.0254,
        0.0,
        0.0,
        0.0,
        0.0,
        1.0
      ],
      "mesh": 1,
      "name": "Rebar Bar Structural Rebar 1 : Shape 21 [355538]_[319274]001"
    },
    {
      "children": [
        2
      ],
      "matrix": [
        -5.245366310191457e-07,
        -12.0,
        -0.0,
        0.0,
        0.0,
        0.0,
        -12.0,
        0.0,
        12.0,
        -5.245366310191457e-07,
        0.0,
        0.0,
        -2.296101708984375,
        -2.050000064086914,
        0.14293759307861328,
        1.0
      ]
    },
    {
      "matrix": [
        0.0254,
        0.0,
        0.0,
        0.0,
        0.0,
        0.0254,
        0.0,
        0.0,
        0.0,
        0.0,
        0.0254,
        0.0,
        0.0,
        0.0,
        0.0,
        1.0
      ],
      "mesh": 2,
      "name": "Rebar Bar Structural Rebar 1 : Shape 21 [355539]_[319274]001"
    },
    {
      "children": [
        4
      ],
      "matrix": [
        -5.245366310191457e-07,
        -12.0,
        -0.0,
        0.0,
        0.0,
        0.0,
        -12.0,
        0.0,
        12.0,
        -5.245366310191457e-07,
        0.0,
        0.0,
        -3.983401818847656,
        -2.050000064086914,
        0.14293759307861328,
        1.0
      ]
    },
    {
      "matrix": [
        0.0254,
        0.0,
        0.0,
        0.0,
        0.0,
        0.0254,
        0.0,
        0.0,
        0.0,
        0.0,
        0.0254,
        0.0,
        0.0,
        0.0,
        0.0,
        1.0
      ],
      "mesh": 3,
      "name": "Rebar Bar H10 : Shape 52 [368273]_[319274]001"
    },
    {
      "children": [
        6
      ],
      "matrix": [
        8.485280990600586,
        0.0,
        8.485280990600586,
        0.0,
        8.485280990600586,
        0.0,
        -8.485280990600586,
        0.0,
        0.0,
        12.0,
        0.0,
        0.0,
        -3.1481400115966798,
        -0.04500000579357147,
        -4.673745727539062,
        1.0
      ]
    },
    {
      "matrix": [
        0.0254,
        0.0,
        0.0,
        0.0,
        0.0,
        0.0254,
        0.0,
        0.0,
        0.0,
        0.0,
        0.0254,
        0.0,
        0.0,
        0.0,
        0.0,
        1.0
      ],
      "mesh": 4,
      "name": "Rebar Bar H20 : Shape Rebar Shape 1 [368274]_[319274]001"
    },
    {
      "children": [
        8
      ],
      "matrix": [
        -5.245366310191457e-07,
        -12.0,
        -0.0,
        0.0,
        0.0,
        0.0,
        -12.0,
        0.0,
        12.0,
        -5.245366310191457e-07,
        0.0,
        0.0,
        -3.226822805786133,
        -0.04000000212192535,
        -4.7877833404541015,
        1.0
      ]
    },
    {
      "matrix": [
        0.0254,
        0.0,
        0.0,
        0.0,
        0.0,
        0.0254,
        0.0,
        0.0,
        0.0,
        0.0,
        0.0254,
        0.0,
        0.0,
        0.0,
        0.0,
        1.0
      ],
      "mesh": 5,
      "name": "Rebar Bar H20 : Shape Rebar Shape 1 [368275]_[319274]001"
    },
    {
      "children": [
        10
      ],
      "matrix": [
        -5.245366310191457e-07,
        -12.0,
        -0.0,
        0.0,
        0.0,
        0.0,
        -12.0,
        0.0,
        12.0,
        -5.245366310191457e-07,
        0.0,
        0.0,
        -3.0526805282592773,
        -0.04000000212192535,
        -4.787875970458984,
        1.0
      ]
    },
    {
      "matrix": [
        0.0254,
        0.0,
        0.0,
        0.0,
        0.0,
        0.0254,
        0.0,
        0.0,
        0.0,
        0.0,
        0.0254,
        0.0,
        0.0,
        0.0,
        0.0,
        1.0
      ],
      "mesh": 6,
      "name": "Rebar Bar H20 : Shape Rebar Shape 1 [368276]_[319274]001"
    },
    {
      "children": [
        12
      ],
      "matrix": [
        -5.245366310191457e-07,
        -12.0,
        -0.0,
        0.0,
        0.0,
        0.0,
        -12.0,
        0.0,
        12.0,
        -5.245366310191457e-07,
        0.0,
        0.0,
        -3.0526805282592773,
        -0.04000000212192535,
        -4.613641256713867,
        1.0
      ]
    },
    {
      "matrix": [
        0.0254,
        0.0,
        0.0,
        0.0,
        0.0,
        0.0254,
        0.0,
        0.0,
        0.0,
        0.0,
        0.0254,
        0.0,
        0.0,
        0.0,
        0.0,
        1.0
      ],
      "mesh": 7,
      "name": "Rebar Bar H20 : Shape Rebar Shape 1 [368277]_[319274]001"
    },
    {
      "children": [
        14
      ],
      "matrix": [
        -5.245366310191457e-07,
        -12.0,
        -0.0,
        0.0,
        0.0,
        0.0,
        -12.0,
        0.0,
        12.0,
        -5.245366310191457e-07,
        0.0,
        0.0,
        -3.226822805786133,
        -0.04000000212192535,
        -4.613641256713867,
        1.0
      ]
    },
    {
      "matrix": [
        0.0254,
        0.0,
        0.0,
        0.0,
        0.0,
        0.0254,
        0.0,
        0.0,
        0.0,
        0.0,
        0.0254,
        0.0,
        0.0,
        0.0,
        0.0,
        1.0
      ],
      "mesh": 8,
      "name": "Rebar Bar H16 : Shape Rebar Shape 1 [368278]_[319274]001"
    },
    {
      "children": [
        16
      ],
      "matrix": [
        -5.245366310191457e-07,
        -12.0,
        -0.0,
        0.0,
        0.0,
        0.0,
        -12.0,
        0.0,
        12.0,
        -5.245366310191457e-07,
        0.0,
        0.0,
        -3.1401112380981444,
        -0.04000000212192535,
        -4.79279543762207,
        1.0
      ]
    },
    {
      "matrix": [
        0.0254,
        0.0,
        0.0,
        0.0,
        0.0,
        0.0254,
        0.0,
        0.0,
        0.0,
        0.0,
        0.0254,
        0.0,
        0.0,
        0.0,
        0.0,
        1.0
      ],
      "mesh": 9,
      "name": "Rebar Bar H16 : Shape Rebar Shape 1 [368279]_[319274]001"
    },
    {
      "children": [
        18
      ],
      "matrix": [
        -5.245366310191457e-07,
        -12.0,
        -0.0,
        0.0,
        0.0,
        0.0,
        -12.0,
        0.0,
        12.0,
        -5.245366310191457e-07,
        0.0,
        0.0,
        -3.2317515747070313,
        -0.04000000212192535,
        -4.701164984130859,
        1.0
      ]
    },
    {
      "matrix": [
        0.0254,
        0.0,
        0.0,
        0.0,
        0.0,
        0.0254,
        0.0,
        0.0,
        0.0,
        0.0,
        0.0254,
        0.0,
        0.0,
        0.0,
        0.0,
        1.0
      ],
      "mesh": 10,
      "name": "Rebar Bar H16 : Shape Rebar Shape 1 [368280]_[319274]001"
    },
    {
      "children": [
        20
      ],
      "matrix": [
        -5.245366310191457e-07,
        -12.0,
        -0.0,
        0.0,
        0.0,
        0.0,
        -12.0,
        0.0,
        12.0,
        -5.245366310191457e-07,
        0.0,
        0.0,
        -3.048479815673828,
        -0.04000000212192535,
        -4.701164984130859,
        1.0
      ]
    },
    {
      "matrix": [
        0.0254,
        0.0,
        0.0,
        0.0,
        0.0,
        0.0254,
        0.0,
        0.0,
        0.0,
        0.0,
        0.0254,
        0.0,
        0.0,
        0.0,
        0.0,
        1.0
      ],
      "mesh": 11,
      "name": "Rebar Bar H16 : Shape Rebar Shape 1 [368281]_[319274]001"
    },
    {
      "children": [
        22
      ],
      "matrix": [
        -5.245366310191457e-07,
        -12.0,
        -0.0,
        0.0,
        0.0,
        0.0,
        -12.0,
        0.0,
        12.0,
        -5.245366310191457e-07,
        0.0,
        0.0,
        -3.139496159362793,
        -0.04000000212192535,
        -4.6089186767578125,
        1.0
      ]
    }
  ],
  "scenes": [
    {
      "nodes": [
        1,
        3,
        5,
        7,
        9,
        11,
        13,
        15,
        17,
        19,
        21,
        23
      ]
    }
  ]
}
