{
  "accessors": [
    {
      "bufferView": 0,
      "componentType": 5126,
      "count": 2036,
      "max": [
        7.611548900604248,
        0.02624678611755371,
        1.1220464706420898
      ],
      "min": [
        0.0,
        -0.02624671906232834,
        -0.026247024536132813
      ],
      "type": "VEC3"
    },
    {
      "bufferView": 0,
      "byteOffset": 12,
      "componentType": 5126,
      "count": 2036,
      "type": "VEC3"
    },
    {
      "bufferView": 0,
      "byteOffset": 24,
      "componentType": 5126,
      "count": 2036,
      "type": "VEC2"
    },
    {
      "bufferView": 1,
      "componentType": 5125,
      "count": 10440,
      "type": "SCALAR"
    },
    {
      "bufferView": 2,
      "componentType": 5126,
      "count": 2092,
      "max": [
        7.611548900604248,
        0.02624671906232834,
        0.026247024536132813
      ],
      "min": [
        0.0,
        -1.4501312971115112,
        -0.026247024536132813
      ],
      "type": "VEC3"
    },
    {
      "bufferView": 2,
      "byteOffset": 12,
      "componentType": 5126,
      "count": 2092,
      "type": "VEC3"
    },
    {
      "bufferView": 2,
      "byteOffset": 24,
      "componentType": 5126,
      "count": 2092,
      "type": "VEC2"
    },
    {
      "bufferView": 3,
      "componentType": 5125,
      "count": 10752,
      "type": "SCALAR"
    },
    {
      "bufferView": 4,
      "componentType": 5126,
      "count": 19513,
      "max": [
        0.42640864849090576,
        0.5510416030883789,
        0.016404200345277786
      ],
      "min": [
        -0.5122776031494141,
        -0.38686370849609375,
        -7.335227966308594
      ],
      "type": "VEC3"
    },
    {
      "bufferView": 4,
      "byteOffset": 12,
      "componentType": 5126,
      "count": 19513,
      "type": "VEC3"
    },
    {
      "bufferView": 4,
      "byteOffset": 24,
      "componentType": 5126,
      "count": 19513,
      "type": "VEC2"
    },
    {
      "bufferView": 5,
      "componentType": 5125,
      "count": 84942,
      "type": "SCALAR"
    },
    {
      "bufferView": 6,
      "componentType": 5126,
      "count": 2093,
      "max": [
        7.611548900604248,
        1.0439577102661133,
        0.03280901908874512
      ],
      "min": [
        0.0,
        -0.03280840069055557,
        -1.0439563989639282
      ],
      "type": "VEC3"
    },
    {
      "bufferView": 6,
      "byteOffset": 12,
      "componentType": 5126,
      "count": 2093,
      "type": "VEC3"
    },
    {
      "bufferView": 6,
      "byteOffset": 24,
      "componentType": 5126,
      "count": 2093,
      "type": "VEC2"
    },
    {
      "bufferView": 7,
      "componentType": 5125,
      "count": 10665,
      "type": "SCALAR"
    },
    {
      "bufferView": 8,
      "componentType": 5126,
      "count": 2093,
      "max": [
        7.611548900604248,
        1.0439567565917969,
        1.0439577102661133
      ],
      "min": [
        0.0,
        -0.03280840069055557,
        -0.03280840069055557
      ],
      "type": "VEC3"
    },
    {
      "bufferView": 8,
      "byteOffset": 12,
      "componentType": 5126,
      "count": 2093,
      "type": "VEC3"
    },
    {
      "bufferView": 8,
      "byteOffset": 24,
      "componentType": 5126,
      "count": 2093,
      "type": "VEC2"
    },
    {
      "bufferView": 9,
      "componentType": 5125,
      "count": 10665,
      "type": "SCALAR"
    },
    {
      "bufferView": 10,
      "componentType": 5126,
      "count": 2093,
      "max": [
        7.611548900604248,
        0.03280840069055557,
        1.0439577102661133
      ],
      "min": [
        0.0,
        -1.0439568758010864,
        -0.03280840069055557
      ],
      "type": "VEC3"
    },
    {
      "bufferView": 10,
      "byteOffset": 12,
      "componentType": 5126,
      "count": 2093,
      "type": "VEC3"
    },
    {
      "bufferView": 10,
      "byteOffset": 24,
      "componentType": 5126,
      "count": 2093,
      "type": "VEC2"
    },
    {
      "bufferView": 11,
      "componentType": 5125,
      "count": 10665,
      "type": "SCALAR"
    },
    {
      "bufferView": 12,
      "componentType": 5126,
      "count": 2093,
      "max": [
        7.611548900604248,
        0.03280840069055557,
        0.03280901908874512
      ],
      "min": [
        0.0,
        -1.0439568758010864,
        -1.0439563989639282
      ],
      "type": "VEC3"
    },
    {
      "bufferView": 12,
      "byteOffset": 12,
      "componentType": 5126,
      "count": 2093,
      "type": "VEC3"
    },
    {
      "bufferView": 12,
      "byteOffset": 24,
      "componentType": 5126,
      "count": 2093,
      "type": "VEC2"
    },
    {
      "bufferView": 13,
      "componentType": 5125,
      "count": 10665,
      "type": "SCALAR"
    },
    {
      "bufferView": 14,
      "componentType": 5126,
      "count": 2092,
      "max": [
        7.611548900604248,
        1.4501309394836426,
        0.02624678611755371
      ],
      "min": [
        0.0,
        -0.026247024536132813,
        -0.02624671906232834
      ],
      "type": "VEC3"
    },
    {
      "bufferView": 14,
      "byteOffset": 12,
      "componentType": 5126,
      "count": 2092,
      "type": "VEC3"
    },
    {
      "bufferView": 14,
      "byteOffset": 24,
      "componentType": 5126,
      "count": 2092,
      "type": "VEC2"
    },
    {
      "bufferView": 15,
      "componentType": 5125,
      "count": 10752,
      "type": "SCALAR"
    },
    {
      "bufferView": 16,
      "componentType": 5126,
      "count": 2036,
      "max": [
        7.611548900604248,
        0.026247024536132813,
        0.026247501373291016
      ],
      "min": [
        0.0,
        -0.02624671906232834,
        -1.1220465898513794
      ],
      "type": "VEC3"
    },
    {
      "bufferView": 16,
      "byteOffset": 12,
      "componentType": 5126,
      "count": 2036,
      "type": "VEC3"
    },
    {
      "bufferView": 16,
      "byteOffset": 24,
      "componentType": 5126,
      "count": 2036,
      "type": "VEC2"
    },
    {
      "bufferView": 17,
      "componentType": 5125,
      "count": 10440,
      "type": "SCALAR"
    },
    {
      "bufferView": 18,
      "componentType": 5126,
      "count": 2036,
      "max": [
        7.611548900604248,
        0.02624678611755371,
        1.1220479011535645
      ],
      "min": [
        0.0,
        -0.02624671906232834,
        -0.02624671906232834
      ],
      "type": "VEC3"
    },
    {
      "bufferView": 18,
      "byteOffset": 12,
      "componentType": 5126,
      "count": 2036,
      "type": "VEC3"
    },
    {
      "bufferView": 18,
      "byteOffset": 24,
      "componentType": 5126,
      "count": 2036,
      "type": "VEC2"
    },
    {
      "bufferView": 19,
      "componentType": 5125,
      "count": 10440,
      "type": "SCALAR"
    },
    {
      "bufferView": 20,
      "componentType": 5126,
      "count": 2092,
      "max": [
        7.611548900604248,
        0.02624671906232834,
        0.026247024536132813
      ],
      "min": [
        0.0,
        -1.4501312971115112,
        -0.02624671906232834
      ],
      "type": "VEC3"
    },
    {
      "bufferView": 20,
      "byteOffset": 12,
      "componentType": 5126,
      "count": 2092,
      "type": "VEC3"
    },
    {
      "bufferView": 20,
      "byteOffset": 24,
      "componentType": 5126,
      "count": 2092,
      "type": "VEC2"
    },
    {
      "bufferView": 21,
      "componentType": 5125,
      "count": 10752,
      "type": "SCALAR"
    },
    {
      "bufferView": 22,
      "componentType": 5126,
      "count": 24,
      "max": [
        -7.3482666015625,
        18.37504005432129,
        -6.561679840087891
      ],
      "min": [
        -13.253778457641602,
        12.469529151916504,
        -8.038057327270508
      ],
      "type": "VEC3"
    },
    {
      "bufferView": 22,
      "byteOffset": 12,
      "componentType": 5126,
      "count": 24,
      "type": "VEC3"
    },
    {
      "bufferView": 23,
      "componentType": 5125,
      "count": 36,
      "type": "SCALAR"
    }
  ],
  "asset": {
    "version": "2.0"
  },
  "bufferViews": [
    {
      "buffer": 0,
      "byteLength": 65152,
      "byteStride": 32,
      "target": 34962
    },
    {
      "buffer": 0,
      "byteLength": 41760,
      "byteOffset": 65152,
      "target": 34963
    },
    {
      "buffer": 0,
      "byteLength": 66944,
      "byteOffset": 106912,
      "byteStride": 32,
      "target": 34962
    },
    {
      "buffer": 0,
      "byteLength": 43008,
      "byteOffset": 173856,
      "target": 34963
    },
    {
      "buffer": 0,
      "byteLength": 624416,
      "byteOffset": 216864,
      "byteStride": 32,
      "target": 34962
    },
    {
      "buffer": 0,
      "byteLength": 339768,
      "byteOffset": 841280,
      "target": 34963
    },
    {
      "buffer": 0,
      "byteLength": 66976,
      "byteOffset": 1181048,
      "byteStride": 32,
      "target": 34962
    },
    {
      "buffer": 0,
      "byteLength": 42660,
      "byteOffset": 1248024,
      "target": 34963
    },
    {
      "buffer": 0,
      "byteLength": 66976,
      "byteOffset": 1290684,
      "byteStride": 32,
      "target": 34962
    },
    {
      "buffer": 0,
      "byteLength": 42660,
      "byteOffset": 1357660,
      "target": 34963
    },
    {
      "buffer": 0,
      "byteLength": 66976,
      "byteOffset": 1400320,
      "byteStride": 32,
      "target": 34962
    },
    {
      "buffer": 0,
      "byteLength": 42660,
      "byteOffset": 1467296,
      "target": 34963
    },
    {
      "buffer": 0,
      "byteLength": 66976,
      "byteOffset": 1509956,
      "byteStride": 32,
      "target": 34962
    },
    {
      "buffer": 0,
      "byteLength": 42660,
      "byteOffset": 1576932,
      "target": 34963
    },
    {
      "buffer": 0,
      "byteLength": 66944,
      "byteOffset": 1619592,
      "byteStride": 32,
      "target": 34962
    },
    {
      "buffer": 0,
      "byteLength": 43008,
      "byteOffset": 1686536,
      "target": 34963
    },
    {
      "buffer": 0,
      "byteLength": 65152,
      "byteOffset": 1729544,
      "byteStride": 32,
      "target": 34962
    },
    {
      "buffer": 0,
      "byteLength": 41760,
      "byteOffset": 1794696,
      "target": 34963
    },
    {
      "buffer": 0,
      "byteLength": 65152,
      "byteOffset": 1836456,
      "byteStride": 32,
      "target": 34962
    },
    {
      "buffer": 0,
      "byteLength": 41760,
      "byteOffset": 1901608,
      "target": 34963
    },
    {
      "buffer": 0,
      "byteLength": 66944,
      "byteOffset": 1943368,
      "byteStride": 32,
      "target": 34962
    },
    {
      "buffer": 0,
      "byteLength": 43008,
      "byteOffset": 2010312,
      "target": 34963
    },
    {
      "buffer": 0,
      "byteLength": 768,
      "byteOffset": 2053320,
      "byteStride": 32,
      "target": 34962
    },
    {
      "buffer": 0,
      "byteLength": 144,
      "byteOffset": 2054088,
      "target": 34963
    }
  ],
  "buffers": [
    {
      "byteLength": 2054232,
      "uri": "14-09-2025.bin"
    }
  ],
  "extensionsUsed": [
    "KHR_texture_transform"
  ],
  "images": [
    {
      "uri": "Steel_Rebar___B500A__B_or_Cbasecolortexture.jpeg"
    }
  ],
  "materials": [
    {
      "name": "Steel_Rebar___B500A__B_or_C",
      "pbrMetallicRoughness": {
        "baseColorFactor": [
          0.4391480088233948,
          0.21267099678516388,
          0.1043580025434494,
          1.0
        ],
        "baseColorTexture": {
          "extensions": {
            "KHR_texture_transform": {
              "scale": [
                0.8466669917106628,
                0.8466669917106628
              ]
            }
          },
          "index": 0
        },
        "metallicFactor": 0.0,
        "roughnessFactor": 0.4242599904537201
      }
    },
    {
      "name": "Concrete___Cast_in_Place_Concrete",
      "pbrMetallicRoughness": {
        "baseColorFactor": [
          0.7185379862785339,
          0.7048349976539612,
          0.6867330074310303,
          1.0
        ],
        "metallicFactor": 0.0,
        "roughnessFactor": 0.5
      }
    }
  ],
  "meshes": [
    {
      "name": "Rebar Bar H16 : Shape Rebar Shape 1 [368377]_[319274]001",
      "primitives": [
        {
          "attributes": {
            "NORMAL": 1,
            "POSITION": 0,
            "TEXCOORD_0": 2
          },
          "indices": 3,
          "material": 0,
          "mode": 4
        }
      ]
    },
    {
      "name": "Rebar Bar H16 : Shape Rebar Shape 1 [368378]_[319274]001",
      "primitives": [
        {
          "attributes": {
            "NORMAL": 5,
            "POSITION": 4,
            "TEXCOORD_0": 6
          },
          "indices": 7,
          "material": 0,
          "mode": 4
        }
      ]
    },
    {
      "name": "Rebar Bar H10 : Shape 52 [368381]_[319274]001",
      "primitives": [
        {
          "attributes": {
            "NORMAL": 9,
            "POSITION": 8,
            "TEXCOORD_0": 10
          },
          "indices": 11,
          "material": 0,
          "mode": 4
        }
      ]
    },
    {
      "name": "Rebar Bar H20 : Shape Rebar Shape 1 [368382]_[319274]001",
      "primitives": [
        {
          "attributes": {
            "NORMAL": 13,
            "POSITION": 12,
            "TEXCOORD_0": 14
          },
          "indices": 15,
          "material": 0,
          "mode": 4
        }
      ]
    },
    {
      "name": "Rebar Bar H20 : Shape Rebar Shape 1 [368383]_[319274]001",
      "primitives": [
        {
          "attributes": {
            "NORMAL": 17,
            "POSITION": 16,
            "TEXCOORD_0": 18
          },
          "indices": 19,
          "material": 0,
          "mode": 4
        }
      ]
    },
    {
      "name": "Rebar Bar H20 : Shape Rebar Shape 1 [368384]_[319274]001",
      "primitives": [
        {
          "attributes": {
            "NORMAL": 21,
            "POSITION": 20,
            "TEXCOORD_0": 22
          },
          "indices": 23,
          "material": 0,
          "mode": 4
        }
      ]
    },
    {
      "name": "Rebar Bar H20 : Shape Rebar Shape 1 [368385]_[319274]001",
      "primitives": [
        {
          "attributes": {
            "NORMAL": 25,
            "POSITION": 24,
            "TEXCOORD_0": 26
          },
          "indices": 27,
          "material": 0,
          "mode": 4
        }
      ]
    },
    {
      "name": "Rebar Bar H16 : Shape Rebar Shape 1 [368386]_[319274]001",
      "primitives": [
        {
          "attributes": {
            "NORMAL": 29,
            "POSITION": 28,
            "TEXCOORD_0": 30
          },
          "indices": 31,
          "material": 0,
          "mode": 4
        }
      ]
    },
    {
      "name": "Rebar Bar H16 : Shape Rebar Shape 1 [368387]_[319274]001",
      "primitives": [
        {
          "attributes": {
            "NORMAL": 33,
            "POSITION": 32,
            "TEXCOORD_0": 34
          },
          "indices": 35,
          "material": 0,
          "mode": 4
        }
      ]
    },
    {
      "name": "Rebar Bar H16 : Shape Rebar Shape 1 [368388]_[319274]001",
      "primitives": [
        {
          "attributes": {
            "NORMAL": 37,
            "POSITION": 36,
            "TEXCOORD_0": 38
          },
          "indices": 39,
          "material": 0,
          "mode": 4
        }
      ]
    },
    {
      "name": "Rebar Bar H16 : Shape Rebar Shape 1 [368389]_[319274]001",
      "primitives": [
        {
          "attributes": {
            "NORMAL": 41,
            "POSITION": 40,
            "TEXCOORD_0": 42
          },
          "indices": 43,
          "material": 0,
          "mode": 4
        }
      ]
    },
    {
      "name": "Footing-Rectangular 1800 x 1800 x 450mm [329140]001",
      "primitives": [
        {
          "attributes": {
            "NORMAL": 45,
            "POSITION": 44
          },
          "indices": 46,
          "material": 1,
          "mode": 4
        }
      ]
    }
  ],
  "nodes": [
    {
      "matrix": [
        0.0254,
        0.0,
        0.0,
        0.0,
        0.0,
        0.0254,
        0.0,
        0.0,
        0.0,
        0.0,
        0.0254,
        0.0,
        0.0,
        0.0,
        0.0,
        1.0
      ],
      "mesh": 0,
      "name": "Rebar Bar H16 : Shape Rebar Shape 1 [368377]_[319274]001"
    },
    {
      "children": [
        0
      ],
      "matrix": [
        -5.245366310191457e-07,
        -12.0,
        -0.0,
        0.0,
        0.0,
        0.0,
        -12.0,
        0.0,
        12.0,
        -5.245366310191457e-07,
        0.0,
        0.0,
        -3.048479815673828,
        -0.04000000212192535,
        -0.7011646144866943,
        1.0
      ]
    },
    {
      "matrix": [
        0.0254,
        0.0,
        0.0,
        0.0,
        0.0,
        0.0254,
        0.0,
        0.0,
        0.0,
        0.0,
        0.0254,
        0.0,
        0.0,
        0.0,
        0.0,
        1.0
      ],
      "mesh": 1,
      "name": "Rebar Bar H16 : Shape Rebar Shape 1 [368378]_[319274]001"
    },
    {
      "children": [
        2
      ],
      "matrix": [
        -5.245366310191457e-07,
        -12.0,
        -0.0,
        0.0,
        0.0,
        0.0,
        -12.0,
        0.0,
        12.0,
        -5.245366310191457e-07,
        0.0,
        0.0,
        -3.139496159362793,
        -0.04000000212192535,
        -0.6089187431335449,
        1.0
      ]
    },
    {
      "matrix": [
        0.0254,
        0.0,
        0.0,
        0.0,
        0.0,
        0.0254,
        0.0,
        0.0,
        0.0,
        0.0,
        0.0254,
        0.0,
        0.0,
        0.0,
        0.0,
        1.0
      ],
      "mesh": 2,
      "name": "Rebar Bar H10 : Shape 52 [368381]_[319274]001"
    },
    {
      "children": [
        4
      ],
      "matrix": [
        8.485280990600586,
        0.0,
        8.485280990600586,
        0.0,
        8.485280990600586,
        0.0,
        -8.485280990600586,
        0.0,
        0.0,
        12.0,
        0.0,
        0.0,
        0.8518600189208984,
        -0.04500000579357147,
        -0.6737454063415527,
        1.0
      ]
    },
    {
      "matrix": [
        0.0254,
        0.0,
        0.0,
        0.0,
        0.0,
        0.0254,
        0.0,
        0.0,
        0.0,
        0.0,
        0.0254,
        0.0,
        0.0,
        0.0,
        0.0,
        1.0
      ],
      "mesh": 3,
      "name": "Rebar Bar H20 : Shape Rebar Shape 1 [368382]_[319274]001"
    },
    {
      "children": [
        6
      ],
      "matrix": [
        -5.245366310191457e-07,
        -12.0,
        -0.0,
        0.0,
        0.0,
        0.0,
        -12.0,
        0.0,
        12.0,
        -5.245366310191457e-07,
        0.0,
        0.0,
        0.7731772247314452,
        -0.04000000212192535,
        -0.7877834552764892,
        1.0
      ]
    },
    {
      "matrix": [
        0.0254,
        0.0,
        0.0,
        0.0,
        0.0,
        0.0254,
        0.0,
        0.0,
        0.0,
        0.0,
        0.0254,
        0.0,
        0.0,
        0.0,
        0.0,
        1.0
      ],
      "mesh": 4,
      "name": "Rebar Bar H20 : Shape Rebar Shape 1 [368383]_[319274]001"
    },
    {
      "children": [
        8
      ],
      "matrix": [
        -5.245366310191457e-07,
        -12.0,
        -0.0,
        0.0,
        0.0,
        0.0,
        -12.0,
        0.0,
        12.0,
        -5.245366310191457e-07,
        0.0,
        0.0,
        0.9473193084716797,
        -0.04000000212192535,
        -0.7878757461547852,
        1.0
      ]
    },
    {
      "matrix": [
        0.0254,
        0.0,
        0.0,
        0.0,
        0.0,
        0.0254,
        0.0,
        0.0,
        0.0,
        0.0,
        0.0254,
        0.0,
        0.0,
        0.0,
        0.0,
        1.0
      ],
      "mesh": 5,
      "name": "Rebar Bar H20 : Shape Rebar Shape 1 [368384]_[319274]001"
    },
    {
      "children": [
        10
      ],
      "matrix": [
        -5.245366310191457e-07,
        -12.0,
        -0.0,
        0.0,
        0.0,
        0.0,
        -12.0,
        0.0,
        12.0,
        -5.245366310191457e-07,
        0.0,
        0.0,
        0.9473193084716797,
        -0.04000000212192535,
        -0.6136413230895996,
        1.0
      ]
    },
    {
      "matrix": [
        0.0254,
        0.0,
        0.0,
        0.0,
        0.0,
        0.0254,
        0.0,
        0.0,
        0.0,
        0.0,
        0.0254,
        0.0,
        0.0,
        0.0,
        0.0,
        1.0
      ],
      "mesh": 6,
      "name": "Rebar Bar H20 : Shape Rebar Shape 1 [368385]_[319274]001"
    },
    {
      "children": [
        12
      ],
      "matrix": [
        -5.245366310191457e-07,
        -12.0,
        -0.0,
        0.0,
        0.0,
        0.0,
        -12.0,
        0.0,
        12.0,
        -5.245366310191457e-07,
        0.0,
        0.0,
        0.7731772247314452,
        -0.04000000212192535,
        -0.6136413230895996,
        1.0
      ]
    },
    {
      "matrix": [
        0.0254,
        0.0,
        0.0,
        0.0,
        0.0,
        0.0254,
        0.0,
        0.0,
        0.0,
        0.0,
        0.0254,
        0.0,
        0.0,
        0.0,
        0.0,
        1.0
      ],
      "mesh": 7,
      "name": "Rebar Bar H16 : Shape Rebar Shape 1 [368386]_[319274]001"
    },
    {
      "children": [
        14
      ],
      "matrix": [
        -5.245366310191457e-07,
        -12.0,
        -0.0,
        0.0,
        0.0,
        0.0,
        -12.0,
        0.0,
        12.0,
        -5.245366310191457e-07,
        0.0,
        0.0,
        0.8598891799926758,
        -0.04000000212192535,
        -0.7927956493377685,
        1.0
      ]
    },
    {
      "matrix": [
        0.0254,
        0.0,
        0.0,
        0.0,
        0.0,
        0.0254,
        0.0,
        0.0,
        0.0,
        0.0,
        0.0254,
        0.0,
        0.0,
        0.0,
        0.0,
        1.0
      ],
      "mesh": 8,
      "name": "Rebar Bar H16 : Shape Rebar Shape 1 [368387]_[319274]001"
    },
    {
      "children": [
        16
      ],
      "matrix": [
        -5.245366310191457e-07,
        -12.0,
        -0.0,
        0.0,
        0.0,
        0.0,
        -12.0,
        0.0,
        12.0,
        -5.245366310191457e-07,
        0.0,
        0.0,
        0.7682483104705811,
        -0.04000000212192535,
        -0.7011646144866943,
        1.0
      ]
    },
    {
      "matrix": [
        0.0254,
        0.0,
        0.0,
        0.0,
        0.0,
        0.0254,
        0.0,
        0.0,
        0.0,
        0.0,
        0.0254,
        0.0,
        0.0,
        0.0,
        0.0,
        1.0
      ],
      "mesh": 9,
      "name": "Rebar Bar H16 : Shape Rebar Shape 1 [368388]_[319274]001"
    },
    {
      "children": [
        18
      ],
      "matrix": [
        -5.245366310191457e-07,
        -12.0,
        -0.0,
        0.0,
        0.0,
        0.0,
        -12.0,
        0.0,
        12.0,
        -5.245366310191457e-07,
        0.0,
        0.0,
        0.9515201179504394,
        -0.04000000212192535,
        -0.7011646144866943,
        1.0
      ]
    },
    {
      "matrix": [
        0.0254,
        0.0,
        0.0,
        0.0,
        0.0,
        0.0254,
        0.0,
        0.0,
        0.0,
        0.0,
        0.0254,
        0.0,
        0.0,
        0.0,
        0.0,
        1.0
      ],
      "mesh": 10,
      "name": "Rebar Bar H16 : Shape Rebar Shape 1 [368389]_[319274]001"
    },
    {
      "children": [
        20
      ],
      "matrix": [
        -5.245366310191457e-07,
        -12.0,
        -0.0,
        0.0,
        0.0,
        0.0,
        -12.0,
        0.0,
        12.0,
        -5.245366310191457e-07,
        0.0,
        0.0,
        0.8605041618347168,
        -0.04000000212192535,
        -0.6089187431335449,
        1.0
      ]
    },
    {
      "matrix": [
        0.0254,
        0.0,
        0.0,
        0.0,
        0.0,
        0.0254,
        0.0,
        0.0,
        0.0,
        0.0,
        0.0254,
        0.0,
        0.0,
        0.0,
        0.0,
        1.0
      ],
      "mesh": 11,
      "name": "Footing-Rectangular 1800 x 1800 x 450mm [329140]001"
    },
    {
      "children": [
        22
      ],
      "matrix": [
        11.999999999999998,
        0.0,
        0.0,
        0.0,
        0.0,
        0.0,
        -11.999999999999998,
        0.0,
        0.0,
        11.999999999999998,
        0.0,
        0.0,
        0.0,
        0.0,
        0.0,
        1.0
      ]
    }
  ],
  "samplers": [
    {
      "magFilter": 9729,
      "minFilter": 9729,
      "wrapS": 10497,
      "wrapT": 10497
    }
  ],
  "scenes": [
    {
      "nodes": [
        1,
        3,
        5,
        7,
        9,
        11,
        13,
        15,
        17,
        19,
        21,
        23
      ]
    }
  ],
  "textures": [
    {
      "name": "texture_source0_sampler0",
      "sampler": 0,
      "source": 0
    }
  ]
}
