{
  "accessors": [
    {
      "bufferView": 0,
      "componentType": 5126,
      "count": 24016,
      "max": [
        0.4264078140258789,
        0.5510425567626953,
        0.016405105590820313
      ],
      "min": [
        -0.5122785568237305,
        -0.38686370849609375,
        -9.596456527709961
      ],
      "type": "VEC3"
    },
    {
      "bufferView": 0,
      "byteOffset": 12,
      "componentType": 5126,
      "count": 24016,
      "type": "VEC3"
    },
    {
      "bufferView": 1,
      "componentType": 5125,
      "count": 104544,
      "type": "SCALAR"
    },
    {
      "bufferView": 2,
      "componentType": 5126,
      "count": 24016,
      "max": [
        0.4264087677001953,
        0.5510406494140625,
        0.016405105590820313
      ],
      "min": [
        -0.5122776031494141,
        -0.38686466217041016,
        -9.596456527709961
      ],
      "type": "VEC3"
    },
    {
      "bufferView": 2,
      "byteOffset": 12,
      "componentType": 5126,
      "count": 24016,
      "type": "VEC3"
    },
    {
      "bufferView": 3,
      "componentType": 5125,
      "count": 104544,
      "type": "SCALAR"
    },
    {
      "bufferView": 4,
      "componentType": 5126,
      "count": 2005,
      "max": [
        9.580052375793457,
        0.03280840069055557,
        0.03280840069055557
      ],
      "min": [
        0.0,
        -0.03280840069055557,
        -0.03280840069055557
      ],
      "type": "VEC3"
    },
    {
      "bufferView": 4,
      "byteOffset": 12,
      "componentType": 5126,
      "count": 2005,
      "type": "VEC3"
    },
    {
      "bufferView": 5,
      "componentType": 5125,
      "count": 10464,
      "type": "SCALAR"
    },
    {
      "bufferView": 6,
      "componentType": 5126,
      "count": 2005,
      "max": [
        9.580052375793457,
        0.03280840069055557,
        0.03280840069055557
      ],
      "min": [
        0.0,
        -0.03280840069055557,
        -0.03280840069055557
      ],
      "type": "VEC3"
    },
    {
      "bufferView": 6,
      "byteOffset": 12,
      "componentType": 5126,
      "count": 2005,
      "type": "VEC3"
    },
    {
      "bufferView": 7,
      "componentType": 5125,
      "count": 10464,
      "type": "SCALAR"
    },
    {
      "bufferView": 8,
      "componentType": 5126,
      "count": 2005,
      "max": [
        9.580052375793457,
        0.03280840069055557,
        0.03280840069055557
      ],
      "min": [
        0.0,
        -0.03280840069055557,
        -0.03280840069055557
      ],
      "type": "VEC3"
    },
    {
      "bufferView": 8,
      "byteOffset": 12,
      "componentType": 5126,
      "count": 2005,
      "type": "VEC3"
    },
    {
      "bufferView": 9,
      "componentType": 5125,
      "count": 10464,
      "type": "SCALAR"
    },
    {
      "bufferView": 10,
      "componentType": 5126,
      "count": 2005,
      "max": [
        9.580052375793457,
        0.03280840069055557,
        0.03280840069055557
      ],
      "min": [
        0.0,
        -0.03280840069055557,
        -0.03280840069055557
      ],
      "type": "VEC3"
    },
    {
      "bufferView": 10,
      "byteOffset": 12,
      "componentType": 5126,
      "count": 2005,
      "type": "VEC3"
    },
    {
      "bufferView": 11,
      "componentType": 5125,
      "count": 10464,
      "type": "SCALAR"
    },
    {
      "bufferView": 12,
      "componentType": 5126,
      "count": 2157,
      "max": [
        9.580052375793457,
        0.02624671906232834,
        0.02624671906232834
      ],
      "min": [
        0.0,
        -0.02624671906232834,
        -0.02624671906232834
      ],
      "type": "VEC3"
    },
    {
      "bufferView": 12,
      "byteOffset": 12,
      "componentType": 5126,
      "count": 2157,
      "type": "VEC3"
    },
    {
      "bufferView": 13,
      "componentType": 5125,
      "count": 11196,
      "type": "SCALAR"
    },
    {
      "bufferView": 14,
      "componentType": 5126,
      "count": 2157,
      "max": [
        9.580052375793457,
        0.02624671906232834,
        0.02624671906232834
      ],
      "min": [
        0.0,
        -0.02624671906232834,
        -0.02624671906232834
      ],
      "type": "VEC3"
    },
    {
      "bufferView": 14,
      "byteOffset": 12,
      "componentType": 5126,
      "count": 2157,
      "type": "VEC3"
    },
    {
      "bufferView": 15,
      "componentType": 5125,
      "count": 11196,
      "type": "SCALAR"
    },
    {
      "bufferView": 16,
      "componentType": 5126,
      "count": 2157,
      "max": [
        9.580052375793457,
        0.02624671906232834,
        0.02624671906232834
      ],
      "min": [
        0.0,
        -0.02624671906232834,
        -0.02624671906232834
      ],
      "type": "VEC3"
    },
    {
      "bufferView": 16,
      "byteOffset": 12,
      "componentType": 5126,
      "count": 2157,
      "type": "VEC3"
    },
    {
      "bufferView": 17,
      "componentType": 5125,
      "count": 11196,
      "type": "SCALAR"
    },
    {
      "bufferView": 18,
      "componentType": 5126,
      "count": 2157,
      "max": [
        9.580052375793457,
        0.02624671906232834,
        0.02624671906232834
      ],
      "min": [
        0.0,
        -0.02624671906232834,
        -0.02624671906232834
      ],
      "type": "VEC3"
    },
    {
      "bufferView": 18,
      "byteOffset": 12,
      "componentType": 5126,
      "count": 2157,
      "type": "VEC3"
    },
    {
      "bufferView": 19,
      "componentType": 5125,
      "count": 11196,
      "type": "SCALAR"
    },
    {
      "bufferView": 20,
      "componentType": 5126,
      "count": 2005,
      "max": [
        9.580052375793457,
        0.03280840069055557,
        0.03280840069055557
      ],
      "min": [
        0.0,
        -0.03280840069055557,
        -0.03280840069055557
      ],
      "type": "VEC3"
    },
    {
      "bufferView": 20,
      "byteOffset": 12,
      "componentType": 5126,
      "count": 2005,
      "type": "VEC3"
    },
    {
      "bufferView": 21,
      "componentType": 5125,
      "count": 10464,
      "type": "SCALAR"
    },
    {
      "bufferView": 22,
      "componentType": 5126,
      "count": 2005,
      "max": [
        9.580052375793457,
        0.03280840069055557,
        0.03280840069055557
      ],
      "min": [
        0.0,
        -0.03280840069055557,
        -0.03280840069055557
      ],
      "type": "VEC3"
    },
    {
      "bufferView": 22,
      "byteOffset": 12,
      "componentType": 5126,
      "count": 2005,
      "type": "VEC3"
    },
    {
      "bufferView": 23,
      "componentType": 5125,
      "count": 10464,
      "type": "SCALAR"
    },
    {
      "bufferView": 24,
      "componentType": 5126,
      "count": 5,
      "max": [
        3.314462900161743,
        15.914410591125488,
        0.0
      ],
      "min": [
        -10.7931489944458,
        1.806799292564392,
        0.0
      ],
      "type": "VEC3"
    },
    {
      "bufferView": 24,
      "byteOffset": 12,
      "componentType": 5126,
      "count": 5,
      "type": "VEC3"
    },
    {
      "bufferView": 25,
      "componentType": 5125,
      "count": 9,
      "type": "SCALAR"
    },
    {
      "bufferView": 24,
      "byteOffset": 160,
      "componentType": 5126,
      "count": 23,
      "max": [
        3.314462900161743,
        15.914410591125488,
        0.0
      ],
      "min": [
        -10.7931489944458,
        1.806799292564392,
        -1.1154855489730835
      ],
      "type": "VEC3"
    },
    {
      "bufferView": 24,
      "byteOffset": 172,
      "componentType": 5126,
      "count": 23,
      "type": "VEC3"
    },
    {
      "bufferView": 25,
      "byteOffset": 36,
      "componentType": 5125,
      "count": 39,
      "type": "SCALAR"
    }
  ],
  "asset": {
    "version": "2.0"
  },
  "bufferViews": [
    {
      "buffer": 0,
      "byteLength": 768512,
      "byteStride": 32,
      "target": 34962
    },
    {
      "buffer": 0,
      "byteLength": 418176,
      "byteOffset": 768512,
      "target": 34963
    },
    {
      "buffer": 0,
      "byteLength": 768512,
      "byteOffset": 1186688,
      "byteStride": 32,
      "target": 34962
    },
    {
      "buffer": 0,
      "byteLength": 418176,
      "byteOffset": 1955200,
      "target": 34963
    },
    {
      "buffer": 0,
      "byteLength": 64160,
      "byteOffset": 2373376,
      "byteStride": 32,
      "target": 34962
    },
    {
      "buffer": 0,
      "byteLength": 41856,
      "byteOffset": 2437536,
      "target": 34963
    },
    {
      "buffer": 0,
      "byteLength": 64160,
      "byteOffset": 2479392,
      "byteStride": 32,
      "target": 34962
    },
    {
      "buffer": 0,
      "byteLength": 41856,
      "byteOffset": 2543552,
      "target": 34963
    },
    {
      "buffer": 0,
      "byteLength": 64160,
      "byteOffset": 2585408,
      "byteStride": 32,
      "target": 34962
    },
    {
      "buffer": 0,
      "byteLength": 41856,
      "byteOffset": 2649568,
      "target": 34963
    },
    {
      "buffer": 0,
      "byteLength": 64160,
      "byteOffset": 2691424,
      "byteStride": 32,
      "target": 34962
    },
    {
      "buffer": 0,
      "byteLength": 41856,
      "byteOffset": 2755584,
      "target": 34963
    },
    {
      "buffer": 0,
      "byteLength": 69024,
      "byteOffset": 2797440,
      "byteStride": 32,
      "target": 34962
    },
    {
      "buffer": 0,
      "byteLength": 44784,
      "byteOffset": 2866464,
      "target": 34963
    },
    {
      "buffer": 0,
      "byteLength": 69024,
      "byteOffset": 2911248,
      "byteStride": 32,
      "target": 34962
    },
    {
      "buffer": 0,
      "byteLength": 44784,
      "byteOffset": 2980272,
      "target": 34963
    },
    {
      "buffer": 0,
      "byteLength": 69024,
      "byteOffset": 3025056,
      "byteStride": 32,
      "target": 34962
    },
    {
      "buffer": 0,
      "byteLength": 44784,
      "byteOffset": 3094080,
      "target": 34963
    },
    {
      "buffer": 0,
      "byteLength": 69024,
      "byteOffset": 3138864,
      "byteStride": 32,
      "target": 34962
    },
    {
      "buffer": 0,
      "byteLength": 44784,
      "byteOffset": 3207888,
      "target": 34963
    },
    {
      "buffer": 0,
      "byteLength": 64160,
      "byteOffset": 3252672,
      "byteStride": 32,
      "target": 34962
    },
    {
      "buffer": 0,
      "byteLength": 41856,
      "byteOffset": 3316832,
      "target": 34963
    },
    {
      "buffer": 0,
      "byteLength": 64160,
      "byteOffset": 3358688,
      "byteStride": 32,
      "target": 34962
    },
    {
      "buffer": 0,
      "byteLength": 41856,
      "byteOffset": 3422848,
      "target": 34963
    },
    {
      "buffer": 0,
      "byteLength": 896,
      "byteOffset": 3464704,
      "byteStride": 32,
      "target": 34962
    },
    {
      "buffer": 0,
      "byteLength": 192,
      "byteOffset": 3465600,
      "target": 34963
    }
  ],
  "buffers": [
    {
      "byteLength": 3465792,
      "uri": "18-09-2025.bin"
    }
  ],
  "materials": [
    {
      "name": "fallback Material",
      "pbrMetallicRoughness": {
        "baseColorFactor": [
          0.0,
          0.0,
          0.0,
          1.0
        ]
      }
    },
    {
      "name": "fallback Material",
      "pbrMetallicRoughness": {
        "baseColorFactor": [
          0.0,
          0.0,
          0.0,
          1.0
        ]
      }
    },
    {
      "name": "fallback Material",
      "pbrMetallicRoughness": {
        "baseColorFactor": [
          0.0,
          0.0,
          0.0,
          1.0
        ]
      }
    }
  ],
  "meshes": [
    {
      "name": "Rebar Bar H10 : Shape 52 [372271]_[319274]001",
      "primitives": [
        {
          "attributes": {
            "NORMAL": 1,
            "POSITION": 0
          },
          "indices": 2,
          "material": 0,
          "mode": 4
        }
      ]
    },
    {
      "name": "Rebar Bar H10 : Shape 52 [372291]_[319274]001",
      "primitives": [
        {
          "attributes": {
            "NORMAL": 4,
            "POSITION": 3
          },
          "indices": 5,
          "material": 0,
          "mode": 4
        }
      ]
    },
    {
      "name": "Rebar Bar H20 : Shape 00 [372272]001",
      "primitives": [
        {
          "attributes": {
            "NORMAL": 7,
            "POSITION": 6
          },
          "indices": 8,
          "material": 0,
          "mode": 4
        }
      ]
    },
    {
      "name": "Rebar Bar H20 : Shape 00 [372273]001",
      "primitives": [
        {
          "attributes": {
            "NORMAL": 10,
            "POSITION": 9
          },
          "indices": 11,
          "material": 0,
          "mode": 4
        }
      ]
    },
    {
      "name": "Rebar Bar H20 : Shape 00 [372274]001",
      "primitives": [
        {
          "attributes": {
            "NORMAL": 13,
            "POSITION": 12
          },
          "indices": 14,
          "material": 0,
          "mode": 4
        }
      ]
    },
    {
      "name": "Rebar Bar H20 : Shape 00 [372275]001",
      "primitives": [
        {
          "attributes": {
            "NORMAL": 16,
            "POSITION": 15
          },
          "indices": 17,
          "material": 0,
          "mode": 4
        }
      ]
    },
    {
      "name": "Rebar Bar H16 : Shape 00 [372276]001",
      "primitives": [
        {
          "attributes": {
            "NORMAL": 19,
            "POSITION": 18
          },
          "indices": 20,
          "material": 0,
          "mode": 4
        }
      ]
    },
    {
      "name": "Rebar Bar H16 : Shape 00 [372277]001",
      "primitives": [
        {
          "attributes": {
            "NORMAL": 22,
            "POSITION": 21
          },
          "indices": 23,
          "material": 0,
          "mode": 4
        }
      ]
    },
    {
      "name": "Rebar Bar H16 : Shape 00 [372278]001",
      "primitives": [
        {
          "attributes": {
            "NORMAL": 25,
            "POSITION": 24
          },
          "indices": 26,
          "material": 0,
          "mode": 4
        }
      ]
    },
    {
      "name": "Rebar Bar H16 : Shape 00 [372279]001",
      "primitives": [
        {
          "attributes": {
            "NORMAL": 28,
            "POSITION": 27
          },
          "indices": 29,
          "material": 0,
          "mode": 4
        }
      ]
    },
    {
      "name": "Rebar Bar H20 : Shape 00 [372292]001",
      "primitives": [
        {
          "attributes": {
            "NORMAL": 31,
            "POSITION": 30
          },
          "indices": 32,
          "material": 0,
          "mode": 4
        }
      ]
    },
    {
      "name": "Rebar Bar H20 : Shape 00 [372293]001",
      "primitives": [
        {
          "attributes": {
            "NORMAL": 34,
            "POSITION": 33
          },
          "indices": 35,
          "material": 0,
          "mode": 4
        }
      ]
    },
    {
      "name": "Floor Floor-Grnd-Bearing [378337]001",
      "primitives": [
        {
          "attributes": {
            "NORMAL": 37,
            "POSITION": 36
          },
          "indices": 38,
          "material": 1,
          "mode": 4
        },
        {
          "attributes": {
            "NORMAL": 40,
            "POSITION": 39
          },
          "indices": 41,
          "material": 2,
          "mode": 4
        }
      ]
    }
  ],
  "nodes": [
    {
      "matrix": [
        0.0254,
        0.0,
        0.0,
        0.0,
        0.0,
        0.0254,
        0.0,
        0.0,
        0.0,
        0.0,
        0.0254,
        0.0,
        0.0,
        0.0,
        0.0,
        1.0
      ],
      "mesh": 0,
      "name": "Rebar Bar H10 : Shape 52 [372271]_[319274]001"
    },
    {
      "children": [
        0
      ],
      "matrix": [
        -8.485280990600586,
        0.0,
        8.485280990600586,
        0.0,
        8.485280990600586,
        0.0,
        8.485280990600586,
        0.0,
        0.0,
        12.0,
        0.0,
        0.0,
        -3.1667189163208005,
        2.954999862670898,
        -4.709100546264648,
        1.0
      ]
    },
    {
      "matrix": [
        0.0254,
        0.0,
        0.0,
        0.0,
        0.0,
        0.0254,
        0.0,
        0.0,
        0.0,
        0.0,
        0.0254,
        0.0,
        0.0,
        0.0,
        0.0,
        1.0
      ],
      "mesh": 1,
      "name": "Rebar Bar H10 : Shape 52 [372291]_[319274]001"
    },
    {
      "children": [
        2
      ],
      "matrix": [
        -8.485280990600586,
        0.0,
        8.485280990600586,
        0.0,
        8.485280990600586,
        0.0,
        8.485280990600586,
        0.0,
        0.0,
        12.0,
        0.0,
        0.0,
        0.8332813079833984,
        2.954999862670898,
        -4.709100546264648,
        1.0
      ]
    },
    {
      "matrix": [
        0.0254,
        0.0,
        0.0,
        0.0,
        0.0,
        0.0254,
        0.0,
        0.0,
        0.0,
        0.0,
        0.0254,
        0.0,
        0.0,
        0.0,
        0.0,
        1.0
      ],
      "mesh": 2,
      "name": "Rebar Bar H20 : Shape 00 [372272]001"
    },
    {
      "children": [
        4
      ],
      "matrix": [
        -5.245366310191457e-07,
        12.0,
        0.0,
        0.0,
        0.0,
        0.0,
        -12.0,
        0.0,
        -12.0,
        -5.245366310191457e-07,
        -0.0,
        0.0,
        -3.225108181762695,
        0.0399999990940094,
        -4.784418817138672,
        1.0
      ]
    },
    {
      "matrix": [
        0.0254,
        0.0,
        0.0,
        0.0,
        0.0,
        0.0254,
        0.0,
        0.0,
        0.0,
        0.0,
        0.0254,
        0.0,
        0.0,
        0.0,
        0.0,
        1.0
      ],
      "mesh": 3,
      "name": "Rebar Bar H20 : Shape 00 [372273]001"
    },
    {
      "children": [
        6
      ],
      "matrix": [
        -5.245366310191457e-07,
        12.0,
        0.0,
        0.0,
        0.0,
        0.0,
        -12.0,
        0.0,
        -12.0,
        -5.245366310191457e-07,
        -0.0,
        0.0,
        -3.055941375732422,
        0.0399999990940094,
        -4.785232333374023,
        1.0
      ]
    },
    {
      "matrix": [
        0.0254,
        0.0,
        0.0,
        0.0,
        0.0,
        0.0254,
        0.0,
        0.0,
        0.0,
        0.0,
        0.0254,
        0.0,
        0.0,
        0.0,
        0.0,
        1.0
      ],
      "mesh": 4,
      "name": "Rebar Bar H20 : Shape 00 [372274]001"
    },
    {
      "children": [
        8
      ],
      "matrix": [
        -5.245366310191457e-07,
        12.0,
        0.0,
        0.0,
        0.0,
        0.0,
        -12.0,
        0.0,
        -12.0,
        -5.245366310191457e-07,
        -0.0,
        0.0,
        -3.0583813430786133,
        0.0399999990940094,
        -4.616879043579101,
        1.0
      ]
    },
    {
      "matrix": [
        0.0254,
        0.0,
        0.0,
        0.0,
        0.0,
        0.0254,
        0.0,
        0.0,
        0.0,
        0.0,
        0.0254,
        0.0,
        0.0,
        0.0,
        0.0,
        1.0
      ],
      "mesh": 5,
      "name": "Rebar Bar H20 : Shape 00 [372275]001"
    },
    {
      "children": [
        10
      ],
      "matrix": [
        -5.245366310191457e-07,
        12.0,
        0.0,
        0.0,
        0.0,
        0.0,
        -12.0,
        0.0,
        -12.0,
        -5.245366310191457e-07,
        -0.0,
        0.0,
        -3.2226682144165038,
        0.0399999990940094,
        -4.61606552734375,
        1.0
      ]
    },
    {
      "matrix": [
        0.0254,
        0.0,
        0.0,
        0.0,
        0.0,
        0.0254,
        0.0,
        0.0,
        0.0,
        0.0,
        0.0254,
        0.0,
        0.0,
        0.0,
        0.0,
        1.0
      ],
      "mesh": 6,
      "name": "Rebar Bar H16 : Shape 00 [372276]001"
    },
    {
      "children": [
        12
      ],
      "matrix": [
        -5.245366310191457e-07,
        12.0,
        0.0,
        0.0,
        0.0,
        0.0,
        -12.0,
        0.0,
        -12.0,
        -5.245366310191457e-07,
        -0.0,
        0.0,
        -3.13859737701416,
        0.0399999990940094,
        -4.788006195068359,
        1.0
      ]
    },
    {
      "matrix": [
        0.0254,
        0.0,
        0.0,
        0.0,
        0.0,
        0.0254,
        0.0,
        0.0,
        0.0,
        0.0,
        0.0254,
        0.0,
        0.0,
        0.0,
        0.0,
        1.0
      ],
      "mesh": 7,
      "name": "Rebar Bar H16 : Shape 00 [372277]001"
    },
    {
      "children": [
        14
      ],
      "matrix": [
        -5.245366310191457e-07,
        12.0,
        0.0,
        0.0,
        0.0,
        0.0,
        -12.0,
        0.0,
        -12.0,
        -5.245366310191457e-07,
        -0.0,
        0.0,
        -3.2279020034790036,
        0.0399999990940094,
        -4.699236032104492,
        1.0
      ]
    },
    {
      "matrix": [
        0.0254,
        0.0,
        0.0,
        0.0,
        0.0,
        0.0254,
        0.0,
        0.0,
        0.0,
        0.0,
        0.0254,
        0.0,
        0.0,
        0.0,
        0.0,
        1.0
      ],
      "mesh": 8,
      "name": "Rebar Bar H16 : Shape 00 [372278]001"
    },
    {
      "children": [
        16
      ],
      "matrix": [
        -5.245366310191457e-07,
        12.0,
        0.0,
        0.0,
        0.0,
        0.0,
        -12.0,
        0.0,
        -12.0,
        -5.245366310191457e-07,
        -0.0,
        0.0,
        -3.055174949645996,
        0.0399999990940094,
        -4.702444750976563,
        1.0
      ]
    },
    {
      "matrix": [
        0.0254,
        0.0,
        0.0,
        0.0,
        0.0,
        0.0254,
        0.0,
        0.0,
        0.0,
        0.0,
        0.0254,
        0.0,
        0.0,
        0.0,
        0.0,
        1.0
      ],
      "mesh": 9,
      "name": "Rebar Bar H16 : Shape 00 [372279]001"
    },
    {
      "children": [
        18
      ],
      "matrix": [
        -5.245366310191457e-07,
        12.0,
        0.0,
        0.0,
        0.0,
        0.0,
        -12.0,
        0.0,
        -12.0,
        -5.245366310191457e-07,
        -0.0,
        0.0,
        -3.1337844924926754,
        0.0399999990940094,
        -4.613674588012695,
        1.0
      ]
    },
    {
      "matrix": [
        0.0254,
        0.0,
        0.0,
        0.0,
        0.0,
        0.0254,
        0.0,
        0.0,
        0.0,
        0.0,
        0.0254,
        0.0,
        0.0,
        0.0,
        0.0,
        1.0
      ],
      "mesh": 10,
      "name": "Rebar Bar H20 : Shape 00 [372292]001"
    },
    {
      "children": [
        20
      ],
      "matrix": [
        -5.245366310191457e-07,
        12.0,
        0.0,
        0.0,
        0.0,
        0.0,
        -12.0,
        0.0,
        -12.0,
        -5.245366310191457e-07,
        -0.0,
        0.0,
        0.7748918972015381,
        0.0399999990940094,
        -4.784418817138672,
        1.0
      ]
    },
    {
      "matrix": [
        0.0254,
        0.0,
        0.0,
        0.0,
        0.0,
        0.0254,
        0.0,
        0.0,
        0.0,
        0.0,
        0.0254,
        0.0,
        0.0,
        0.0,
        0.0,
        1.0
      ],
      "mesh": 11,
      "name": "Rebar Bar H20 : Shape 00 [372293]001"
    },
    {
      "children": [
        22
      ],
      "matrix": [
        -5.245366310191457e-07,
        12.0,
        0.0,
        0.0,
        0.0,
        0.0,
        -12.0,
        0.0,
        -12.0,
        -5.245366310191457e-07,
        -0.0,
        0.0,
        0.9440585578918457,
        0.0399999990940094,
        -4.785232333374023,
        1.0
      ]
    },
    {
      "matrix": [
        0.0254,
        0.0,
        0.0,
        0.0,
        0.0,
        0.0254,
        0.0,
        0.0,
        0.0,
        0.0,
        0.0254,
        0.0,
        0.0,
        0.0,
        0.0,
        1.0
      ],
      "mesh": 12,
      "name": "Floor Floor-Grnd-Bearing [378337]001"
    },
    {
      "children": [
        24
      ],
      "matrix": [
        11.999999999999998,
        0.0,
        0.0,
        0.0,
        0.0,
        0.0,
        -11.999999999999998,
        0.0,
        0.0,
        11.999999999999998,
        0.0,
        0.0,
        0.0,
        0.0,
        0.0,
        1.0
      ]
    }
  ],
  "scenes": [
    {
      "nodes": [
        1,
        3,
        5,
        7,
        9,
        11,
        13,
        15,
        17,
        19,
        21,
        23,
        25
      ]
    }
  ]
}
