{
  "accessors": [
    {
      "bufferView": 0,
      "componentType": 5126,
      "count": 24016,
      "max": [
        0.4264082908630371,
        0.5510425567626953,
        0.016405105590820313
      ],
      "min": [
        -0.5122780799865723,
        -0.38686275482177734,
        -9.596456527709961
      ],
      "type": "VEC3"
    },
    {
      "bufferView": 0,
      "byteOffset": 12,
      "componentType": 5126,
      "count": 24016,
      "type": "VEC3"
    },
    {
      "bufferView": 0,
      "byteOffset": 24,
      "componentType": 5126,
      "count": 24016,
      "type": "VEC2"
    },
    {
      "bufferView": 1,
      "componentType": 5125,
      "count": 104544,
      "type": "SCALAR"
    },
    {
      "bufferView": 2,
      "componentType": 5126,
      "count": 2005,
      "max": [
        9.580052375793457,
        0.03280840069055557,
        0.03280840069055557
      ],
      "min": [
        0.0,
        -0.03280840069055557,
        -0.03280840069055557
      ],
      "type": "VEC3"
    },
    {
      "bufferView": 2,
      "byteOffset": 12,
      "componentType": 5126,
      "count": 2005,
      "type": "VEC3"
    },
    {
      "bufferView": 2,
      "byteOffset": 24,
      "componentType": 5126,
      "count": 2005,
      "type": "VEC2"
    },
    {
      "bufferView": 3,
      "componentType": 5125,
      "count": 10464,
      "type": "SCALAR"
    },
    {
      "bufferView": 4,
      "componentType": 5126,
      "count": 2005,
      "max": [
        9.580052375793457,
        0.03280840069055557,
        0.03280840069055557
      ],
      "min": [
        0.0,
        -0.03280840069055557,
        -0.03280840069055557
      ],
      "type": "VEC3"
    },
    {
      "bufferView": 4,
      "byteOffset": 12,
      "componentType": 5126,
      "count": 2005,
      "type": "VEC3"
    },
    {
      "bufferView": 4,
      "byteOffset": 24,
      "componentType": 5126,
      "count": 2005,
      "type": "VEC2"
    },
    {
      "bufferView": 5,
      "componentType": 5125,
      "count": 10464,
      "type": "SCALAR"
    },
    {
      "bufferView": 6,
      "componentType": 5126,
      "count": 2157,
      "max": [
        9.580052375793457,
        0.02624671906232834,
        0.02624671906232834
      ],
      "min": [
        0.0,
        -0.02624671906232834,
        -0.02624671906232834
      ],
      "type": "VEC3"
    },
    {
      "bufferView": 6,
      "byteOffset": 12,
      "componentType": 5126,
      "count": 2157,
      "type": "VEC3"
    },
    {
      "bufferView": 6,
      "byteOffset": 24,
      "componentType": 5126,
      "count": 2157,
      "type": "VEC2"
    },
    {
      "bufferView": 7,
      "componentType": 5125,
      "count": 11196,
      "type": "SCALAR"
    },
    {
      "bufferView": 8,
      "componentType": 5126,
      "count": 2157,
      "max": [
        9.580052375793457,
        0.02624671906232834,
        0.02624671906232834
      ],
      "min": [
        0.0,
        -0.02624671906232834,
        -0.02624671906232834
      ],
      "type": "VEC3"
    },
    {
      "bufferView": 8,
      "byteOffset": 12,
      "componentType": 5126,
      "count": 2157,
      "type": "VEC3"
    },
    {
      "bufferView": 8,
      "byteOffset": 24,
      "componentType": 5126,
      "count": 2157,
      "type": "VEC2"
    },
    {
      "bufferView": 9,
      "componentType": 5125,
      "count": 11196,
      "type": "SCALAR"
    },
    {
      "bufferView": 10,
      "componentType": 5126,
      "count": 2157,
      "max": [
        9.580052375793457,
        0.02624671906232834,
        0.02624671906232834
      ],
      "min": [
        0.0,
        -0.02624671906232834,
        -0.02624671906232834
      ],
      "type": "VEC3"
    },
    {
      "bufferView": 10,
      "byteOffset": 12,
      "componentType": 5126,
      "count": 2157,
      "type": "VEC3"
    },
    {
      "bufferView": 10,
      "byteOffset": 24,
      "componentType": 5126,
      "count": 2157,
      "type": "VEC2"
    },
    {
      "bufferView": 11,
      "componentType": 5125,
      "count": 11196,
      "type": "SCALAR"
    },
    {
      "bufferView": 12,
      "componentType": 5126,
      "count": 2157,
      "max": [
        9.580052375793457,
        0.02624671906232834,
        0.02624671906232834
      ],
      "min": [
        0.0,
        -0.02624671906232834,
        -0.02624671906232834
      ],
      "type": "VEC3"
    },
    {
      "bufferView": 12,
      "byteOffset": 12,
      "componentType": 5126,
      "count": 2157,
      "type": "VEC3"
    },
    {
      "bufferView": 12,
      "byteOffset": 24,
      "componentType": 5126,
      "count": 2157,
      "type": "VEC2"
    },
    {
      "bufferView": 13,
      "componentType": 5125,
      "count": 11196,
      "type": "SCALAR"
    },
    {
      "bufferView": 14,
      "componentType": 5126,
      "count": 2005,
      "max": [
        9.580052375793457,
        0.03280840069055557,
        0.03280840069055557
      ],
      "min": [
        0.0,
        -0.03280840069055557,
        -0.03280840069055557
      ],
      "type": "VEC3"
    },
    {
      "bufferView": 14,
      "byteOffset": 12,
      "componentType": 5126,
      "count": 2005,
      "type": "VEC3"
    },
    {
      "bufferView": 14,
      "byteOffset": 24,
      "componentType": 5126,
      "count": 2005,
      "type": "VEC2"
    },
    {
      "bufferView": 15,
      "componentType": 5125,
      "count": 10464,
      "type": "SCALAR"
    },
    {
      "bufferView": 16,
      "componentType": 5126,
      "count": 2005,
      "max": [
        9.580052375793457,
        0.03280840069055557,
        0.03280840069055557
      ],
      "min": [
        0.0,
        -0.03280840069055557,
        -0.03280840069055557
      ],
      "type": "VEC3"
    },
    {
      "bufferView": 16,
      "byteOffset": 12,
      "componentType": 5126,
      "count": 2005,
      "type": "VEC3"
    },
    {
      "bufferView": 16,
      "byteOffset": 24,
      "componentType": 5126,
      "count": 2005,
      "type": "VEC2"
    },
    {
      "bufferView": 17,
      "componentType": 5125,
      "count": 10464,
      "type": "SCALAR"
    },
    {
      "bufferView": 18,
      "componentType": 5126,
      "count": 2005,
      "max": [
        9.580052375793457,
        0.03280840069055557,
        0.03280840069055557
      ],
      "min": [
        0.0,
        -0.03280840069055557,
        -0.03280840069055557
      ],
      "type": "VEC3"
    },
    {
      "bufferView": 18,
      "byteOffset": 12,
      "componentType": 5126,
      "count": 2005,
      "type": "VEC3"
    },
    {
      "bufferView": 18,
      "byteOffset": 24,
      "componentType": 5126,
      "count": 2005,
      "type": "VEC2"
    },
    {
      "bufferView": 19,
      "componentType": 5125,
      "count": 10464,
      "type": "SCALAR"
    },
    {
      "bufferView": 20,
      "componentType": 5126,
      "count": 2005,
      "max": [
        9.580052375793457,
        0.03280840069055557,
        0.03280840069055557
      ],
      "min": [
        0.0,
        -0.03280840069055557,
        -0.03280840069055557
      ],
      "type": "VEC3"
    },
    {
      "bufferView": 20,
      "byteOffset": 12,
      "componentType": 5126,
      "count": 2005,
      "type": "VEC3"
    },
    {
      "bufferView": 20,
      "byteOffset": 24,
      "componentType": 5126,
      "count": 2005,
      "type": "VEC2"
    },
    {
      "bufferView": 21,
      "componentType": 5125,
      "count": 10464,
      "type": "SCALAR"
    },
    {
      "bufferView": 22,
      "componentType": 5126,
      "count": 2157,
      "max": [
        9.580052375793457,
        0.02624671906232834,
        0.02624671906232834
      ],
      "min": [
        0.0,
        -0.02624671906232834,
        -0.02624671906232834
      ],
      "type": "VEC3"
    },
    {
      "bufferView": 22,
      "byteOffset": 12,
      "componentType": 5126,
      "count": 2157,
      "type": "VEC3"
    },
    {
      "bufferView": 22,
      "byteOffset": 24,
      "componentType": 5126,
      "count": 2157,
      "type": "VEC2"
    },
    {
      "bufferView": 23,
      "componentType": 5125,
      "count": 11196,
      "type": "SCALAR"
    },
    {
      "bufferView": 24,
      "componentType": 5126,
      "count": 2157,
      "max": [
        9.580052375793457,
        0.02624671906232834,
        0.02624671906232834
      ],
      "min": [
        0.0,
        -0.02624671906232834,
        -0.02624671906232834
      ],
      "type": "VEC3"
    },
    {
      "bufferView": 24,
      "byteOffset": 12,
      "componentType": 5126,
      "count": 2157,
      "type": "VEC3"
    },
    {
      "bufferView": 24,
      "byteOffset": 24,
      "componentType": 5126,
      "count": 2157,
      "type": "VEC2"
    },
    {
      "bufferView": 25,
      "componentType": 5125,
      "count": 11196,
      "type": "SCALAR"
    },
    {
      "bufferView": 26,
      "componentType": 5126,
      "count": 2157,
      "max": [
        9.580052375793457,
        0.02624671906232834,
        0.02624671906232834
      ],
      "min": [
        0.0,
        -0.02624671906232834,
        -0.02624671906232834
      ],
      "type": "VEC3"
    },
    {
      "bufferView": 26,
      "byteOffset": 12,
      "componentType": 5126,
      "count": 2157,
      "type": "VEC3"
    },
    {
      "bufferView": 26,
      "byteOffset": 24,
      "componentType": 5126,
      "count": 2157,
      "type": "VEC2"
    },
    {
      "bufferView": 27,
      "componentType": 5125,
      "count": 11196,
      "type": "SCALAR"
    },
    {
      "bufferView": 28,
      "componentType": 5126,
      "count": 2157,
      "max": [
        9.580052375793457,
        0.02624671906232834,
        0.02624671906232834
      ],
      "min": [
        0.0,
        -0.02624671906232834,
        -0.02624671906232834
      ],
      "type": "VEC3"
    },
    {
      "bufferView": 28,
      "byteOffset": 12,
      "componentType": 5126,
      "count": 2157,
      "type": "VEC3"
    },
    {
      "bufferView": 28,
      "byteOffset": 24,
      "componentType": 5126,
      "count": 2157,
      "type": "VEC2"
    },
    {
      "bufferView": 29,
      "componentType": 5125,
      "count": 11196,
      "type": "SCALAR"
    }
  ],
  "asset": {
    "version": "2.0"
  },
  "bufferViews": [
    {
      "buffer": 0,
      "byteLength": 768512,
      "byteStride": 32,
      "target": 34962
    },
    {
      "buffer": 0,
      "byteLength": 418176,
      "byteOffset": 768512,
      "target": 34963
    },
    {
      "buffer": 0,
      "byteLength": 64160,
      "byteOffset": 1186688,
      "byteStride": 32,
      "target": 34962
    },
    {
      "buffer": 0,
      "byteLength": 41856,
      "byteOffset": 1250848,
      "target": 34963
    },
    {
      "buffer": 0,
      "byteLength": 64160,
      "byteOffset": 1292704,
      "byteStride": 32,
      "target": 34962
    },
    {
      "buffer": 0,
      "byteLength": 41856,
      "byteOffset": 1356864,
      "target": 34963
    },
    {
      "buffer": 0,
      "byteLength": 69024,
      "byteOffset": 1398720,
      "byteStride": 32,
      "target": 34962
    },
    {
      "buffer": 0,
      "byteLength": 44784,
      "byteOffset": 1467744,
      "target": 34963
    },
    {
      "buffer": 0,
      "byteLength": 69024,
      "byteOffset": 1512528,
      "byteStride": 32,
      "target": 34962
    },
    {
      "buffer": 0,
      "byteLength": 44784,
      "byteOffset": 1581552,
      "target": 34963
    },
    {
      "buffer": 0,
      "byteLength": 69024,
      "byteOffset": 1626336,
      "byteStride": 32,
      "target": 34962
    },
    {
      "buffer": 0,
      "byteLength": 44784,
      "byteOffset": 1695360,
      "target": 34963
    },
    {
      "buffer": 0,
      "byteLength": 69024,
      "byteOffset": 1740144,
      "byteStride": 32,
      "target": 34962
    },
    {
      "buffer": 0,
      "byteLength": 44784,
      "byteOffset": 1809168,
      "target": 34963
    },
    {
      "buffer": 0,
      "byteLength": 64160,
      "byteOffset": 1853952,
      "byteStride": 32,
      "target": 34962
    },
    {
      "buffer": 0,
      "byteLength": 41856,
      "byteOffset": 1918112,
      "target": 34963
    },
    {
      "buffer": 0,
      "byteLength": 64160,
      "byteOffset": 1959968,
      "byteStride": 32,
      "target": 34962
    },
    {
      "buffer": 0,
      "byteLength": 41856,
      "byteOffset": 2024128,
      "target": 34963
    },
    {
      "buffer": 0,
      "byteLength": 64160,
      "byteOffset": 2065984,
      "byteStride": 32,
      "target": 34962
    },
    {
      "buffer": 0,
      "byteLength": 41856,
      "byteOffset": 2130144,
      "target": 34963
    },
    {
      "buffer": 0,
      "byteLength": 64160,
      "byteOffset": 2172000,
      "byteStride": 32,
      "target": 34962
    },
    {
      "buffer": 0,
      "byteLength": 41856,
      "byteOffset": 2236160,
      "target": 34963
    },
    {
      "buffer": 0,
      "byteLength": 69024,
      "byteOffset": 2278016,
      "byteStride": 32,
      "target": 34962
    },
    {
      "buffer": 0,
      "byteLength": 44784,
      "byteOffset": 2347040,
      "target": 34963
    },
    {
      "buffer": 0,
      "byteLength": 69024,
      "byteOffset": 2391824,
      "byteStride": 32,
      "target": 34962
    },
    {
      "buffer": 0,
      "byteLength": 44784,
      "byteOffset": 2460848,
      "target": 34963
    },
    {
      "buffer": 0,
      "byteLength": 69024,
      "byteOffset": 2505632,
      "byteStride": 32,
      "target": 34962
    },
    {
      "buffer": 0,
      "byteLength": 44784,
      "byteOffset": 2574656,
      "target": 34963
    },
    {
      "buffer": 0,
      "byteLength": 69024,
      "byteOffset": 2619440,
      "byteStride": 32,
      "target": 34962
    },
    {
      "buffer": 0,
      "byteLength": 44784,
      "byteOffset": 2688464,
      "target": 34963
    }
  ],
  "buffers": [
    {
      "byteLength": 2733248,
      "uri": "19-09-2025.bin"
    }
  ],
  "extensionsUsed": [
    "KHR_texture_transform"
  ],
  "images": [
    {
      "uri": "Steel_Rebar___B500A__B_or_Cbasecolortexture.jpeg"
    }
  ],
  "materials": [
    {
      "name": "Steel_Rebar___B500A__B_or_C",
      "pbrMetallicRoughness": {
        "baseColorFactor": [
          0.4391480088233948,
          0.21267099678516388,
          0.1043580025434494,
          1.0
        ],
        "baseColorTexture": {
          "extensions": {
            "KHR_texture_transform": {
              "scale": [
                0.8466669917106628,
                0.8466669917106628
              ]
            }
          },
          "index": 0
        },
        "metallicFactor": 0.0,
        "roughnessFactor": 0.4242599904537201
      }
    }
  ],
  "meshes": [
    {
      "name": "Rebar Bar H10 : Shape 52 [372373]_[319274]001",
      "primitives": [
        {
          "attributes": {
            "NORMAL": 1,
            "POSITION": 0,
            "TEXCOORD_0": 2
          },
          "indices": 3,
          "material": 0,
          "mode": 4
        }
      ]
    },
    {
      "name": "Rebar Bar H20 : Shape 00 [372294]001",
      "primitives": [
        {
          "attributes": {
            "NORMAL": 5,
            "POSITION": 4,
            "TEXCOORD_0": 6
          },
          "indices": 7,
          "material": 0,
          "mode": 4
        }
      ]
    },
    {
      "name": "Rebar Bar H20 : Shape 00 [372295]001",
      "primitives": [
        {
          "attributes": {
            "NORMAL": 9,
            "POSITION": 8,
            "TEXCOORD_0": 10
          },
          "indices": 11,
          "material": 0,
          "mode": 4
        }
      ]
    },
    {
      "name": "Rebar Bar H16 : Shape 00 [372296]001",
      "primitives": [
        {
          "attributes": {
            "NORMAL": 13,
            "POSITION": 12,
            "TEXCOORD_0": 14
          },
          "indices": 15,
          "material": 0,
          "mode": 4
        }
      ]
    },
    {
      "name": "Rebar Bar H16 : Shape 00 [372297]001",
      "primitives": [
        {
          "attributes": {
            "NORMAL": 17,
            "POSITION": 16,
            "TEXCOORD_0": 18
          },
          "indices": 19,
          "material": 0,
          "mode": 4
        }
      ]
    },
    {
      "name": "Rebar Bar H16 : Shape 00 [372298]001",
      "primitives": [
        {
          "attributes": {
            "NORMAL": 21,
            "POSITION": 20,
            "TEXCOORD_0": 22
          },
          "indices": 23,
          "material": 0,
          "mode": 4
        }
      ]
    },
    {
      "name": "Rebar Bar H16 : Shape 00 [372299]001",
      "primitives": [
        {
          "attributes": {
            "NORMAL": 25,
            "POSITION": 24,
            "TEXCOORD_0": 26
          },
          "indices": 27,
          "material": 0,
          "mode": 4
        }
      ]
    },
    {
      "name": "Rebar Bar H20 : Shape 00 [372374]001",
      "primitives": [
        {
          "attributes": {
            "NORMAL": 29,
            "POSITION": 28,
            "TEXCOORD_0": 30
          },
          "indices": 31,
          "material": 0,
          "mode": 4
        }
      ]
    },
    {
      "name": "Rebar Bar H20 : Shape 00 [372375]001",
      "primitives": [
        {
          "attributes": {
            "NORMAL": 33,
            "POSITION": 32,
            "TEXCOORD_0": 34
          },
          "indices": 35,
          "material": 0,
          "mode": 4
        }
      ]
    },
    {
      "name": "Rebar Bar H20 : Shape 00 [372376]001",
      "primitives": [
        {
          "attributes": {
            "NORMAL": 37,
            "POSITION": 36,
            "TEXCOORD_0": 38
          },
          "indices": 39,
          "material": 0,
          "mode": 4
        }
      ]
    },
    {
      "name": "Rebar Bar H20 : Shape 00 [372377]001",
      "primitives": [
        {
          "attributes": {
            "NORMAL": 41,
            "POSITION": 40,
            "TEXCOORD_0": 42
          },
          "indices": 43,
          "material": 0,
          "mode": 4
        }
      ]
    },
    {
      "name": "Rebar Bar H16 : Shape 00 [372378]001",
      "primitives": [
        {
          "attributes": {
            "NORMAL": 45,
            "POSITION": 44,
            "TEXCOORD_0": 46
          },
          "indices": 47,
          "material": 0,
          "mode": 4
        }
      ]
    },
    {
      "name": "Rebar Bar H16 : Shape 00 [372379]001",
      "primitives": [
        {
          "attributes": {
            "NORMAL": 49,
            "POSITION": 48,
            "TEXCOORD_0": 50
          },
          "indices": 51,
          "material": 0,
          "mode": 4
        }
      ]
    },
    {
      "name": "Rebar Bar H16 : Shape 00 [372380]001",
      "primitives": [
        {
          "attributes": {
            "NORMAL": 53,
            "POSITION": 52,
            "TEXCOORD_0": 54
          },
          "indices": 55,
          "material": 0,
          "mode": 4
        }
      ]
    },
    {
      "name": "Rebar Bar H16 : Shape 00 [372381]001",
      "primitives": [
        {
          "attributes": {
            "NORMAL": 57,
            "POSITION": 56,
            "TEXCOORD_0": 58
          },
          "indices": 59,
          "material": 0,
          "mode": 4
        }
      ]
    }
  ],
  "nodes": [
    {
      "matrix": [
        0.0254,
        0.0,
        0.0,
        0.0,
        0.0,
        0.0254,
        0.0,
        0.0,
        0.0,
        0.0,
        0.0254,
        0.0,
        0.0,
        0.0,
        0.0,
        1.0
      ],
      "mesh": 0,
      "name": "Rebar Bar H10 : Shape 52 [372373]_[319274]001"
    },
    {
      "children": [
        0
      ],
      "matrix": [
        -8.485280990600586,
        0.0,
        8.485280990600586,
        0.0,
        8.485280990600586,
        0.0,
        8.485280990600586,
        0.0,
        0.0,
        12.0,
        0.0,
        0.0,
        -3.1667189163208005,
        2.954999862670898,
        -0.7091007579803467,
        1.0
      ]
    },
    {
      "matrix": [
        0.0254,
        0.0,
        0.0,
        0.0,
        0.0,
        0.0254,
        0.0,
        0.0,
        0.0,
        0.0,
        0.0254,
        0.0,
        0.0,
        0.0,
        0.0,
        1.0
      ],
      "mesh": 1,
      "name": "Rebar Bar H20 : Shape 00 [372294]001"
    },
    {
      "children": [
        2
      ],
      "matrix": [
        -5.245366310191457e-07,
        12.0,
        0.0,
        0.0,
        0.0,
        0.0,
        -12.0,
        0.0,
        -12.0,
        -5.245366310191457e-07,
        -0.0,
        0.0,
        0.9416186874389648,
        0.0399999990940094,
        -4.616879043579101,
        1.0
      ]
    },
    {
      "matrix": [
        0.0254,
        0.0,
        0.0,
        0.0,
        0.0,
        0.0254,
        0.0,
        0.0,
        0.0,
        0.0,
        0.0254,
        0.0,
        0.0,
        0.0,
        0.0,
        1.0
      ],
      "mesh": 2,
      "name": "Rebar Bar H20 : Shape 00 [372295]001"
    },
    {
      "children": [
        4
      ],
      "matrix": [
        -5.245366310191457e-07,
        12.0,
        0.0,
        0.0,
        0.0,
        0.0,
        -12.0,
        0.0,
        -12.0,
        -5.245366310191457e-07,
        -0.0,
        0.0,
        0.7773318161010742,
        0.0399999990940094,
        -4.61606552734375,
        1.0
      ]
    },
    {
      "matrix": [
        0.0254,
        0.0,
        0.0,
        0.0,
        0.0,
        0.0254,
        0.0,
        0.0,
        0.0,
        0.0,
        0.0254,
        0.0,
        0.0,
        0.0,
        0.0,
        1.0
      ],
      "mesh": 3,
      "name": "Rebar Bar H16 : Shape 00 [372296]001"
    },
    {
      "children": [
        6
      ],
      "matrix": [
        -5.245366310191457e-07,
        12.0,
        0.0,
        0.0,
        0.0,
        0.0,
        -12.0,
        0.0,
        -12.0,
        -5.245366310191457e-07,
        -0.0,
        0.0,
        0.8614027503967285,
        0.0399999990940094,
        -4.788006195068359,
        1.0
      ]
    },
    {
      "matrix": [
        0.0254,
        0.0,
        0.0,
        0.0,
        0.0,
        0.0254,
        0.0,
        0.0,
        0.0,
        0.0,
        0.0254,
        0.0,
        0.0,
        0.0,
        0.0,
        1.0
      ],
      "mesh": 4,
      "name": "Rebar Bar H16 : Shape 00 [372297]001"
    },
    {
      "children": [
        8
      ],
      "matrix": [
        -5.245366310191457e-07,
        12.0,
        0.0,
        0.0,
        0.0,
        0.0,
        -12.0,
        0.0,
        -12.0,
        -5.245366310191457e-07,
        -0.0,
        0.0,
        0.7720979785919189,
        0.0399999990940094,
        -4.699236032104492,
        1.0
      ]
    },
    {
      "matrix": [
        0.0254,
        0.0,
        0.0,
        0.0,
        0.0,
        0.0254,
        0.0,
        0.0,
        0.0,
        0.0,
        0.0254,
        0.0,
        0.0,
        0.0,
        0.0,
        1.0
      ],
      "mesh": 5,
      "name": "Rebar Bar H16 : Shape 00 [372298]001"
    },
    {
      "children": [
        10
      ],
      "matrix": [
        -5.245366310191457e-07,
        12.0,
        0.0,
        0.0,
        0.0,
        0.0,
        -12.0,
        0.0,
        -12.0,
        -5.245366310191457e-07,
        -0.0,
        0.0,
        0.944825080871582,
        0.0399999990940094,
        -4.702444750976563,
        1.0
      ]
    },
    {
      "matrix": [
        0.0254,
        0.0,
        0.0,
        0.0,
        0.0,
        0.0254,
        0.0,
        0.0,
        0.0,
        0.0,
        0.0254,
        0.0,
        0.0,
        0.0,
        0.0,
        1.0
      ],
      "mesh": 6,
      "name": "Rebar Bar H16 : Shape 00 [372299]001"
    },
    {
      "children": [
        12
      ],
      "matrix": [
        -5.245366310191457e-07,
        12.0,
        0.0,
        0.0,
        0.0,
        0.0,
        -12.0,
        0.0,
        -12.0,
        -5.245366310191457e-07,
        -0.0,
        0.0,
        0.8662155380249023,
        0.0399999990940094,
        -4.613674588012695,
        1.0
      ]
    },
    {
      "matrix": [
        0.0254,
        0.0,
        0.0,
        0.0,
        0.0,
        0.0254,
        0.0,
        0.0,
        0.0,
        0.0,
        0.0254,
        0.0,
        0.0,
        0.0,
        0.0,
        1.0
      ],
      "mesh": 7,
      "name": "Rebar Bar H20 : Shape 00 [372374]001"
    },
    {
      "children": [
        14
      ],
      "matrix": [
        -5.245366310191457e-07,
        12.0,
        0.0,
        0.0,
        0.0,
        0.0,
        -12.0,
        0.0,
        -12.0,
        -5.245366310191457e-07,
        -0.0,
        0.0,
        -3.225108181762695,
        0.0399999990940094,
        -0.7844189804077148,
        1.0
      ]
    },
    {
      "matrix": [
        0.0254,
        0.0,
        0.0,
        0.0,
        0.0,
        0.0254,
        0.0,
        0.0,
        0.0,
        0.0,
        0.0254,
        0.0,
        0.0,
        0.0,
        0.0,
        1.0
      ],
      "mesh": 8,
      "name": "Rebar Bar H20 : Shape 00 [372375]001"
    },
    {
      "children": [
        16
      ],
      "matrix": [
        -5.245366310191457e-07,
        12.0,
        0.0,
        0.0,
        0.0,
        0.0,
        -12.0,
        0.0,
        -12.0,
        -5.245366310191457e-07,
        -0.0,
        0.0,
        -3.055941375732422,
        0.0399999990940094,
        -0.7852323028564453,
        1.0
      ]
    },
    {
      "matrix": [
        0.0254,
        0.0,
        0.0,
        0.0,
        0.0,
        0.0254,
        0.0,
        0.0,
        0.0,
        0.0,
        0.0254,
        0.0,
        0.0,
        0.0,
        0.0,
        1.0
      ],
      "mesh": 9,
      "name": "Rebar Bar H20 : Shape 00 [372376]001"
    },
    {
      "children": [
        18
      ],
      "matrix": [
        -5.245366310191457e-07,
        12.0,
        0.0,
        0.0,
        0.0,
        0.0,
        -12.0,
        0.0,
        -12.0,
        -5.245366310191457e-07,
        -0.0,
        0.0,
        -3.0583813430786133,
        0.0399999990940094,
        -0.6168789161682129,
        1.0
      ]
    },
    {
      "matrix": [
        0.0254,
        0.0,
        0.0,
        0.0,
        0.0,
        0.0254,
        0.0,
        0.0,
        0.0,
        0.0,
        0.0254,
        0.0,
        0.0,
        0.0,
        0.0,
        1.0
      ],
      "mesh": 10,
      "name": "Rebar Bar H20 : Shape 00 [372377]001"
    },
    {
      "children": [
        20
      ],
      "matrix": [
        -5.245366310191457e-07,
        12.0,
        0.0,
        0.0,
        0.0,
        0.0,
        -12.0,
        0.0,
        -12.0,
        -5.245366310191457e-07,
        -0.0,
        0.0,
        -3.2226682144165038,
        0.0399999990940094,
        -0.6160655937194824,
        1.0
      ]
    },
    {
      "matrix": [
        0.0254,
        0.0,
        0.0,
        0.0,
        0.0,
        0.0254,
        0.0,
        0.0,
        0.0,
        0.0,
        0.0254,
        0.0,
        0.0,
        0.0,
        0.0,
        1.0
      ],
      "mesh": 11,
      "name": "Rebar Bar H16 : Shape 00 [372378]001"
    },
    {
      "children": [
        22
      ],
      "matrix": [
        -5.245366310191457e-07,
        12.0,
        0.0,
        0.0,
        0.0,
        0.0,
        -12.0,
        0.0,
        -12.0,
        -5.245366310191457e-07,
        -0.0,
        0.0,
        -3.13859737701416,
        0.0399999990940094,
        -0.7880060192108154,
        1.0
      ]
    },
    {
      "matrix": [
        0.0254,
        0.0,
        0.0,
        0.0,
        0.0,
        0.0254,
        0.0,
        0.0,
        0.0,
        0.0,
        0.0254,
        0.0,
        0.0,
        0.0,
        0.0,
        1.0
      ],
      "mesh": 12,
      "name": "Rebar Bar H16 : Shape 00 [372379]001"
    },
    {
      "children": [
        24
      ],
      "matrix": [
        -5.245366310191457e-07,
        12.0,
        0.0,
        0.0,
        0.0,
        0.0,
        -12.0,
        0.0,
        -12.0,
        -5.245366310191457e-07,
        -0.0,
        0.0,
        -3.2279020034790036,
        0.0399999990940094,
        -0.6992360500335693,
        1.0
      ]
    },
    {
      "matrix": [
        0.0254,
        0.0,
        0.0,
        0.0,
        0.0,
        0.0254,
        0.0,
        0.0,
        0.0,
        0.0,
        0.0254,
        0.0,
        0.0,
        0.0,
        0.0,
        1.0
      ],
      "mesh": 13,
      "name": "Rebar Bar H16 : Shape 00 [372380]001"
    },
    {
      "children": [
        26
      ],
      "matrix": [
        -5.245366310191457e-07,
        12.0,
        0.0,
        0.0,
        0.0,
        0.0,
        -12.0,
        0.0,
        -12.0,
        -5.245366310191457e-07,
        -0.0,
        0.0,
        -3.055174949645996,
        0.0399999990940094,
        -0.7024445751190185,
        1.0
      ]
    },
    {
      "matrix": [
        0.0254,
        0.0,
        0.0,
        0.0,
        0.0,
        0.0254,
        0.0,
        0.0,
        0.0,
        0.0,
        0.0254,
        0.0,
        0.0,
        0.0,
        0.0,
        1.0
      ],
      "mesh": 14,
      "name": "Rebar Bar H16 : Shape 00 [372381]001"
    },
    {
      "children": [
        28
      ],
      "matrix": [
        -5.245366310191457e-07,
        12.0,
        0.0,
        0.0,
        0.0,
        0.0,
        -12.0,
        0.0,
        -12.0,
        -5.245366310191457e-07,
        -0.0,
        0.0,
        -3.1337844924926754,
        0.0399999990940094,
        -0.6136746059417725,
        1.0
      ]
    }
  ],
  "samplers": [
    {
      "magFilter": 9729,
      "minFilter": 9729,
      "wrapS": 10497,
      "wrapT": 10497
    }
  ],
  "scenes": [
    {
      "nodes": [
        1,
        3,
        5,
        7,
        9,
        11,
        13,
        15,
        17,
        19,
        21,
        23,
        25,
        27,
        29
      ]
    }
  ],
  "textures": [
    {
      "name": "texture_source0_sampler0",
      "sampler": 0,
      "source": 0
    }
  ]
}
