{
  "accessors": [
    {
      "bufferView": 0,
      "componentType": 5126,
      "count": 4409,
      "max": [
        2.62467098236084,
        0.026247024536132813,
        0.02624671906232834
      ],
      "min": [
        -9.5367431640625e-07,
        -0.026247024536132813,
        -13.81889820098877
      ],
      "type": "VEC3"
    },
    {
      "bufferView": 0,
      "byteOffset": 12,
      "componentType": 5126,
      "count": 4409,
      "type": "VEC3"
    },
    {
      "bufferView": 1,
      "componentType": 5125,
      "count": 22644,
      "type": "SCALAR"
    },
    {
      "bufferView": 2,
      "componentType": 5126,
      "count": 4409,
      "max": [
        2.6246719360351563,
        0.02624671906232834,
        0.02624671906232834
      ],
      "min": [
        0.0,
        -0.02624797821044922,
        -13.81889820098877
      ],
      "type": "VEC3"
    },
    {
      "bufferView": 2,
      "byteOffset": 12,
      "componentType": 5126,
      "count": 4409,
      "type": "VEC3"
    },
    {
      "bufferView": 3,
      "componentType": 5125,
      "count": 22644,
      "type": "SCALAR"
    },
    {
      "bufferView": 4,
      "componentType": 5126,
      "count": 4296,
      "max": [
        1.9685044288635254,
        0.019685745239257813,
        13.825461387634277
      ],
      "min": [
        -9.5367431640625e-07,
        -0.019685745239257813,
        -0.019685745239257813
      ],
      "type": "VEC3"
    },
    {
      "bufferView": 4,
      "byteOffset": 12,
      "componentType": 5126,
      "count": 4296,
      "type": "VEC3"
    },
    {
      "bufferView": 5,
      "componentType": 5125,
      "count": 21672,
      "type": "SCALAR"
    },
    {
      "bufferView": 6,
      "componentType": 5126,
      "count": 4296,
      "max": [
        1.9685049057006836,
        0.019685039296746254,
        13.825461387634277
      ],
      "min": [
        0.0,
        -0.01968669891357422,
        -0.019685745239257813
      ],
      "type": "VEC3"
    },
    {
      "bufferView": 6,
      "byteOffset": 12,
      "componentType": 5126,
      "count": 4296,
      "type": "VEC3"
    },
    {
      "bufferView": 7,
      "componentType": 5125,
      "count": 21672,
      "type": "SCALAR"
    },
    {
      "bufferView": 8,
      "componentType": 5126,
      "count": 4296,
      "max": [
        1.9685049057006836,
        0.019685039296746254,
        13.825461387634277
      ],
      "min": [
        0.0,
        -0.01968669891357422,
        -0.019685745239257813
      ],
      "type": "VEC3"
    },
    {
      "bufferView": 8,
      "byteOffset": 12,
      "componentType": 5126,
      "count": 4296,
      "type": "VEC3"
    },
    {
      "bufferView": 9,
      "componentType": 5125,
      "count": 21672,
      "type": "SCALAR"
    },
    {
      "bufferView": 10,
      "componentType": 5126,
      "count": 29088,
      "max": [
        0.3770313262939453,
        8.920289039611816,
        0.35501956939697266
      ],
      "min": [
        -0.600893497467041,
        -0.32622861862182617,
        -8.927572250366211
      ],
      "type": "VEC3"
    },
    {
      "bufferView": 10,
      "byteOffset": 12,
      "componentType": 5126,
      "count": 29088,
      "type": "VEC3"
    },
    {
      "bufferView": 11,
      "componentType": 5125,
      "count": 127818,
      "type": "SCALAR"
    },
    {
      "bufferView": 12,
      "componentType": 5126,
      "count": 4409,
      "max": [
        2.6246719360351563,
        0.02624678611755371,
        0.02624671906232834
      ],
      "min": [
        0.0,
        -0.02624797821044922,
        -13.81889820098877
      ],
      "type": "VEC3"
    },
    {
      "bufferView": 12,
      "byteOffset": 12,
      "componentType": 5126,
      "count": 4409,
      "type": "VEC3"
    },
    {
      "bufferView": 13,
      "componentType": 5125,
      "count": 22644,
      "type": "SCALAR"
    },
    {
      "bufferView": 14,
      "componentType": 5126,
      "count": 4409,
      "max": [
        2.62467098236084,
        0.02624678611755371,
        0.02624671906232834
      ],
      "min": [
        -9.5367431640625e-07,
        -0.02624797821044922,
        -13.81889820098877
      ],
      "type": "VEC3"
    },
    {
      "bufferView": 14,
      "byteOffset": 12,
      "componentType": 5126,
      "count": 4409,
      "type": "VEC3"
    },
    {
      "bufferView": 15,
      "componentType": 5125,
      "count": 22644,
      "type": "SCALAR"
    },
    {
      "bufferView": 16,
      "componentType": 5126,
      "count": 4409,
      "max": [
        2.6246719360351563,
        0.02624678611755371,
        0.02624671906232834
      ],
      "min": [
        0.0,
        -0.02624797821044922,
        -13.81889820098877
      ],
      "type": "VEC3"
    },
    {
      "bufferView": 16,
      "byteOffset": 12,
      "componentType": 5126,
      "count": 4409,
      "type": "VEC3"
    },
    {
      "bufferView": 17,
      "componentType": 5125,
      "count": 22644,
      "type": "SCALAR"
    },
    {
      "bufferView": 18,
      "componentType": 5126,
      "count": 4296,
      "max": [
        1.9685044288635254,
        0.01968526840209961,
        13.825461387634277
      ],
      "min": [
        -9.5367431640625e-07,
        -0.019686222076416016,
        -0.019685745239257813
      ],
      "type": "VEC3"
    },
    {
      "bufferView": 18,
      "byteOffset": 12,
      "componentType": 5126,
      "count": 4296,
      "type": "VEC3"
    },
    {
      "bufferView": 19,
      "componentType": 5125,
      "count": 21672,
      "type": "SCALAR"
    },
    {
      "bufferView": 20,
      "componentType": 5126,
      "count": 4296,
      "max": [
        1.9685049057006836,
        0.01968526840209961,
        13.825461387634277
      ],
      "min": [
        0.0,
        -0.019686222076416016,
        -0.019685745239257813
      ],
      "type": "VEC3"
    },
    {
      "bufferView": 20,
      "byteOffset": 12,
      "componentType": 5126,
      "count": 4296,
      "type": "VEC3"
    },
    {
      "bufferView": 21,
      "componentType": 5125,
      "count": 21672,
      "type": "SCALAR"
    },
    {
      "bufferView": 22,
      "componentType": 5126,
      "count": 4296,
      "max": [
        1.9685049057006836,
        0.01968526840209961,
        13.825461387634277
      ],
      "min": [
        0.0,
        -0.019686222076416016,
        -0.019685745239257813
      ],
      "type": "VEC3"
    },
    {
      "bufferView": 22,
      "byteOffset": 12,
      "componentType": 5126,
      "count": 4296,
      "type": "VEC3"
    },
    {
      "bufferView": 23,
      "componentType": 5125,
      "count": 21672,
      "type": "SCALAR"
    },
    {
      "bufferView": 24,
      "componentType": 5126,
      "count": 29088,
      "max": [
        0.3770303726196289,
        12.152230262756348,
        0.4964122772216797
      ],
      "min": [
        -0.6008944511413574,
        -0.013123512268066406,
        -0.48114871978759766
      ],
      "type": "VEC3"
    },
    {
      "bufferView": 24,
      "byteOffset": 12,
      "componentType": 5126,
      "count": 29088,
      "type": "VEC3"
    },
    {
      "bufferView": 25,
      "componentType": 5125,
      "count": 127818,
      "type": "SCALAR"
    },
    {
      "bufferView": 26,
      "componentType": 5126,
      "count": 4409,
      "max": [
        2.6246728897094727,
        0.02624797821044922,
        0.02624797821044922
      ],
      "min": [
        -9.5367431640625e-07,
        -13.818897247314453,
        -0.026247024536132813
      ],
      "type": "VEC3"
    },
    {
      "bufferView": 26,
      "byteOffset": 12,
      "componentType": 5126,
      "count": 4409,
      "type": "VEC3"
    },
    {
      "bufferView": 27,
      "componentType": 5125,
      "count": 22644,
      "type": "SCALAR"
    },
    {
      "bufferView": 28,
      "componentType": 5126,
      "count": 4409,
      "max": [
        2.6246728897094727,
        0.02624797821044922,
        0.02624797821044922
      ],
      "min": [
        -9.5367431640625e-07,
        -13.818897247314453,
        -0.026247024536132813
      ],
      "type": "VEC3"
    },
    {
      "bufferView": 28,
      "byteOffset": 12,
      "componentType": 5126,
      "count": 4409,
      "type": "VEC3"
    },
    {
      "bufferView": 29,
      "componentType": 5125,
      "count": 22644,
      "type": "SCALAR"
    }
  ],
  "asset": {
    "version": "2.0"
  },
  "bufferViews": [
    {
      "buffer": 0,
      "byteLength": 141088,
      "byteStride": 32,
      "target": 34962
    },
    {
      "buffer": 0,
      "byteLength": 90576,
      "byteOffset": 141088,
      "target": 34963
    },
    {
      "buffer": 0,
      "byteLength": 141088,
      "byteOffset": 231664,
      "byteStride": 32,
      "target": 34962
    },
    {
      "buffer": 0,
      "byteLength": 90576,
      "byteOffset": 372752,
      "target": 34963
    },
    {
      "buffer": 0,
      "byteLength": 137472,
      "byteOffset": 463328,
      "byteStride": 32,
      "target": 34962
    },
    {
      "buffer": 0,
      "byteLength": 86688,
      "byteOffset": 600800,
      "target": 34963
    },
    {
      "buffer": 0,
      "byteLength": 137472,
      "byteOffset": 687488,
      "byteStride": 32,
      "target": 34962
    },
    {
      "buffer": 0,
      "byteLength": 86688,
      "byteOffset": 824960,
      "target": 34963
    },
    {
      "buffer": 0,
      "byteLength": 137472,
      "byteOffset": 911648,
      "byteStride": 32,
      "target": 34962
    },
    {
      "buffer": 0,
      "byteLength": 86688,
      "byteOffset": 1049120,
      "target": 34963
    },
    {
      "buffer": 0,
      "byteLength": 930816,
      "byteOffset": 1135808,
      "byteStride": 32,
      "target": 34962
    },
    {
      "buffer": 0,
      "byteLength": 511272,
      "byteOffset": 2066624,
      "target": 34963
    },
    {
      "buffer": 0,
      "byteLength": 141088,
      "byteOffset": 2577896,
      "byteStride": 32,
      "target": 34962
    },
    {
      "buffer": 0,
      "byteLength": 90576,
      "byteOffset": 2718984,
      "target": 34963
    },
    {
      "buffer": 0,
      "byteLength": 141088,
      "byteOffset": 2809560,
      "byteStride": 32,
      "target": 34962
    },
    {
      "buffer": 0,
      "byteLength": 90576,
      "byteOffset": 2950648,
      "target": 34963
    },
    {
      "buffer": 0,
      "byteLength": 141088,
      "byteOffset": 3041224,
      "byteStride": 32,
      "target": 34962
    },
    {
      "buffer": 0,
      "byteLength": 90576,
      "byteOffset": 3182312,
      "target": 34963
    },
    {
      "buffer": 0,
      "byteLength": 137472,
      "byteOffset": 3272888,
      "byteStride": 32,
      "target": 34962
    },
    {
      "buffer": 0,
      "byteLength": 86688,
      "byteOffset": 3410360,
      "target": 34963
    },
    {
      "buffer": 0,
      "byteLength": 137472,
      "byteOffset": 3497048,
      "byteStride": 32,
      "target": 34962
    },
    {
      "buffer": 0,
      "byteLength": 86688,
      "byteOffset": 3634520,
      "target": 34963
    },
    {
      "buffer": 0,
      "byteLength": 137472,
      "byteOffset": 3721208,
      "byteStride": 32,
      "target": 34962
    },
    {
      "buffer": 0,
      "byteLength": 86688,
      "byteOffset": 3858680,
      "target": 34963
    },
    {
      "buffer": 0,
      "byteLength": 930816,
      "byteOffset": 3945368,
      "byteStride": 32,
      "target": 34962
    },
    {
      "buffer": 0,
      "byteLength": 511272,
      "byteOffset": 4876184,
      "target": 34963
    },
    {
      "buffer": 0,
      "byteLength": 141088,
      "byteOffset": 5387456,
      "byteStride": 32,
      "target": 34962
    },
    {
      "buffer": 0,
      "byteLength": 90576,
      "byteOffset": 5528544,
      "target": 34963
    },
    {
      "buffer": 0,
      "byteLength": 141088,
      "byteOffset": 5619120,
      "byteStride": 32,
      "target": 34962
    },
    {
      "buffer": 0,
      "byteLength": 90576,
      "byteOffset": 5760208,
      "target": 34963
    }
  ],
  "buffers": [
    {
      "byteLength": 5850784,
      "uri": "21-09-2025.bin"
    }
  ],
  "materials": [
    {
      "name": "fallback Material",
      "pbrMetallicRoughness": {
        "baseColorFactor": [
          0.0,
          0.0,
          0.0,
          1.0
        ]
      }
    }
  ],
  "meshes": [
    {
      "name": "Rebar Bar H16 : Shape Rebar Shape 2 [386815]_[319274]001",
      "primitives": [
        {
          "attributes": {
            "NORMAL": 1,
            "POSITION": 0
          },
          "indices": 2,
          "material": 0,
          "mode": 4
        }
      ]
    },
    {
      "name": "Rebar Bar H16 : Shape Rebar Shape 2 [386816]_[319274]001",
      "primitives": [
        {
          "attributes": {
            "NORMAL": 4,
            "POSITION": 3
          },
          "indices": 5,
          "material": 0,
          "mode": 4
        }
      ]
    },
    {
      "name": "Rebar Bar H12 : Shape Rebar Shape 2 [386817]_[319274]001",
      "primitives": [
        {
          "attributes": {
            "NORMAL": 7,
            "POSITION": 6
          },
          "indices": 8,
          "material": 0,
          "mode": 4
        }
      ]
    },
    {
      "name": "Rebar Bar H12 : Shape Rebar Shape 2 [386818]_[319274]001",
      "primitives": [
        {
          "attributes": {
            "NORMAL": 10,
            "POSITION": 9
          },
          "indices": 11,
          "material": 0,
          "mode": 4
        }
      ]
    },
    {
      "name": "Rebar Bar H12 : Shape Rebar Shape 2 [386819]_[319274]001",
      "primitives": [
        {
          "attributes": {
            "NORMAL": 13,
            "POSITION": 12
          },
          "indices": 14,
          "material": 0,
          "mode": 4
        }
      ]
    },
    {
      "name": "Rebar Bar H8 : Shape 52 [386833]_[319274]001",
      "primitives": [
        {
          "attributes": {
            "NORMAL": 16,
            "POSITION": 15
          },
          "indices": 17,
          "material": 0,
          "mode": 4
        }
      ]
    },
    {
      "name": "Rebar Bar H16 : Shape Rebar Shape 2 [386834]_[319274]001",
      "primitives": [
        {
          "attributes": {
            "NORMAL": 19,
            "POSITION": 18
          },
          "indices": 20,
          "material": 0,
          "mode": 4
        }
      ]
    },
    {
      "name": "Rebar Bar H16 : Shape Rebar Shape 2 [386835]_[319274]001",
      "primitives": [
        {
          "attributes": {
            "NORMAL": 22,
            "POSITION": 21
          },
          "indices": 23,
          "material": 0,
          "mode": 4
        }
      ]
    },
    {
      "name": "Rebar Bar H16 : Shape Rebar Shape 2 [386836]_[319274]001",
      "primitives": [
        {
          "attributes": {
            "NORMAL": 25,
            "POSITION": 24
          },
          "indices": 26,
          "material": 0,
          "mode": 4
        }
      ]
    },
    {
      "name": "Rebar Bar H12 : Shape Rebar Shape 2 [386837]_[319274]001",
      "primitives": [
        {
          "attributes": {
            "NORMAL": 28,
            "POSITION": 27
          },
          "indices": 29,
          "material": 0,
          "mode": 4
        }
      ]
    },
    {
      "name": "Rebar Bar H12 : Shape Rebar Shape 2 [386838]_[319274]001",
      "primitives": [
        {
          "attributes": {
            "NORMAL": 31,
            "POSITION": 30
          },
          "indices": 32,
          "material": 0,
          "mode": 4
        }
      ]
    },
    {
      "name": "Rebar Bar H12 : Shape Rebar Shape 2 [386839]_[319274]001",
      "primitives": [
        {
          "attributes": {
            "NORMAL": 34,
            "POSITION": 33
          },
          "indices": 35,
          "material": 0,
          "mode": 4
        }
      ]
    },
    {
      "name": "Rebar Bar H8 : Shape 52 [386939]_[319274]001",
      "primitives": [
        {
          "attributes": {
            "NORMAL": 37,
            "POSITION": 36
          },
          "indices": 38,
          "material": 0,
          "mode": 4
        }
      ]
    },
    {
      "name": "Rebar Bar H16 : Shape Rebar Shape 2 [386940]_[319274]001",
      "primitives": [
        {
          "attributes": {
            "NORMAL": 40,
            "POSITION": 39
          },
          "indices": 41,
          "material": 0,
          "mode": 4
        }
      ]
    },
    {
      "name": "Rebar Bar H16 : Shape Rebar Shape 2 [386941]_[319274]001",
      "primitives": [
        {
          "attributes": {
            "NORMAL": 43,
            "POSITION": 42
          },
          "indices": 44,
          "material": 0,
          "mode": 4
        }
      ]
    }
  ],
  "nodes": [
    {
      "matrix": [
        0.0254,
        0.0,
        0.0,
        0.0,
        0.0,
        0.0254,
        0.0,
        0.0,
        0.0,
        0.0,
        0.0254,
        0.0,
        0.0,
        0.0,
        0.0,
        1.0
      ],
      "mesh": 0,
      "name": "Rebar Bar H16 : Shape Rebar Shape 2 [386815]_[319274]001"
    },
    {
      "children": [
        0
      ],
      "matrix": [
        -5.245366310191457e-07,
        -12.0,
        -0.0,
        0.0,
        -2.1316282072803006e-14,
        9.31764232026825e-22,
        -12.0,
        0.0,
        12.0,
        -5.245366310191457e-07,
        -2.1316282072803006e-14,
        0.0,
        0.962248435974121,
        3.542339205932617,
        -4.775162017822265,
        1.0
      ]
    },
    {
      "matrix": [
        0.0254,
        0.0,
        0.0,
        0.0,
        0.0,
        0.0254,
        0.0,
        0.0,
        0.0,
        0.0,
        0.0254,
        0.0,
        0.0,
        0.0,
        0.0,
        1.0
      ],
      "mesh": 1,
      "name": "Rebar Bar H16 : Shape Rebar Shape 2 [386816]_[319274]001"
    },
    {
      "children": [
        2
      ],
      "matrix": [
        -5.245366310191457e-07,
        -12.0,
        -0.0,
        0.0,
        -2.1316282072803006e-14,
        9.31764232026825e-22,
        -12.0,
        0.0,
        12.0,
        -5.245366310191457e-07,
        -2.1316282072803006e-14,
        0.0,
        0.962248435974121,
        3.5428093322753904,
        -4.701871917724609,
        1.0
      ]
    },
    {
      "matrix": [
        0.0254,
        0.0,
        0.0,
        0.0,
        0.0,
        0.0254,
        0.0,
        0.0,
        0.0,
        0.0,
        0.0254,
        0.0,
        0.0,
        0.0,
        0.0,
        1.0
      ],
      "mesh": 2,
      "name": "Rebar Bar H12 : Shape Rebar Shape 2 [386817]_[319274]001"
    },
    {
      "children": [
        4
      ],
      "matrix": [
        -5.245366310191457e-07,
        12.0,
        0.0,
        0.0,
        3.877306868583716e-14,
        1.694824614616355e-21,
        -12.0,
        0.0,
        -12.0,
        -5.245366310191457e-07,
        -3.877306868583716e-14,
        0.0,
        0.9642483139038086,
        2.3568065307617188,
        -4.624280529785156,
        1.0
      ]
    },
    {
      "matrix": [
        0.0254,
        0.0,
        0.0,
        0.0,
        0.0,
        0.0254,
        0.0,
        0.0,
        0.0,
        0.0,
        0.0254,
        0.0,
        0.0,
        0.0,
        0.0,
        1.0
      ],
      "mesh": 3,
      "name": "Rebar Bar H12 : Shape Rebar Shape 2 [386818]_[319274]001"
    },
    {
      "children": [
        6
      ],
      "matrix": [
        -5.245366310191457e-07,
        12.0,
        0.0,
        0.0,
        2.1316282072803006e-14,
        9.31764232026825e-22,
        -12.0,
        0.0,
        -12.0,
        -5.245366310191457e-07,
        -2.1316282072803006e-14,
        0.0,
        0.9642483139038086,
        2.357871969604492,
        -4.699947616577148,
        1.0
      ]
    },
    {
      "matrix": [
        0.0254,
        0.0,
        0.0,
        0.0,
        0.0,
        0.0254,
        0.0,
        0.0,
        0.0,
        0.0,
        0.0254,
        0.0,
        0.0,
        0.0,
        0.0,
        1.0
      ],
      "mesh": 4,
      "name": "Rebar Bar H12 : Shape Rebar Shape 2 [386819]_[319274]001"
    },
    {
      "children": [
        8
      ],
      "matrix": [
        -5.245366310191457e-07,
        12.0,
        0.0,
        0.0,
        2.1316282072803006e-14,
        9.31764232026825e-22,
        -12.0,
        0.0,
        -12.0,
        -5.245366310191457e-07,
        -2.1316282072803006e-14,
        0.0,
        0.9642483139038086,
        2.3571615478515624,
        -4.776681304931641,
        1.0
      ]
    },
    {
      "matrix": [
        0.0254,
        0.0,
        0.0,
        0.0,
        0.0,
        0.0254,
        0.0,
        0.0,
        0.0,
        0.0,
        0.0254,
        0.0,
        0.0,
        0.0,
        0.0,
        1.0
      ],
      "mesh": 5,
      "name": "Rebar Bar H8 : Shape 52 [386833]_[319274]001"
    },
    {
      "children": [
        10
      ],
      "matrix": [
        -3.7090342175361e-07,
        8.485280990600586,
        8.485280990600586,
        0.0,
        8.485280990600586,
        5.999999523162842,
        -5.999999046325684,
        0.0,
        -8.485280990600586,
        5.999999523162842,
        -6.0,
        0.0,
        -2.9857520553588865,
        2.872511293029785,
        -0.6749170886993408,
        1.0
      ]
    },
    {
      "matrix": [
        0.0254,
        0.0,
        0.0,
        0.0,
        0.0,
        0.0254,
        0.0,
        0.0,
        0.0,
        0.0,
        0.0254,
        0.0,
        0.0,
        0.0,
        0.0,
        1.0
      ],
      "mesh": 6,
      "name": "Rebar Bar H16 : Shape Rebar Shape 2 [386834]_[319274]001"
    },
    {
      "children": [
        12
      ],
      "matrix": [
        -5.245366310191457e-07,
        -12.0,
        -0.0,
        0.0,
        -2.1316282072803006e-14,
        9.31764232026825e-22,
        -12.0,
        0.0,
        12.0,
        -5.245366310191457e-07,
        -2.1316282072803006e-14,
        0.0,
        0.962248435974121,
        3.5428093322753904,
        -0.626701427078247,
        1.0
      ]
    },
    {
      "matrix": [
        0.0254,
        0.0,
        0.0,
        0.0,
        0.0,
        0.0254,
        0.0,
        0.0,
        0.0,
        0.0,
        0.0254,
        0.0,
        0.0,
        0.0,
        0.0,
        1.0
      ],
      "mesh": 7,
      "name": "Rebar Bar H16 : Shape Rebar Shape 2 [386835]_[319274]001"
    },
    {
      "children": [
        14
      ],
      "matrix": [
        -5.245366310191457e-07,
        -12.0,
        -0.0,
        0.0,
        -2.1316282072803006e-14,
        9.31764232026825e-22,
        -12.0,
        0.0,
        12.0,
        -5.245366310191457e-07,
        -2.1316282072803006e-14,
        0.0,
        0.962248435974121,
        3.542339205932617,
        -0.7751621326446533,
        1.0
      ]
    },
    {
      "matrix": [
        0.0254,
        0.0,
        0.0,
        0.0,
        0.0,
        0.0254,
        0.0,
        0.0,
        0.0,
        0.0,
        0.0254,
        0.0,
        0.0,
        0.0,
        0.0,
        1.0
      ],
      "mesh": 8,
      "name": "Rebar Bar H16 : Shape Rebar Shape 2 [386836]_[319274]001"
    },
    {
      "children": [
        16
      ],
      "matrix": [
        -5.245366310191457e-07,
        -12.0,
        -0.0,
        0.0,
        -2.1316282072803006e-14,
        9.31764232026825e-22,
        -12.0,
        0.0,
        12.0,
        -5.245366310191457e-07,
        -2.1316282072803006e-14,
        0.0,
        0.962248435974121,
        3.5428093322753904,
        -0.7018714027404784,
        1.0
      ]
    },
    {
      "matrix": [
        0.0254,
        0.0,
        0.0,
        0.0,
        0.0,
        0.0254,
        0.0,
        0.0,
        0.0,
        0.0,
        0.0254,
        0.0,
        0.0,
        0.0,
        0.0,
        1.0
      ],
      "mesh": 9,
      "name": "Rebar Bar H12 : Shape Rebar Shape 2 [386837]_[319274]001"
    },
    {
      "children": [
        18
      ],
      "matrix": [
        -5.245366310191457e-07,
        12.0,
        0.0,
        0.0,
        3.877306868583716e-14,
        1.694824614616355e-21,
        -12.0,
        0.0,
        -12.0,
        -5.245366310191457e-07,
        -3.877306868583716e-14,
        0.0,
        0.9642483139038086,
        2.3568065307617188,
        -0.6242804992675781,
        1.0
      ]
    },
    {
      "matrix": [
        0.0254,
        0.0,
        0.0,
        0.0,
        0.0,
        0.0254,
        0.0,
        0.0,
        0.0,
        0.0,
        0.0254,
        0.0,
        0.0,
        0.0,
        0.0,
        1.0
      ],
      "mesh": 10,
      "name": "Rebar Bar H12 : Shape Rebar Shape 2 [386838]_[319274]001"
    },
    {
      "children": [
        20
      ],
      "matrix": [
        -5.245366310191457e-07,
        12.0,
        0.0,
        0.0,
        2.1316282072803006e-14,
        9.31764232026825e-22,
        -12.0,
        0.0,
        -12.0,
        -5.245366310191457e-07,
        -2.1316282072803006e-14,
        0.0,
        0.9642483139038086,
        2.357871969604492,
        -0.6999478282928466,
        1.0
      ]
    },
    {
      "matrix": [
        0.0254,
        0.0,
        0.0,
        0.0,
        0.0,
        0.0254,
        0.0,
        0.0,
        0.0,
        0.0,
        0.0254,
        0.0,
        0.0,
        0.0,
        0.0,
        1.0
      ],
      "mesh": 11,
      "name": "Rebar Bar H12 : Shape Rebar Shape 2 [386839]_[319274]001"
    },
    {
      "children": [
        22
      ],
      "matrix": [
        -5.245366310191457e-07,
        12.0,
        0.0,
        0.0,
        2.1316282072803006e-14,
        9.31764232026825e-22,
        -12.0,
        0.0,
        -12.0,
        -5.245366310191457e-07,
        -2.1316282072803006e-14,
        0.0,
        0.9642483139038086,
        2.3571615478515624,
        -0.7766807899475098,
        1.0
      ]
    },
    {
      "matrix": [
        0.0254,
        0.0,
        0.0,
        0.0,
        0.0,
        0.0254,
        0.0,
        0.0,
        0.0,
        0.0,
        0.0254,
        0.0,
        0.0,
        0.0,
        0.0,
        1.0
      ],
      "mesh": 12,
      "name": "Rebar Bar H8 : Shape 52 [386939]_[319274]001"
    },
    {
      "children": [
        24
      ],
      "matrix": [
        8.485280990600586,
        8.485280990600586,
        0.0,
        0.0,
        0.0,
        0.0,
        -12.0,
        0.0,
        -8.485280990600586,
        8.485280990600586,
        0.0,
        0.0,
        -3.113956051635742,
        2.872511293029785,
        -0.8547125579833984,
        1.0
      ]
    },
    {
      "matrix": [
        0.0254,
        0.0,
        0.0,
        0.0,
        0.0,
        0.0254,
        0.0,
        0.0,
        0.0,
        0.0,
        0.0254,
        0.0,
        0.0,
        0.0,
        0.0,
        1.0
      ],
      "mesh": 13,
      "name": "Rebar Bar H16 : Shape Rebar Shape 2 [386940]_[319274]001"
    },
    {
      "children": [
        26
      ],
      "matrix": [
        -5.245366310191457e-07,
        -12.0,
        -0.0,
        0.0,
        1.938653434291858e-14,
        -8.474123073081775e-22,
        -12.0,
        0.0,
        12.0,
        -5.245366310191457e-07,
        1.938653434291858e-14,
        0.0,
        -3.062713636779785,
        3.539753317260742,
        -4.802712274169922,
        1.0
      ]
    },
    {
      "matrix": [
        0.0254,
        0.0,
        0.0,
        0.0,
        0.0,
        0.0254,
        0.0,
        0.0,
        0.0,
        0.0,
        0.0254,
        0.0,
        0.0,
        0.0,
        0.0,
        1.0
      ],
      "mesh": 14,
      "name": "Rebar Bar H16 : Shape Rebar Shape 2 [386941]_[319274]001"
    },
    {
      "children": [
        28
      ],
      "matrix": [
        -5.245366310191457e-07,
        -12.0,
        -0.0,
        0.0,
        1.938653434291858e-14,
        -8.474123073081775e-22,
        -12.0,
        0.0,
        12.0,
        -5.245366310191457e-07,
        1.938653434291858e-14,
        0.0,
        -3.2157176696777343,
        3.539753317260742,
        -4.802712274169922,
        1.0
      ]
    }
  ],
  "scenes": [
    {
      "nodes": [
        1,
        3,
        5,
        7,
        9,
        11,
        13,
        15,
        17,
        19,
        21,
        23,
        25,
        27,
        29
      ]
    }
  ]
}
