{
  "accessors": [
    {
      "bufferView": 0,
      "componentType": 5126,
      "count": 4409,
      "max": [
        2.6246728897094727,
        0.02624797821044922,
        0.02624797821044922
      ],
      "min": [
        -9.5367431640625e-07,
        -13.818897247314453,
        -0.026247024536132813
      ],
      "type": "VEC3"
    },
    {
      "bufferView": 0,
      "byteOffset": 12,
      "componentType": 5126,
      "count": 4409,
      "type": "VEC3"
    },
    {
      "bufferView": 0,
      "byteOffset": 24,
      "componentType": 5126,
      "count": 4409,
      "type": "VEC2"
    },
    {
      "bufferView": 1,
      "componentType": 5125,
      "count": 22644,
      "type": "SCALAR"
    },
    {
      "bufferView": 2,
      "componentType": 5126,
      "count": 4296,
      "max": [
        1.9685039520263672,
        0.019685745239257813,
        0.019685745239257813
      ],
      "min": [
        0.0,
        -13.825459480285645,
        -0.019685039296746254
      ],
      "type": "VEC3"
    },
    {
      "bufferView": 2,
      "byteOffset": 12,
      "componentType": 5126,
      "count": 4296,
      "type": "VEC3"
    },
    {
      "bufferView": 2,
      "byteOffset": 24,
      "componentType": 5126,
      "count": 4296,
      "type": "VEC2"
    },
    {
      "bufferView": 3,
      "componentType": 5125,
      "count": 21672,
      "type": "SCALAR"
    },
    {
      "bufferView": 4,
      "componentType": 5126,
      "count": 4296,
      "max": [
        1.9685039520263672,
        0.019685745239257813,
        0.019685745239257813
      ],
      "min": [
        0.0,
        -13.825459480285645,
        -0.019685039296746254
      ],
      "type": "VEC3"
    },
    {
      "bufferView": 4,
      "byteOffset": 12,
      "componentType": 5126,
      "count": 4296,
      "type": "VEC3"
    },
    {
      "bufferView": 4,
      "byteOffset": 24,
      "componentType": 5126,
      "count": 4296,
      "type": "VEC2"
    },
    {
      "bufferView": 5,
      "componentType": 5125,
      "count": 21672,
      "type": "SCALAR"
    },
    {
      "bufferView": 6,
      "componentType": 5126,
      "count": 4296,
      "max": [
        1.9685044288635254,
        0.019685745239257813,
        0.019685745239257813
      ],
      "min": [
        0.0,
        -13.825459480285645,
        -0.019685039296746254
      ],
      "type": "VEC3"
    },
    {
      "bufferView": 6,
      "byteOffset": 12,
      "componentType": 5126,
      "count": 4296,
      "type": "VEC3"
    },
    {
      "bufferView": 6,
      "byteOffset": 24,
      "componentType": 5126,
      "count": 4296,
      "type": "VEC2"
    },
    {
      "bufferView": 7,
      "componentType": 5125,
      "count": 21672,
      "type": "SCALAR"
    },
    {
      "bufferView": 8,
      "componentType": 5126,
      "count": 29088,
      "max": [
        0.3770313262939453,
        12.152230262756348,
        0.4964103698730469
      ],
      "min": [
        -0.6008930206298828,
        -0.013123512268066406,
        -0.48115015029907227
      ],
      "type": "VEC3"
    },
    {
      "bufferView": 8,
      "byteOffset": 12,
      "componentType": 5126,
      "count": 29088,
      "type": "VEC3"
    },
    {
      "bufferView": 8,
      "byteOffset": 24,
      "componentType": 5126,
      "count": 29088,
      "type": "VEC2"
    },
    {
      "bufferView": 9,
      "componentType": 5125,
      "count": 127818,
      "type": "SCALAR"
    },
    {
      "bufferView": 10,
      "componentType": 5126,
      "count": 4409,
      "max": [
        2.6246728897094727,
        0.02624797821044922,
        0.02624678611755371
      ],
      "min": [
        -9.5367431640625e-07,
        -13.818897247314453,
        -0.026247262954711914
      ],
      "type": "VEC3"
    },
    {
      "bufferView": 10,
      "byteOffset": 12,
      "componentType": 5126,
      "count": 4409,
      "type": "VEC3"
    },
    {
      "bufferView": 10,
      "byteOffset": 24,
      "componentType": 5126,
      "count": 4409,
      "type": "VEC2"
    },
    {
      "bufferView": 11,
      "componentType": 5125,
      "count": 22644,
      "type": "SCALAR"
    },
    {
      "bufferView": 12,
      "componentType": 5126,
      "count": 4409,
      "max": [
        2.6246728897094727,
        0.02624797821044922,
        0.02624678611755371
      ],
      "min": [
        -9.5367431640625e-07,
        -13.818897247314453,
        -0.026247262954711914
      ],
      "type": "VEC3"
    },
    {
      "bufferView": 12,
      "byteOffset": 12,
      "componentType": 5126,
      "count": 4409,
      "type": "VEC3"
    },
    {
      "bufferView": 12,
      "byteOffset": 24,
      "componentType": 5126,
      "count": 4409,
      "type": "VEC2"
    },
    {
      "bufferView": 13,
      "componentType": 5125,
      "count": 22644,
      "type": "SCALAR"
    },
    {
      "bufferView": 14,
      "componentType": 5126,
      "count": 4409,
      "max": [
        2.6246728897094727,
        0.02624797821044922,
        0.02624671906232834
      ],
      "min": [
        -9.5367431640625e-07,
        -13.818897247314453,
        -0.026247501373291016
      ],
      "type": "VEC3"
    },
    {
      "bufferView": 14,
      "byteOffset": 12,
      "componentType": 5126,
      "count": 4409,
      "type": "VEC3"
    },
    {
      "bufferView": 14,
      "byteOffset": 24,
      "componentType": 5126,
      "count": 4409,
      "type": "VEC2"
    },
    {
      "bufferView": 15,
      "componentType": 5125,
      "count": 22644,
      "type": "SCALAR"
    },
    {
      "bufferView": 16,
      "componentType": 5126,
      "count": 4296,
      "max": [
        1.9685044288635254,
        0.019685745239257813,
        0.01968550682067871
      ],
      "min": [
        0.0,
        -13.825459480285645,
        -0.01968526840209961
      ],
      "type": "VEC3"
    },
    {
      "bufferView": 16,
      "byteOffset": 12,
      "componentType": 5126,
      "count": 4296,
      "type": "VEC3"
    },
    {
      "bufferView": 16,
      "byteOffset": 24,
      "componentType": 5126,
      "count": 4296,
      "type": "VEC2"
    },
    {
      "bufferView": 17,
      "componentType": 5125,
      "count": 21672,
      "type": "SCALAR"
    },
    {
      "bufferView": 18,
      "componentType": 5126,
      "count": 4296,
      "max": [
        1.9685044288635254,
        0.019685745239257813,
        0.01968550682067871
      ],
      "min": [
        0.0,
        -13.825459480285645,
        -0.01968526840209961
      ],
      "type": "VEC3"
    },
    {
      "bufferView": 18,
      "byteOffset": 12,
      "componentType": 5126,
      "count": 4296,
      "type": "VEC3"
    },
    {
      "bufferView": 18,
      "byteOffset": 24,
      "componentType": 5126,
      "count": 4296,
      "type": "VEC2"
    },
    {
      "bufferView": 19,
      "componentType": 5125,
      "count": 21672,
      "type": "SCALAR"
    },
    {
      "bufferView": 20,
      "componentType": 5126,
      "count": 4296,
      "max": [
        1.9685049057006836,
        0.019685745239257813,
        0.01968526840209961
      ],
      "min": [
        0.0,
        -13.825459480285645,
        -0.01968550682067871
      ],
      "type": "VEC3"
    },
    {
      "bufferView": 20,
      "byteOffset": 12,
      "componentType": 5126,
      "count": 4296,
      "type": "VEC3"
    },
    {
      "bufferView": 20,
      "byteOffset": 24,
      "componentType": 5126,
      "count": 4296,
      "type": "VEC2"
    },
    {
      "bufferView": 21,
      "componentType": 5125,
      "count": 21672,
      "type": "SCALAR"
    },
    {
      "bufferView": 22,
      "componentType": 5126,
      "count": 4409,
      "max": [
        2.6246721744537354,
        0.02624797821044922,
        0.026247024536132813
      ],
      "min": [
        0.0,
        -13.818897247314453,
        -0.026247024536132813
      ],
      "type": "VEC3"
    },
    {
      "bufferView": 22,
      "byteOffset": 12,
      "componentType": 5126,
      "count": 4409,
      "type": "VEC3"
    },
    {
      "bufferView": 22,
      "byteOffset": 24,
      "componentType": 5126,
      "count": 4409,
      "type": "VEC2"
    },
    {
      "bufferView": 23,
      "componentType": 5125,
      "count": 22644,
      "type": "SCALAR"
    },
    {
      "bufferView": 24,
      "componentType": 5126,
      "count": 4409,
      "max": [
        2.6246721744537354,
        0.02624797821044922,
        0.026247024536132813
      ],
      "min": [
        0.0,
        -13.818897247314453,
        -0.026247024536132813
      ],
      "type": "VEC3"
    },
    {
      "bufferView": 24,
      "byteOffset": 12,
      "componentType": 5126,
      "count": 4409,
      "type": "VEC3"
    },
    {
      "bufferView": 24,
      "byteOffset": 24,
      "componentType": 5126,
      "count": 4409,
      "type": "VEC2"
    },
    {
      "bufferView": 25,
      "componentType": 5125,
      "count": 22644,
      "type": "SCALAR"
    }
  ],
  "asset": {
    "version": "2.0"
  },
  "bufferViews": [
    {
      "buffer": 0,
      "byteLength": 141088,
      "byteStride": 32,
      "target": 34962
    },
    {
      "buffer": 0,
      "byteLength": 90576,
      "byteOffset": 141088,
      "target": 34963
    },
    {
      "buffer": 0,
      "byteLength": 137472,
      "byteOffset": 231664,
      "byteStride": 32,
      "target": 34962
    },
    {
      "buffer": 0,
      "byteLength": 86688,
      "byteOffset": 369136,
      "target": 34963
    },
    {
      "buffer": 0,
      "byteLength": 137472,
      "byteOffset": 455824,
      "byteStride": 32,
      "target": 34962
    },
    {
      "buffer": 0,
      "byteLength": 86688,
      "byteOffset": 593296,
      "target": 34963
    },
    {
      "buffer": 0,
      "byteLength": 137472,
      "byteOffset": 679984,
      "byteStride": 32,
      "target": 34962
    },
    {
      "buffer": 0,
      "byteLength": 86688,
      "byteOffset": 817456,
      "target": 34963
    },
    {
      "buffer": 0,
      "byteLength": 930816,
      "byteOffset": 904144,
      "byteStride": 32,
      "target": 34962
    },
    {
      "buffer": 0,
      "byteLength": 511272,
      "byteOffset": 1834960,
      "target": 34963
    },
    {
      "buffer": 0,
      "byteLength": 141088,
      "byteOffset": 2346232,
      "byteStride": 32,
      "target": 34962
    },
    {
      "buffer": 0,
      "byteLength": 90576,
      "byteOffset": 2487320,
      "target": 34963
    },
    {
      "buffer": 0,
      "byteLength": 141088,
      "byteOffset": 2577896,
      "byteStride": 32,
      "target": 34962
    },
    {
      "buffer": 0,
      "byteLength": 90576,
      "byteOffset": 2718984,
      "target": 34963
    },
    {
      "buffer": 0,
      "byteLength": 141088,
      "byteOffset": 2809560,
      "byteStride": 32,
      "target": 34962
    },
    {
      "buffer": 0,
      "byteLength": 90576,
      "byteOffset": 2950648,
      "target": 34963
    },
    {
      "buffer": 0,
      "byteLength": 137472,
      "byteOffset": 3041224,
      "byteStride": 32,
      "target": 34962
    },
    {
      "buffer": 0,
      "byteLength": 86688,
      "byteOffset": 3178696,
      "target": 34963
    },
    {
      "buffer": 0,
      "byteLength": 137472,
      "byteOffset": 3265384,
      "byteStride": 32,
      "target": 34962
    },
    {
      "buffer": 0,
      "byteLength": 86688,
      "byteOffset": 3402856,
      "target": 34963
    },
    {
      "buffer": 0,
      "byteLength": 137472,
      "byteOffset": 3489544,
      "byteStride": 32,
      "target": 34962
    },
    {
      "buffer": 0,
      "byteLength": 86688,
      "byteOffset": 3627016,
      "target": 34963
    },
    {
      "buffer": 0,
      "byteLength": 141088,
      "byteOffset": 3713704,
      "byteStride": 32,
      "target": 34962
    },
    {
      "buffer": 0,
      "byteLength": 90576,
      "byteOffset": 3854792,
      "target": 34963
    },
    {
      "buffer": 0,
      "byteLength": 141088,
      "byteOffset": 3945368,
      "byteStride": 32,
      "target": 34962
    },
    {
      "buffer": 0,
      "byteLength": 90576,
      "byteOffset": 4086456,
      "target": 34963
    }
  ],
  "buffers": [
    {
      "byteLength": 4177032,
      "uri": "22-09-2025.bin"
    }
  ],
  "extensionsUsed": [
    "KHR_texture_transform"
  ],
  "images": [
    {
      "uri": "Steel_Rebar___B500A__B_or_Cbasecolortexture.jpeg"
    }
  ],
  "materials": [
    {
      "name": "Steel_Rebar___B500A__B_or_C",
      "pbrMetallicRoughness": {
        "baseColorFactor": [
          0.4391480088233948,
          0.21267099678516388,
          0.1043580025434494,
          1.0
        ],
        "baseColorTexture": {
          "extensions": {
            "KHR_texture_transform": {
              "scale": [
                0.8466669917106628,
                0.8466669917106628
              ]
            }
          },
          "index": 0
        },
        "metallicFactor": 0.0,
        "roughnessFactor": 0.4242599904537201
      }
    }
  ],
  "meshes": [
    {
      "name": "Rebar Bar H16 : Shape Rebar Shape 2 [386942]_[319274]001",
      "primitives": [
        {
          "attributes": {
            "NORMAL": 1,
            "POSITION": 0,
            "TEXCOORD_0": 2
          },
          "indices": 3,
          "material": 0,
          "mode": 4
        }
      ]
    },
    {
      "name": "Rebar Bar H12 : Shape Rebar Shape 2 [386943]_[319274]001",
      "primitives": [
        {
          "attributes": {
            "NORMAL": 5,
            "POSITION": 4,
            "TEXCOORD_0": 6
          },
          "indices": 7,
          "material": 0,
          "mode": 4
        }
      ]
    },
    {
      "name": "Rebar Bar H12 : Shape Rebar Shape 2 [386944]_[319274]001",
      "primitives": [
        {
          "attributes": {
            "NORMAL": 9,
            "POSITION": 8,
            "TEXCOORD_0": 10
          },
          "indices": 11,
          "material": 0,
          "mode": 4
        }
      ]
    },
    {
      "name": "Rebar Bar H12 : Shape Rebar Shape 2 [386945]_[319274]001",
      "primitives": [
        {
          "attributes": {
            "NORMAL": 13,
            "POSITION": 12,
            "TEXCOORD_0": 14
          },
          "indices": 15,
          "material": 0,
          "mode": 4
        }
      ]
    },
    {
      "name": "Rebar Bar H8 : Shape 52 [386960]_[319274]001",
      "primitives": [
        {
          "attributes": {
            "NORMAL": 17,
            "POSITION": 16,
            "TEXCOORD_0": 18
          },
          "indices": 19,
          "material": 0,
          "mode": 4
        }
      ]
    },
    {
      "name": "Rebar Bar H16 : Shape Rebar Shape 2 [386961]_[319274]001",
      "primitives": [
        {
          "attributes": {
            "NORMAL": 21,
            "POSITION": 20,
            "TEXCOORD_0": 22
          },
          "indices": 23,
          "material": 0,
          "mode": 4
        }
      ]
    },
    {
      "name": "Rebar Bar H16 : Shape Rebar Shape 2 [386962]_[319274]001",
      "primitives": [
        {
          "attributes": {
            "NORMAL": 25,
            "POSITION": 24,
            "TEXCOORD_0": 26
          },
          "indices": 27,
          "material": 0,
          "mode": 4
        }
      ]
    },
    {
      "name": "Rebar Bar H16 : Shape Rebar Shape 2 [386963]_[319274]001",
      "primitives": [
        {
          "attributes": {
            "NORMAL": 29,
            "POSITION": 28,
            "TEXCOORD_0": 30
          },
          "indices": 31,
          "material": 0,
          "mode": 4
        }
      ]
    },
    {
      "name": "Rebar Bar H12 : Shape Rebar Shape 2 [386964]_[319274]001",
      "primitives": [
        {
          "attributes": {
            "NORMAL": 33,
            "POSITION": 32,
            "TEXCOORD_0": 34
          },
          "indices": 35,
          "material": 0,
          "mode": 4
        }
      ]
    },
    {
      "name": "Rebar Bar H12 : Shape Rebar Shape 2 [386965]_[319274]001",
      "primitives": [
        {
          "attributes": {
            "NORMAL": 37,
            "POSITION": 36,
            "TEXCOORD_0": 38
          },
          "indices": 39,
          "material": 0,
          "mode": 4
        }
      ]
    },
    {
      "name": "Rebar Bar H12 : Shape Rebar Shape 2 [386966]_[319274]001",
      "primitives": [
        {
          "attributes": {
            "NORMAL": 41,
            "POSITION": 40,
            "TEXCOORD_0": 42
          },
          "indices": 43,
          "material": 0,
          "mode": 4
        }
      ]
    },
    {
      "name": "Rebar Bar H16 : Shape Rebar Shape 2 [387756]_[319274]001",
      "primitives": [
        {
          "attributes": {
            "NORMAL": 45,
            "POSITION": 44,
            "TEXCOORD_0": 46
          },
          "indices": 47,
          "material": 0,
          "mode": 4
        }
      ]
    },
    {
      "name": "Rebar Bar H16 : Shape Rebar Shape 2 [387883]_[319274]001",
      "primitives": [
        {
          "attributes": {
            "NORMAL": 49,
            "POSITION": 48,
            "TEXCOORD_0": 50
          },
          "indices": 51,
          "material": 0,
          "mode": 4
        }
      ]
    }
  ],
  "nodes": [
    {
      "matrix": [
        0.0254,
        0.0,
        0.0,
        0.0,
        0.0,
        0.0254,
        0.0,
        0.0,
        0.0,
        0.0,
        0.0254,
        0.0,
        0.0,
        0.0,
        0.0,
        1.0
      ],
      "mesh": 0,
      "name": "Rebar Bar H16 : Shape Rebar Shape 2 [386942]_[319274]001"
    },
    {
      "children": [
        0
      ],
      "matrix": [
        -5.245366310191457e-07,
        -12.0,
        -0.0,
        0.0,
        1.938653434291858e-14,
        -8.474123073081775e-22,
        -12.0,
        0.0,
        12.0,
        -5.245366310191457e-07,
        1.938653434291858e-14,
        0.0,
        -3.136673075866699,
        3.539753317260742,
        -4.802712274169922,
        1.0
      ]
    },
    {
      "matrix": [
        0.0254,
        0.0,
        0.0,
        0.0,
        0.0,
        0.0254,
        0.0,
        0.0,
        0.0,
        0.0,
        0.0254,
        0.0,
        0.0,
        0.0,
        0.0,
        1.0
      ],
      "mesh": 1,
      "name": "Rebar Bar H12 : Shape Rebar Shape 2 [386943]_[319274]001"
    },
    {
      "children": [
        2
      ],
      "matrix": [
        -5.245366310191457e-07,
        12.0,
        0.0,
        0.0,
        1.938653434291858e-14,
        8.474123073081775e-22,
        -12.0,
        0.0,
        -12.0,
        -5.245366310191457e-07,
        -1.938653434291858e-14,
        0.0,
        -3.0629281585693358,
        2.359889482116699,
        -4.804712539672852,
        1.0
      ]
    },
    {
      "matrix": [
        0.0254,
        0.0,
        0.0,
        0.0,
        0.0,
        0.0254,
        0.0,
        0.0,
        0.0,
        0.0,
        0.0254,
        0.0,
        0.0,
        0.0,
        0.0,
        1.0
      ],
      "mesh": 2,
      "name": "Rebar Bar H12 : Shape Rebar Shape 2 [386944]_[319274]001"
    },
    {
      "children": [
        4
      ],
      "matrix": [
        -5.245366310191457e-07,
        12.0,
        0.0,
        0.0,
        1.938653434291858e-14,
        8.474123073081775e-22,
        -12.0,
        0.0,
        -12.0,
        -5.245366310191457e-07,
        -1.938653434291858e-14,
        0.0,
        -3.139336866760254,
        2.3611533584594726,
        -4.804712539672852,
        1.0
      ]
    },
    {
      "matrix": [
        0.0254,
        0.0,
        0.0,
        0.0,
        0.0,
        0.0254,
        0.0,
        0.0,
        0.0,
        0.0,
        0.0254,
        0.0,
        0.0,
        0.0,
        0.0,
        1.0
      ],
      "mesh": 3,
      "name": "Rebar Bar H12 : Shape Rebar Shape 2 [386945]_[319274]001"
    },
    {
      "children": [
        6
      ],
      "matrix": [
        -5.245366310191457e-07,
        12.0,
        0.0,
        0.0,
        1.938653434291858e-14,
        8.474123073081775e-22,
        -12.0,
        0.0,
        -12.0,
        -5.245366310191457e-07,
        -1.938653434291858e-14,
        0.0,
        -3.2174565170288085,
        2.3602288024902345,
        -4.804712539672852,
        1.0
      ]
    },
    {
      "matrix": [
        0.0254,
        0.0,
        0.0,
        0.0,
        0.0,
        0.0254,
        0.0,
        0.0,
        0.0,
        0.0,
        0.0254,
        0.0,
        0.0,
        0.0,
        0.0,
        1.0
      ],
      "mesh": 4,
      "name": "Rebar Bar H8 : Shape 52 [386960]_[319274]001"
    },
    {
      "children": [
        8
      ],
      "matrix": [
        8.485280990600586,
        8.485280990600586,
        0.0,
        0.0,
        0.0,
        0.0,
        -12.0,
        0.0,
        -8.485280990600586,
        8.485280990600586,
        0.0,
        0.0,
        0.8860437850952148,
        2.872511293029785,
        -0.8547125579833984,
        1.0
      ]
    },
    {
      "matrix": [
        0.0254,
        0.0,
        0.0,
        0.0,
        0.0,
        0.0254,
        0.0,
        0.0,
        0.0,
        0.0,
        0.0254,
        0.0,
        0.0,
        0.0,
        0.0,
        1.0
      ],
      "mesh": 5,
      "name": "Rebar Bar H16 : Shape Rebar Shape 2 [386961]_[319274]001"
    },
    {
      "children": [
        10
      ],
      "matrix": [
        -5.245366310191457e-07,
        -12.0,
        -0.0,
        0.0,
        1.938653434291858e-14,
        -8.474123073081775e-22,
        -12.0,
        0.0,
        12.0,
        -5.245366310191457e-07,
        1.938653434291858e-14,
        0.0,
        0.9372865875244141,
        3.539753317260742,
        -4.802712274169922,
        1.0
      ]
    },
    {
      "matrix": [
        0.0254,
        0.0,
        0.0,
        0.0,
        0.0,
        0.0254,
        0.0,
        0.0,
        0.0,
        0.0,
        0.0254,
        0.0,
        0.0,
        0.0,
        0.0,
        1.0
      ],
      "mesh": 6,
      "name": "Rebar Bar H16 : Shape Rebar Shape 2 [386962]_[319274]001"
    },
    {
      "children": [
        12
      ],
      "matrix": [
        -5.245366310191457e-07,
        -12.0,
        -0.0,
        0.0,
        1.938653434291858e-14,
        -8.474123073081775e-22,
        -12.0,
        0.0,
        12.0,
        -5.245366310191457e-07,
        1.938653434291858e-14,
        0.0,
        0.7842825061798095,
        3.539753317260742,
        -4.802712274169922,
        1.0
      ]
    },
    {
      "matrix": [
        0.0254,
        0.0,
        0.0,
        0.0,
        0.0,
        0.0254,
        0.0,
        0.0,
        0.0,
        0.0,
        0.0254,
        0.0,
        0.0,
        0.0,
        0.0,
        1.0
      ],
      "mesh": 7,
      "name": "Rebar Bar H16 : Shape Rebar Shape 2 [386963]_[319274]001"
    },
    {
      "children": [
        14
      ],
      "matrix": [
        -5.245366310191457e-07,
        -12.0,
        -0.0,
        0.0,
        1.938653434291858e-14,
        -8.474123073081775e-22,
        -12.0,
        0.0,
        12.0,
        -5.245366310191457e-07,
        1.938653434291858e-14,
        0.0,
        0.8633267608642577,
        3.539753317260742,
        -4.802712274169922,
        1.0
      ]
    },
    {
      "matrix": [
        0.0254,
        0.0,
        0.0,
        0.0,
        0.0,
        0.0254,
        0.0,
        0.0,
        0.0,
        0.0,
        0.0254,
        0.0,
        0.0,
        0.0,
        0.0,
        1.0
      ],
      "mesh": 8,
      "name": "Rebar Bar H12 : Shape Rebar Shape 2 [386964]_[319274]001"
    },
    {
      "children": [
        16
      ],
      "matrix": [
        -5.245366310191457e-07,
        12.0,
        0.0,
        0.0,
        1.938653434291858e-14,
        8.474123073081775e-22,
        -12.0,
        0.0,
        -12.0,
        -5.245366310191457e-07,
        -1.938653434291858e-14,
        0.0,
        0.9370720657348632,
        2.359889482116699,
        -4.804712539672852,
        1.0
      ]
    },
    {
      "matrix": [
        0.0254,
        0.0,
        0.0,
        0.0,
        0.0,
        0.0254,
        0.0,
        0.0,
        0.0,
        0.0,
        0.0254,
        0.0,
        0.0,
        0.0,
        0.0,
        1.0
      ],
      "mesh": 9,
      "name": "Rebar Bar H12 : Shape Rebar Shape 2 [386965]_[319274]001"
    },
    {
      "children": [
        18
      ],
      "matrix": [
        -5.245366310191457e-07,
        12.0,
        0.0,
        0.0,
        1.938653434291858e-14,
        8.474123073081775e-22,
        -12.0,
        0.0,
        -12.0,
        -5.245366310191457e-07,
        -1.938653434291858e-14,
        0.0,
        0.8606633575439453,
        2.3611533584594726,
        -4.804712539672852,
        1.0
      ]
    },
    {
      "matrix": [
        0.0254,
        0.0,
        0.0,
        0.0,
        0.0,
        0.0254,
        0.0,
        0.0,
        0.0,
        0.0,
        0.0254,
        0.0,
        0.0,
        0.0,
        0.0,
        1.0
      ],
      "mesh": 10,
      "name": "Rebar Bar H12 : Shape Rebar Shape 2 [386966]_[319274]001"
    },
    {
      "children": [
        20
      ],
      "matrix": [
        -5.245366310191457e-07,
        12.0,
        0.0,
        0.0,
        1.938653434291858e-14,
        8.474123073081775e-22,
        -12.0,
        0.0,
        -12.0,
        -5.245366310191457e-07,
        -1.938653434291858e-14,
        0.0,
        0.7825435134887695,
        2.3602288024902345,
        -4.804712539672852,
        1.0
      ]
    },
    {
      "matrix": [
        0.0254,
        0.0,
        0.0,
        0.0,
        0.0,
        0.0254,
        0.0,
        0.0,
        0.0,
        0.0,
        0.0254,
        0.0,
        0.0,
        0.0,
        0.0,
        1.0
      ],
      "mesh": 11,
      "name": "Rebar Bar H16 : Shape Rebar Shape 2 [387756]_[319274]001"
    },
    {
      "children": [
        22
      ],
      "matrix": [
        -5.245366310191457e-07,
        -12.0,
        -0.0,
        0.0,
        1.938653434291858e-14,
        -8.474123073081775e-22,
        -12.0,
        0.0,
        12.0,
        -5.245366310191457e-07,
        1.938653434291858e-14,
        0.0,
        -3.24089016418457,
        0.44307130813598633,
        -4.802712274169922,
        1.0
      ]
    },
    {
      "matrix": [
        0.0254,
        0.0,
        0.0,
        0.0,
        0.0,
        0.0254,
        0.0,
        0.0,
        0.0,
        0.0,
        0.0254,
        0.0,
        0.0,
        0.0,
        0.0,
        1.0
      ],
      "mesh": 12,
      "name": "Rebar Bar H16 : Shape Rebar Shape 2 [387883]_[319274]001"
    },
    {
      "children": [
        24
      ],
      "matrix": [
        -5.245366310191457e-07,
        -12.0,
        -0.0,
        0.0,
        1.938653434291858e-14,
        -8.474123073081775e-22,
        -12.0,
        0.0,
        12.0,
        -5.245366310191457e-07,
        1.938653434291858e-14,
        0.0,
        -3.138828758239746,
        0.4409741493225097,
        -4.802712274169922,
        1.0
      ]
    }
  ],
  "samplers": [
    {
      "magFilter": 9729,
      "minFilter": 9729,
      "wrapS": 10497,
      "wrapT": 10497
    }
  ],
  "scenes": [
    {
      "nodes": [
        1,
        3,
        5,
        7,
        9,
        11,
        13,
        15,
        17,
        19,
        21,
        23,
        25
      ]
    }
  ],
  "textures": [
    {
      "name": "texture_source0_sampler0",
      "sampler": 0,
      "source": 0
    }
  ]
}
