{
  "accessors": [
    {
      "bufferView": 0,
      "componentType": 5126,
      "count": 4409,
      "max": [
        2.6246721744537354,
        0.02624797821044922,
        0.02624678611755371
      ],
      "min": [
        0.0,
        -13.818897247314453,
        -0.026247262954711914
      ],
      "type": "VEC3"
    },
    {
      "bufferView": 0,
      "byteOffset": 12,
      "componentType": 5126,
      "count": 4409,
      "type": "VEC3"
    },
    {
      "bufferView": 0,
      "byteOffset": 24,
      "componentType": 5126,
      "count": 4409,
      "type": "VEC2"
    },
    {
      "bufferView": 1,
      "componentType": 5125,
      "count": 22644,
      "type": "SCALAR"
    },
    {
      "bufferView": 2,
      "componentType": 5126,
      "count": 4409,
      "max": [
        2.6246721744537354,
        0.02624797821044922,
        0.02624678611755371
      ],
      "min": [
        0.0,
        -13.818897247314453,
        -0.026247262954711914
      ],
      "type": "VEC3"
    },
    {
      "bufferView": 2,
      "byteOffset": 12,
      "componentType": 5126,
      "count": 4409,
      "type": "VEC3"
    },
    {
      "bufferView": 2,
      "byteOffset": 24,
      "componentType": 5126,
      "count": 4409,
      "type": "VEC2"
    },
    {
      "bufferView": 3,
      "componentType": 5125,
      "count": 22644,
      "type": "SCALAR"
    },
    {
      "bufferView": 4,
      "componentType": 5126,
      "count": 4409,
      "max": [
        2.6246719360351563,
        0.02624797821044922,
        0.02624678611755371
      ],
      "min": [
        -1.1920928955078125e-07,
        -13.818897247314453,
        -0.026247262954711914
      ],
      "type": "VEC3"
    },
    {
      "bufferView": 4,
      "byteOffset": 12,
      "componentType": 5126,
      "count": 4409,
      "type": "VEC3"
    },
    {
      "bufferView": 4,
      "byteOffset": 24,
      "componentType": 5126,
      "count": 4409,
      "type": "VEC2"
    },
    {
      "bufferView": 5,
      "componentType": 5125,
      "count": 22644,
      "type": "SCALAR"
    },
    {
      "bufferView": 6,
      "componentType": 5126,
      "count": 4409,
      "max": [
        2.6246726512908936,
        0.02624671906232834,
        0.02624671906232834
      ],
      "min": [
        0.0,
        -0.02624797821044922,
        -13.81889820098877
      ],
      "type": "VEC3"
    },
    {
      "bufferView": 6,
      "byteOffset": 12,
      "componentType": 5126,
      "count": 4409,
      "type": "VEC3"
    },
    {
      "bufferView": 6,
      "byteOffset": 24,
      "componentType": 5126,
      "count": 4409,
      "type": "VEC2"
    },
    {
      "bufferView": 7,
      "componentType": 5125,
      "count": 22644,
      "type": "SCALAR"
    },
    {
      "bufferView": 8,
      "componentType": 5126,
      "count": 4409,
      "max": [
        2.6246726512908936,
        0.02624671906232834,
        0.02624671906232834
      ],
      "min": [
        0.0,
        -0.02624797821044922,
        -13.81889820098877
      ],
      "type": "VEC3"
    },
    {
      "bufferView": 8,
      "byteOffset": 12,
      "componentType": 5126,
      "count": 4409,
      "type": "VEC3"
    },
    {
      "bufferView": 8,
      "byteOffset": 24,
      "componentType": 5126,
      "count": 4409,
      "type": "VEC2"
    },
    {
      "bufferView": 9,
      "componentType": 5125,
      "count": 22644,
      "type": "SCALAR"
    },
    {
      "bufferView": 10,
      "componentType": 5126,
      "count": 4409,
      "max": [
        2.6246728897094727,
        0.02624671906232834,
        0.02624671906232834
      ],
      "min": [
        0.0,
        -0.02624797821044922,
        -13.81889820098877
      ],
      "type": "VEC3"
    },
    {
      "bufferView": 10,
      "byteOffset": 12,
      "componentType": 5126,
      "count": 4409,
      "type": "VEC3"
    },
    {
      "bufferView": 10,
      "byteOffset": 24,
      "componentType": 5126,
      "count": 4409,
      "type": "VEC2"
    },
    {
      "bufferView": 11,
      "componentType": 5125,
      "count": 22644,
      "type": "SCALAR"
    },
    {
      "bufferView": 12,
      "componentType": 5126,
      "count": 4409,
      "max": [
        2.6246726512908936,
        0.02624671906232834,
        0.02624671906232834
      ],
      "min": [
        0.0,
        -0.02624797821044922,
        -13.81889820098877
      ],
      "type": "VEC3"
    },
    {
      "bufferView": 12,
      "byteOffset": 12,
      "componentType": 5126,
      "count": 4409,
      "type": "VEC3"
    },
    {
      "bufferView": 12,
      "byteOffset": 24,
      "componentType": 5126,
      "count": 4409,
      "type": "VEC2"
    },
    {
      "bufferView": 13,
      "componentType": 5125,
      "count": 22644,
      "type": "SCALAR"
    },
    {
      "bufferView": 14,
      "componentType": 5126,
      "count": 4409,
      "max": [
        2.6246726512908936,
        0.02624678611755371,
        0.02624671906232834
      ],
      "min": [
        0.0,
        -0.02624797821044922,
        -13.81889820098877
      ],
      "type": "VEC3"
    },
    {
      "bufferView": 14,
      "byteOffset": 12,
      "componentType": 5126,
      "count": 4409,
      "type": "VEC3"
    },
    {
      "bufferView": 14,
      "byteOffset": 24,
      "componentType": 5126,
      "count": 4409,
      "type": "VEC2"
    },
    {
      "bufferView": 15,
      "componentType": 5125,
      "count": 22644,
      "type": "SCALAR"
    },
    {
      "bufferView": 16,
      "componentType": 5126,
      "count": 4409,
      "max": [
        2.6246728897094727,
        0.02624678611755371,
        0.02624671906232834
      ],
      "min": [
        0.0,
        -0.02624797821044922,
        -13.81889820098877
      ],
      "type": "VEC3"
    },
    {
      "bufferView": 16,
      "byteOffset": 12,
      "componentType": 5126,
      "count": 4409,
      "type": "VEC3"
    },
    {
      "bufferView": 16,
      "byteOffset": 24,
      "componentType": 5126,
      "count": 4409,
      "type": "VEC2"
    },
    {
      "bufferView": 17,
      "componentType": 5125,
      "count": 22644,
      "type": "SCALAR"
    }
  ],
  "asset": {
    "version": "2.0"
  },
  "bufferViews": [
    {
      "buffer": 0,
      "byteLength": 141088,
      "byteStride": 32,
      "target": 34962
    },
    {
      "buffer": 0,
      "byteLength": 90576,
      "byteOffset": 141088,
      "target": 34963
    },
    {
      "buffer": 0,
      "byteLength": 141088,
      "byteOffset": 231664,
      "byteStride": 32,
      "target": 34962
    },
    {
      "buffer": 0,
      "byteLength": 90576,
      "byteOffset": 372752,
      "target": 34963
    },
    {
      "buffer": 0,
      "byteLength": 141088,
      "byteOffset": 463328,
      "byteStride": 32,
      "target": 34962
    },
    {
      "buffer": 0,
      "byteLength": 90576,
      "byteOffset": 604416,
      "target": 34963
    },
    {
      "buffer": 0,
      "byteLength": 141088,
      "byteOffset": 694992,
      "byteStride": 32,
      "target": 34962
    },
    {
      "buffer": 0,
      "byteLength": 90576,
      "byteOffset": 836080,
      "target": 34963
    },
    {
      "buffer": 0,
      "byteLength": 141088,
      "byteOffset": 926656,
      "byteStride": 32,
      "target": 34962
    },
    {
      "buffer": 0,
      "byteLength": 90576,
      "byteOffset": 1067744,
      "target": 34963
    },
    {
      "buffer": 0,
      "byteLength": 141088,
      "byteOffset": 1158320,
      "byteStride": 32,
      "target": 34962
    },
    {
      "buffer": 0,
      "byteLength": 90576,
      "byteOffset": 1299408,
      "target": 34963
    },
    {
      "buffer": 0,
      "byteLength": 141088,
      "byteOffset": 1389984,
      "byteStride": 32,
      "target": 34962
    },
    {
      "buffer": 0,
      "byteLength": 90576,
      "byteOffset": 1531072,
      "target": 34963
    },
    {
      "buffer": 0,
      "byteLength": 141088,
      "byteOffset": 1621648,
      "byteStride": 32,
      "target": 34962
    },
    {
      "buffer": 0,
      "byteLength": 90576,
      "byteOffset": 1762736,
      "target": 34963
    },
    {
      "buffer": 0,
      "byteLength": 141088,
      "byteOffset": 1853312,
      "byteStride": 32,
      "target": 34962
    },
    {
      "buffer": 0,
      "byteLength": 90576,
      "byteOffset": 1994400,
      "target": 34963
    }
  ],
  "buffers": [
    {
      "byteLength": 2084976,
      "uri": "23-09-2025.bin"
    }
  ],
  "extensionsUsed": [
    "KHR_texture_transform"
  ],
  "images": [
    {
      "uri": "Steel_Rebar___B500A__B_or_Cbasecolortexture.jpeg"
    }
  ],
  "materials": [
    {
      "name": "Steel_Rebar___B500A__B_or_C",
      "pbrMetallicRoughness": {
        "baseColorFactor": [
          0.4391480088233948,
          0.21267099678516388,
          0.1043580025434494,
          1.0
        ],
        "baseColorTexture": {
          "extensions": {
            "KHR_texture_transform": {
              "scale": [
                0.8466669917106628,
                0.8466669917106628
              ]
            }
          },
          "index": 0
        },
        "metallicFactor": 0.0,
        "roughnessFactor": 0.4242599904537201
      }
    }
  ],
  "meshes": [
    {
      "name": "Rebar Bar H16 : Shape Rebar Shape 2 [388510]_[319274]001",
      "primitives": [
        {
          "attributes": {
            "NORMAL": 1,
            "POSITION": 0,
            "TEXCOORD_0": 2
          },
          "indices": 3,
          "material": 0,
          "mode": 4
        }
      ]
    },
    {
      "name": "Rebar Bar H16 : Shape Rebar Shape 2 [388511]_[319274]001",
      "primitives": [
        {
          "attributes": {
            "NORMAL": 5,
            "POSITION": 4,
            "TEXCOORD_0": 6
          },
          "indices": 7,
          "material": 0,
          "mode": 4
        }
      ]
    },
    {
      "name": "Rebar Bar H16 : Shape Rebar Shape 2 [388512]_[319274]001",
      "primitives": [
        {
          "attributes": {
            "NORMAL": 9,
            "POSITION": 8,
            "TEXCOORD_0": 10
          },
          "indices": 11,
          "material": 0,
          "mode": 4
        }
      ]
    },
    {
      "name": "Rebar Bar H16 : Shape Rebar Shape 2 [388943]_[319274]001",
      "primitives": [
        {
          "attributes": {
            "NORMAL": 13,
            "POSITION": 12,
            "TEXCOORD_0": 14
          },
          "indices": 15,
          "material": 0,
          "mode": 4
        }
      ]
    },
    {
      "name": "Rebar Bar H16 : Shape Rebar Shape 2 [389158]_[319274]001",
      "primitives": [
        {
          "attributes": {
            "NORMAL": 17,
            "POSITION": 16,
            "TEXCOORD_0": 18
          },
          "indices": 19,
          "material": 0,
          "mode": 4
        }
      ]
    },
    {
      "name": "Rebar Bar H16 : Shape Rebar Shape 2 [389255]_[319274]001",
      "primitives": [
        {
          "attributes": {
            "NORMAL": 21,
            "POSITION": 20,
            "TEXCOORD_0": 22
          },
          "indices": 23,
          "material": 0,
          "mode": 4
        }
      ]
    },
    {
      "name": "Rebar Bar H16 : Shape Rebar Shape 2 [389686]_[319274]001",
      "primitives": [
        {
          "attributes": {
            "NORMAL": 25,
            "POSITION": 24,
            "TEXCOORD_0": 26
          },
          "indices": 27,
          "material": 0,
          "mode": 4
        }
      ]
    },
    {
      "name": "Rebar Bar H16 : Shape Rebar Shape 2 [389687]_[319274]001",
      "primitives": [
        {
          "attributes": {
            "NORMAL": 29,
            "POSITION": 28,
            "TEXCOORD_0": 30
          },
          "indices": 31,
          "material": 0,
          "mode": 4
        }
      ]
    },
    {
      "name": "Rebar Bar H16 : Shape Rebar Shape 2 [389688]_[319274]001",
      "primitives": [
        {
          "attributes": {
            "NORMAL": 33,
            "POSITION": 32,
            "TEXCOORD_0": 34
          },
          "indices": 35,
          "material": 0,
          "mode": 4
        }
      ]
    }
  ],
  "nodes": [
    {
      "matrix": [
        0.0254,
        0.0,
        0.0,
        0.0,
        0.0,
        0.0254,
        0.0,
        0.0,
        0.0,
        0.0,
        0.0254,
        0.0,
        0.0,
        0.0,
        0.0,
        1.0
      ],
      "mesh": 0,
      "name": "Rebar Bar H16 : Shape Rebar Shape 2 [388510]_[319274]001"
    },
    {
      "children": [
        0
      ],
      "matrix": [
        -5.245366310191457e-07,
        -12.0,
        -0.0,
        0.0,
        1.938653434291858e-14,
        -8.474123073081775e-22,
        -12.0,
        0.0,
        12.0,
        -5.245366310191457e-07,
        1.938653434291858e-14,
        0.0,
        0.759109914779663,
        0.44307130813598633,
        -4.802712274169922,
        1.0
      ]
    },
    {
      "matrix": [
        0.0254,
        0.0,
        0.0,
        0.0,
        0.0,
        0.0254,
        0.0,
        0.0,
        0.0,
        0.0,
        0.0254,
        0.0,
        0.0,
        0.0,
        0.0,
        1.0
      ],
      "mesh": 1,
      "name": "Rebar Bar H16 : Shape Rebar Shape 2 [388511]_[319274]001"
    },
    {
      "children": [
        2
      ],
      "matrix": [
        -5.245366310191457e-07,
        -12.0,
        -0.0,
        0.0,
        1.938653434291858e-14,
        -8.474123073081775e-22,
        -12.0,
        0.0,
        12.0,
        -5.245366310191457e-07,
        1.938653434291858e-14,
        0.0,
        0.861171466064453,
        0.4409741493225097,
        -4.802712274169922,
        1.0
      ]
    },
    {
      "matrix": [
        0.0254,
        0.0,
        0.0,
        0.0,
        0.0,
        0.0254,
        0.0,
        0.0,
        0.0,
        0.0,
        0.0254,
        0.0,
        0.0,
        0.0,
        0.0,
        1.0
      ],
      "mesh": 2,
      "name": "Rebar Bar H16 : Shape Rebar Shape 2 [388512]_[319274]001"
    },
    {
      "children": [
        4
      ],
      "matrix": [
        -5.245366310191457e-07,
        -12.0,
        -0.0,
        0.0,
        1.938653434291858e-14,
        -8.474123073081775e-22,
        -12.0,
        0.0,
        12.0,
        -5.245366310191457e-07,
        1.938653434291858e-14,
        0.0,
        0.960436627960205,
        0.4427217655181885,
        -4.802712274169922,
        1.0
      ]
    },
    {
      "matrix": [
        0.0254,
        0.0,
        0.0,
        0.0,
        0.0,
        0.0254,
        0.0,
        0.0,
        0.0,
        0.0,
        0.0254,
        0.0,
        0.0,
        0.0,
        0.0,
        1.0
      ],
      "mesh": 3,
      "name": "Rebar Bar H16 : Shape Rebar Shape 2 [388943]_[319274]001"
    },
    {
      "children": [
        6
      ],
      "matrix": [
        -5.245366310191457e-07,
        -12.0,
        -0.0,
        0.0,
        -2.1316282072803006e-14,
        9.31764232026825e-22,
        -12.0,
        0.0,
        12.0,
        -5.245366310191457e-07,
        -2.1316282072803006e-14,
        0.0,
        0.962248435974121,
        0.44231941604614256,
        -4.601593154907226,
        1.0
      ]
    },
    {
      "matrix": [
        0.0254,
        0.0,
        0.0,
        0.0,
        0.0,
        0.0254,
        0.0,
        0.0,
        0.0,
        0.0,
        0.0254,
        0.0,
        0.0,
        0.0,
        0.0,
        1.0
      ],
      "mesh": 4,
      "name": "Rebar Bar H16 : Shape Rebar Shape 2 [389158]_[319274]001"
    },
    {
      "children": [
        8
      ],
      "matrix": [
        -5.245366310191457e-07,
        -12.0,
        -0.0,
        0.0,
        -2.1316282072803006e-14,
        9.31764232026825e-22,
        -12.0,
        0.0,
        12.0,
        -5.245366310191457e-07,
        -2.1316282072803006e-14,
        0.0,
        0.962248435974121,
        0.44191091384887693,
        -4.799322946166992,
        1.0
      ]
    },
    {
      "matrix": [
        0.0254,
        0.0,
        0.0,
        0.0,
        0.0,
        0.0254,
        0.0,
        0.0,
        0.0,
        0.0,
        0.0254,
        0.0,
        0.0,
        0.0,
        0.0,
        1.0
      ],
      "mesh": 5,
      "name": "Rebar Bar H16 : Shape Rebar Shape 2 [389255]_[319274]001"
    },
    {
      "children": [
        10
      ],
      "matrix": [
        -5.245366310191457e-07,
        -12.0,
        -0.0,
        0.0,
        -2.1316282072803006e-14,
        9.31764232026825e-22,
        -12.0,
        0.0,
        12.0,
        -5.245366310191457e-07,
        -2.1316282072803006e-14,
        0.0,
        0.962248435974121,
        0.4427280151367187,
        -4.70127505493164,
        1.0
      ]
    },
    {
      "matrix": [
        0.0254,
        0.0,
        0.0,
        0.0,
        0.0,
        0.0254,
        0.0,
        0.0,
        0.0,
        0.0,
        0.0254,
        0.0,
        0.0,
        0.0,
        0.0,
        1.0
      ],
      "mesh": 6,
      "name": "Rebar Bar H16 : Shape Rebar Shape 2 [389686]_[319274]001"
    },
    {
      "children": [
        12
      ],
      "matrix": [
        -5.245366310191457e-07,
        -12.0,
        -0.0,
        0.0,
        -2.1316282072803006e-14,
        9.31764232026825e-22,
        -12.0,
        0.0,
        12.0,
        -5.245366310191457e-07,
        -2.1316282072803006e-14,
        0.0,
        0.962248435974121,
        0.44231941604614256,
        -0.6015933181762695,
        1.0
      ]
    },
    {
      "matrix": [
        0.0254,
        0.0,
        0.0,
        0.0,
        0.0,
        0.0254,
        0.0,
        0.0,
        0.0,
        0.0,
        0.0254,
        0.0,
        0.0,
        0.0,
        0.0,
        1.0
      ],
      "mesh": 7,
      "name": "Rebar Bar H16 : Shape Rebar Shape 2 [389687]_[319274]001"
    },
    {
      "children": [
        14
      ],
      "matrix": [
        -5.245366310191457e-07,
        -12.0,
        -0.0,
        0.0,
        -2.1316282072803006e-14,
        9.31764232026825e-22,
        -12.0,
        0.0,
        12.0,
        -5.245366310191457e-07,
        -2.1316282072803006e-14,
        0.0,
        0.962248435974121,
        0.44191091384887693,
        -0.799322915649414,
        1.0
      ]
    },
    {
      "matrix": [
        0.0254,
        0.0,
        0.0,
        0.0,
        0.0,
        0.0254,
        0.0,
        0.0,
        0.0,
        0.0,
        0.0254,
        0.0,
        0.0,
        0.0,
        0.0,
        1.0
      ],
      "mesh": 8,
      "name": "Rebar Bar H16 : Shape Rebar Shape 2 [389688]_[319274]001"
    },
    {
      "children": [
        16
      ],
      "matrix": [
        -5.245366310191457e-07,
        -12.0,
        -0.0,
        0.0,
        -2.1316282072803006e-14,
        9.31764232026825e-22,
        -12.0,
        0.0,
        12.0,
        -5.245366310191457e-07,
        -2.1316282072803006e-14,
        0.0,
        0.962248435974121,
        0.4427280151367187,
        -0.7012752182006836,
        1.0
      ]
    }
  ],
  "samplers": [
    {
      "magFilter": 9729,
      "minFilter": 9729,
      "wrapS": 10497,
      "wrapT": 10497
    }
  ],
  "scenes": [
    {
      "nodes": [
        1,
        3,
        5,
        7,
        9,
        11,
        13,
        15,
        17
      ]
    }
  ],
  "textures": [
    {
      "name": "texture_source0_sampler0",
      "sampler": 0,
      "source": 0
    }
  ]
}
