{
  "accessors": [
    {
      "bufferView": 0,
      "componentType": 5126,
      "count": 57824,
      "max": [
        0.2624664306640625,
        13.933137893676758,
        13.927164077758789
      ],
      "min": [
        -9.5367431640625e-07,
        -0.016404200345277786,
        -0.016405105590820313
      ],
      "type": "VEC3"
    },
    {
      "bufferView": 0,
      "byteOffset": 12,
      "componentType": 5126,
      "count": 57824,
      "type": "VEC3"
    },
    {
      "bufferView": 1,
      "componentType": 5125,
      "count": 288096,
      "type": "SCALAR"
    },
    {
      "bufferView": 2,
      "componentType": 5126,
      "count": 57744,
      "max": [
        0.2624673843383789,
        13.933137893676758,
        0.016404200345277786
      ],
      "min": [
        0.0,
        -0.016404390335083008,
        -13.927164077758789
      ],
      "type": "VEC3"
    },
    {
      "bufferView": 2,
      "byteOffset": 12,
      "componentType": 5126,
      "count": 57744,
      "type": "VEC3"
    },
    {
      "bufferView": 3,
      "componentType": 5125,
      "count": 287616,
      "type": "SCALAR"
    },
    {
      "bufferView": 4,
      "componentType": 5126,
      "count": 64080,
      "max": [
        0.36089324951171875,
        13.883925437927246,
        0.016405105590820313
      ],
      "min": [
        0.0,
        -0.016404200345277786,
        -13.881629943847656
      ],
      "type": "VEC3"
    },
    {
      "bufferView": 4,
      "byteOffset": 12,
      "componentType": 5126,
      "count": 64080,
      "type": "VEC3"
    },
    {
      "bufferView": 5,
      "componentType": 5125,
      "count": 305232,
      "type": "SCALAR"
    }
  ],
  "asset": {
    "version": "2.0"
  },
  "bufferViews": [
    {
      "buffer": 0,
      "byteLength": 1850368,
      "byteStride": 32,
      "target": 34962
    },
    {
      "buffer": 0,
      "byteLength": 1152384,
      "byteOffset": 1850368,
      "target": 34963
    },
    {
      "buffer": 0,
      "byteLength": 1847808,
      "byteOffset": 3002752,
      "byteStride": 32,
      "target": 34962
    },
    {
      "buffer": 0,
      "byteLength": 1150464,
      "byteOffset": 4850560,
      "target": 34963
    },
    {
      "buffer": 0,
      "byteLength": 2050560,
      "byteOffset": 6001024,
      "byteStride": 32,
      "target": 34962
    },
    {
      "buffer": 0,
      "byteLength": 1220928,
      "byteOffset": 8051584,
      "target": 34963
    }
  ],
  "buffers": [
    {
      "byteLength": 9272512,
      "uri": "24-09-2025.bin"
    }
  ],
  "materials": [
    {
      "name": "fallback Material",
      "pbrMetallicRoughness": {
        "baseColorFactor": [
          0.0,
          0.0,
          0.0,
          1.0
        ]
      }
    }
  ],
  "meshes": [
    {
      "name": "Rebar Bar H10 [396458]_[319274]001",
      "primitives": [
        {
          "attributes": {
            "NORMAL": 1,
            "POSITION": 0
          },
          "indices": 2,
          "material": 0,
          "mode": 4
        }
      ]
    },
    {
      "name": "Rebar Bar H10 [396459]_[319274]001",
      "primitives": [
        {
          "attributes": {
            "NORMAL": 4,
            "POSITION": 3
          },
          "indices": 5,
          "material": 0,
          "mode": 4
        }
      ]
    },
    {
      "name": "Rebar Bar H10 : Shape Rebar Shape 5 [396558]_[319274]001",
      "primitives": [
        {
          "attributes": {
            "NORMAL": 7,
            "POSITION": 6
          },
          "indices": 8,
          "material": 0,
          "mode": 4
        }
      ]
    }
  ],
  "nodes": [
    {
      "matrix": [
        0.0254,
        0.0,
        0.0,
        0.0,
        0.0,
        0.0254,
        0.0,
        0.0,
        0.0,
        0.0,
        0.0254,
        0.0,
        0.0,
        0.0,
        0.0,
        1.0
      ],
      "mesh": 0,
      "name": "Rebar Bar H10 [396458]_[319274]001"
    },
    {
      "children": [
        0
      ],
      "matrix": [
        -5.245366310191457e-07,
        -12.0,
        -0.0,
        0.0,
        3.951631485837237e-29,
        -1.7273130407560587e-36,
        -12.0,
        0.0,
        12.0,
        -5.245366310191457e-07,
        3.951631485837237e-29,
        0.0,
        -3.2597514160156247,
        2.954999862670898,
        -0.5807124221801757,
        1.0
      ]
    },
    {
      "matrix": [
        0.0254,
        0.0,
        0.0,
        0.0,
        0.0,
        0.0254,
        0.0,
        0.0,
        0.0,
        0.0,
        0.0254,
        0.0,
        0.0,
        0.0,
        0.0,
        1.0
      ],
      "mesh": 1,
      "name": "Rebar Bar H10 [396459]_[319274]001"
    },
    {
      "children": [
        2
      ],
      "matrix": [
        -5.245366310191457e-07,
        -12.0,
        -0.0,
        0.0,
        -1.938653434291858e-14,
        8.474123073081775e-22,
        -12.0,
        0.0,
        12.0,
        -5.245366310191457e-07,
        -1.938653434291858e-14,
        0.0,
        0.9802483062744141,
        2.96500002746582,
        -0.5807124221801757,
        1.0
      ]
    },
    {
      "matrix": [
        0.0254,
        0.0,
        0.0,
        0.0,
        0.0,
        0.0254,
        0.0,
        0.0,
        0.0,
        0.0,
        0.0254,
        0.0,
        0.0,
        0.0,
        0.0,
        1.0
      ],
      "mesh": 2,
      "name": "Rebar Bar H10 : Shape Rebar Shape 5 [396558]_[319274]001"
    },
    {
      "children": [
        4
      ],
      "matrix": [
        -5.245366310191457e-07,
        12.0,
        0.0,
        0.0,
        5.271384008025205e-29,
        2.3041952877604167e-36,
        -12.0,
        0.0,
        -12.0,
        -5.245366310191457e-07,
        -5.271384008025205e-29,
        0.0,
        -3.2458722244262694,
        2.8650001235961913,
        -0.5957123786926269,
        1.0
      ]
    }
  ],
  "scenes": [
    {
      "nodes": [
        1,
        3,
        5
      ]
    }
  ]
}
