{
  "accessors": [
    {
      "bufferView": 0,
      "componentType": 5126,
      "count": 25844,
      "max": [
        1.1471467018127441,
        5.555446624755859,
        0.019685089588165283
      ],
      "min": [
        0.0,
        -0.019685039296746254,
        -5.555446624755859
      ],
      "type": "VEC3"
    },
    {
      "bufferView": 0,
      "byteOffset": 12,
      "componentType": 5126,
      "count": 25844,
      "type": "VEC3"
    },
    {
      "bufferView": 1,
      "componentType": 5125,
      "count": 128232,
      "type": "SCALAR"
    },
    {
      "bufferView": 2,
      "componentType": 5126,
      "count": 25844,
      "max": [
        1.147146224975586,
        5.555446624755859,
        5.555446147918701
      ],
      "min": [
        0.0,
        -0.019685039296746254,
        -0.01968526840209961
      ],
      "type": "VEC3"
    },
    {
      "bufferView": 2,
      "byteOffset": 12,
      "componentType": 5126,
      "count": 25844,
      "type": "VEC3"
    },
    {
      "bufferView": 3,
      "componentType": 5125,
      "count": 128232,
      "type": "SCALAR"
    }
  ],
  "asset": {
    "version": "2.0"
  },
  "bufferViews": [
    {
      "buffer": 0,
      "byteLength": 827008,
      "byteStride": 32,
      "target": 34962
    },
    {
      "buffer": 0,
      "byteLength": 512928,
      "byteOffset": 827008,
      "target": 34963
    },
    {
      "buffer": 0,
      "byteLength": 827008,
      "byteOffset": 1339936,
      "byteStride": 32,
      "target": 34962
    },
    {
      "buffer": 0,
      "byteLength": 512928,
      "byteOffset": 2166944,
      "target": 34963
    }
  ],
  "buffers": [
    {
      "byteLength": 2679872,
      "uri": "12-10-2025.bin"
    }
  ],
  "materials": [
    {
      "name": "Steel_Rebar___B500A__B_or_C",
      "pbrMetallicRoughness": {
        "baseColorFactor": [
          0.4391480088233948,
          0.21267099678516388,
          0.1043580025434494,
          1.0
        ],
        "metallicFactor": 0.0,
        "roughnessFactor": 0.4242599904537201
      }
    }
  ],
  "meshes": [
    {
      "name": "Rebar Bar H12 : Shape 21 [355494]_[319274]001",
      "primitives": [
        {
          "attributes": {
            "NORMAL": 1,
            "POSITION": 0
          },
          "indices": 2,
          "material": 0,
          "mode": 4
        }
      ]
    },
    {
      "name": "Rebar Bar H12 : Shape 21 [355495]_[319274]001",
      "primitives": [
        {
          "attributes": {
            "NORMAL": 4,
            "POSITION": 3
          },
          "indices": 5,
          "material": 0,
          "mode": 4
        }
      ]
    }
  ],
  "nodes": [
    {
      "matrix": [
        0.0254,
        0.0,
        0.0,
        0.0,
        0.0,
        0.0254,
        0.0,
        0.0,
        0.0,
        0.0,
        0.0254,
        0.0,
        0.0,
        0.0,
        0.0,
        1.0
      ],
      "mesh": 0,
      "name": "Rebar Bar H12 : Shape 21 [355494]_[319274]001"
    },
    {
      "children": [
        0
      ],
      "matrix": [
        -5.245366310191457e-07,
        -12.0,
        -0.0,
        0.0,
        0.0,
        0.0,
        -12.0,
        0.0,
        12.0,
        -5.245366310191457e-07,
        0.0,
        0.0,
        -0.19610166873931884,
        -2.050000064086914,
        -0.15706240921020506,
        1.0
      ]
    },
    {
      "matrix": [
        0.0254,
        0.0,
        0.0,
        0.0,
        0.0,
        0.0254,
        0.0,
        0.0,
        0.0,
        0.0,
        0.0254,
        0.0,
        0.0,
        0.0,
        0.0,
        1.0
      ],
      "mesh": 1,
      "name": "Rebar Bar H12 : Shape 21 [355495]_[319274]001"
    },
    {
      "children": [
        2
      ],
      "matrix": [
        -5.245366310191457e-07,
        -12.0,
        -0.0,
        0.0,
        0.0,
        0.0,
        -12.0,
        0.0,
        12.0,
        -5.245366310191457e-07,
        0.0,
        0.0,
        -1.8834017059326171,
        -2.050000064086914,
        -0.15706240921020506,
        1.0
      ]
    }
  ],
  "scenes": [
    {
      "nodes": [
        1,
        3
      ]
    }
  ]
}
