{
  "accessors": [
    {
      "bufferView": 0,
      "componentType": 5126,
      "count": 18012,
      "max": [
        0.4264082908630371,
        0.5510413646697998,
        0.016404200345277786
      ],
      "min": [
        -0.5122776031494141,
        -0.38686418533325195,
        -7.228092193603516
      ],
      "type": "VEC3"
    },
    {
      "bufferView": 0,
      "byteOffset": 12,
      "componentType": 5126,
      "count": 18012,
      "type": "VEC3"
    },
    {
      "bufferView": 1,
      "componentType": 5125,
      "count": 78408,
      "type": "SCALAR"
    },
    {
      "bufferView": 2,
      "componentType": 5126,
      "count": 2093,
      "max": [
        7.61154842376709,
        1.043957233428955,
        0.03280840069055557
      ],
      "min": [
        0.0,
        -0.03280840069055557,
        -1.043956995010376
      ],
      "type": "VEC3"
    },
    {
      "bufferView": 2,
      "byteOffset": 12,
      "componentType": 5126,
      "count": 2093,
      "type": "VEC3"
    },
    {
      "bufferView": 3,
      "componentType": 5125,
      "count": 10665,
      "type": "SCALAR"
    },
    {
      "bufferView": 4,
      "componentType": 5126,
      "count": 2093,
      "max": [
        7.611548900604248,
        1.043957233428955,
        1.043957233428955
      ],
      "min": [
        0.0,
        -0.03280840069055557,
        -0.03280840069055557
      ],
      "type": "VEC3"
    },
    {
      "bufferView": 4,
      "byteOffset": 12,
      "componentType": 5126,
      "count": 2093,
      "type": "VEC3"
    },
    {
      "bufferView": 5,
      "componentType": 5125,
      "count": 10665,
      "type": "SCALAR"
    },
    {
      "bufferView": 6,
      "componentType": 5126,
      "count": 2093,
      "max": [
        7.611548900604248,
        0.032808780670166016,
        1.043957233428955
      ],
      "min": [
        0.0,
        -1.0439565181732178,
        -0.03280840069055557
      ],
      "type": "VEC3"
    },
    {
      "bufferView": 6,
      "byteOffset": 12,
      "componentType": 5126,
      "count": 2093,
      "type": "VEC3"
    },
    {
      "bufferView": 7,
      "componentType": 5125,
      "count": 10665,
      "type": "SCALAR"
    },
    {
      "bufferView": 8,
      "componentType": 5126,
      "count": 2093,
      "max": [
        7.61154842376709,
        0.032808780670166016,
        0.03280840069055557
      ],
      "min": [
        0.0,
        -1.0439565181732178,
        -1.043956995010376
      ],
      "type": "VEC3"
    },
    {
      "bufferView": 8,
      "byteOffset": 12,
      "componentType": 5126,
      "count": 2093,
      "type": "VEC3"
    },
    {
      "bufferView": 9,
      "componentType": 5125,
      "count": 10665,
      "type": "SCALAR"
    },
    {
      "bufferView": 10,
      "componentType": 5126,
      "count": 2092,
      "max": [
        7.61154842376709,
        1.4501307010650635,
        0.026247024536132813
      ],
      "min": [
        0.0,
        -0.026247024536132813,
        -0.02624671906232834
      ],
      "type": "VEC3"
    },
    {
      "bufferView": 10,
      "byteOffset": 12,
      "componentType": 5126,
      "count": 2092,
      "type": "VEC3"
    },
    {
      "bufferView": 11,
      "componentType": 5125,
      "count": 10752,
      "type": "SCALAR"
    },
    {
      "bufferView": 12,
      "componentType": 5126,
      "count": 2036,
      "max": [
        7.61154842376709,
        0.02624678611755371,
        0.026247024536132813
      ],
      "min": [
        0.0,
        -0.02624678611755371,
        -1.1220464706420898
      ],
      "type": "VEC3"
    },
    {
      "bufferView": 12,
      "byteOffset": 12,
      "componentType": 5126,
      "count": 2036,
      "type": "VEC3"
    },
    {
      "bufferView": 13,
      "componentType": 5125,
      "count": 10440,
      "type": "SCALAR"
    },
    {
      "bufferView": 14,
      "componentType": 5126,
      "count": 2036,
      "max": [
        7.611548900604248,
        0.02624678611755371,
        1.1220474243164063
      ],
      "min": [
        0.0,
        -0.02624678611755371,
        -0.02624671906232834
      ],
      "type": "VEC3"
    },
    {
      "bufferView": 14,
      "byteOffset": 12,
      "componentType": 5126,
      "count": 2036,
      "type": "VEC3"
    },
    {
      "bufferView": 15,
      "componentType": 5125,
      "count": 10440,
      "type": "SCALAR"
    },
    {
      "bufferView": 16,
      "componentType": 5126,
      "count": 2092,
      "max": [
        7.61154842376709,
        0.02624671906232834,
        0.02624678611755371
      ],
      "min": [
        0.0,
        -1.4501315355300903,
        -0.02624671906232834
      ],
      "type": "VEC3"
    },
    {
      "bufferView": 16,
      "byteOffset": 12,
      "componentType": 5126,
      "count": 2092,
      "type": "VEC3"
    },
    {
      "bufferView": 17,
      "componentType": 5125,
      "count": 10752,
      "type": "SCALAR"
    }
  ],
  "asset": {
    "version": "2.0"
  },
  "bufferViews": [
    {
      "buffer": 0,
      "byteLength": 576384,
      "byteStride": 32,
      "target": 34962
    },
    {
      "buffer": 0,
      "byteLength": 313632,
      "byteOffset": 576384,
      "target": 34963
    },
    {
      "buffer": 0,
      "byteLength": 66976,
      "byteOffset": 890016,
      "byteStride": 32,
      "target": 34962
    },
    {
      "buffer": 0,
      "byteLength": 42660,
      "byteOffset": 956992,
      "target": 34963
    },
    {
      "buffer": 0,
      "byteLength": 66976,
      "byteOffset": 999652,
      "byteStride": 32,
      "target": 34962
    },
    {
      "buffer": 0,
      "byteLength": 42660,
      "byteOffset": 1066628,
      "target": 34963
    },
    {
      "buffer": 0,
      "byteLength": 66976,
      "byteOffset": 1109288,
      "byteStride": 32,
      "target": 34962
    },
    {
      "buffer": 0,
      "byteLength": 42660,
      "byteOffset": 1176264,
      "target": 34963
    },
    {
      "buffer": 0,
      "byteLength": 66976,
      "byteOffset": 1218924,
      "byteStride": 32,
      "target": 34962
    },
    {
      "buffer": 0,
      "byteLength": 42660,
      "byteOffset": 1285900,
      "target": 34963
    },
    {
      "buffer": 0,
      "byteLength": 66944,
      "byteOffset": 1328560,
      "byteStride": 32,
      "target": 34962
    },
    {
      "buffer": 0,
      "byteLength": 43008,
      "byteOffset": 1395504,
      "target": 34963
    },
    {
      "buffer": 0,
      "byteLength": 65152,
      "byteOffset": 1438512,
      "byteStride": 32,
      "target": 34962
    },
    {
      "buffer": 0,
      "byteLength": 41760,
      "byteOffset": 1503664,
      "target": 34963
    },
    {
      "buffer": 0,
      "byteLength": 65152,
      "byteOffset": 1545424,
      "byteStride": 32,
      "target": 34962
    },
    {
      "buffer": 0,
      "byteLength": 41760,
      "byteOffset": 1610576,
      "target": 34963
    },
    {
      "buffer": 0,
      "byteLength": 66944,
      "byteOffset": 1652336,
      "byteStride": 32,
      "target": 34962
    },
    {
      "buffer": 0,
      "byteLength": 43008,
      "byteOffset": 1719280,
      "target": 34963
    }
  ],
  "buffers": [
    {
      "byteLength": 1762288,
      "uri": "13-10-2025.bin"
    }
  ],
  "materials": [
    {
      "name": "Steel_Rebar___B500A__B_or_C",
      "pbrMetallicRoughness": {
        "baseColorFactor": [
          0.4391480088233948,
          0.21267099678516388,
          0.1043580025434494,
          1.0
        ],
        "metallicFactor": 0.0,
        "roughnessFactor": 0.4242599904537201
      }
    }
  ],
  "meshes": [
    {
      "name": "Rebar Bar H10 : Shape 52 [368273]_[319274]001",
      "primitives": [
        {
          "attributes": {
            "NORMAL": 1,
            "POSITION": 0
          },
          "indices": 2,
          "material": 0,
          "mode": 4
        }
      ]
    },
    {
      "name": "Rebar Bar H20 : Shape Rebar Shape 1 [368274]_[319274]001",
      "primitives": [
        {
          "attributes": {
            "NORMAL": 4,
            "POSITION": 3
          },
          "indices": 5,
          "material": 0,
          "mode": 4
        }
      ]
    },
    {
      "name": "Rebar Bar H20 : Shape Rebar Shape 1 [368275]_[319274]001",
      "primitives": [
        {
          "attributes": {
            "NORMAL": 7,
            "POSITION": 6
          },
          "indices": 8,
          "material": 0,
          "mode": 4
        }
      ]
    },
    {
      "name": "Rebar Bar H20 : Shape Rebar Shape 1 [368276]_[319274]001",
      "primitives": [
        {
          "attributes": {
            "NORMAL": 10,
            "POSITION": 9
          },
          "indices": 11,
          "material": 0,
          "mode": 4
        }
      ]
    },
    {
      "name": "Rebar Bar H20 : Shape Rebar Shape 1 [368277]_[319274]001",
      "primitives": [
        {
          "attributes": {
            "NORMAL": 13,
            "POSITION": 12
          },
          "indices": 14,
          "material": 0,
          "mode": 4
        }
      ]
    },
    {
      "name": "Rebar Bar H16 : Shape Rebar Shape 1 [368278]_[319274]001",
      "primitives": [
        {
          "attributes": {
            "NORMAL": 16,
            "POSITION": 15
          },
          "indices": 17,
          "material": 0,
          "mode": 4
        }
      ]
    },
    {
      "name": "Rebar Bar H16 : Shape Rebar Shape 1 [368279]_[319274]001",
      "primitives": [
        {
          "attributes": {
            "NORMAL": 19,
            "POSITION": 18
          },
          "indices": 20,
          "material": 0,
          "mode": 4
        }
      ]
    },
    {
      "name": "Rebar Bar H16 : Shape Rebar Shape 1 [368280]_[319274]001",
      "primitives": [
        {
          "attributes": {
            "NORMAL": 22,
            "POSITION": 21
          },
          "indices": 23,
          "material": 0,
          "mode": 4
        }
      ]
    },
    {
      "name": "Rebar Bar H16 : Shape Rebar Shape 1 [368281]_[319274]001",
      "primitives": [
        {
          "attributes": {
            "NORMAL": 25,
            "POSITION": 24
          },
          "indices": 26,
          "material": 0,
          "mode": 4
        }
      ]
    }
  ],
  "nodes": [
    {
      "matrix": [
        0.0254,
        0.0,
        0.0,
        0.0,
        0.0,
        0.0254,
        0.0,
        0.0,
        0.0,
        0.0,
        0.0254,
        0.0,
        0.0,
        0.0,
        0.0,
        1.0
      ],
      "mesh": 0,
      "name": "Rebar Bar H10 : Shape 52 [368273]_[319274]001"
    },
    {
      "children": [
        0
      ],
      "matrix": [
        8.485280990600586,
        0.0,
        8.485280990600586,
        0.0,
        8.485280990600586,
        0.0,
        -8.485280990600586,
        0.0,
        0.0,
        12.0,
        0.0,
        0.0,
        -1.048139995574951,
        -0.06500000534057616,
        -0.9737454086303711,
        1.0
      ]
    },
    {
      "matrix": [
        0.0254,
        0.0,
        0.0,
        0.0,
        0.0,
        0.0254,
        0.0,
        0.0,
        0.0,
        0.0,
        0.0254,
        0.0,
        0.0,
        0.0,
        0.0,
        1.0
      ],
      "mesh": 1,
      "name": "Rebar Bar H20 : Shape Rebar Shape 1 [368274]_[319274]001"
    },
    {
      "children": [
        2
      ],
      "matrix": [
        -5.245366310191457e-07,
        -12.0,
        -0.0,
        0.0,
        0.0,
        0.0,
        -12.0,
        0.0,
        12.0,
        -5.245366310191457e-07,
        0.0,
        0.0,
        -1.1268226928710936,
        -0.05999999561309814,
        -1.0877834091186522,
        1.0
      ]
    },
    {
      "matrix": [
        0.0254,
        0.0,
        0.0,
        0.0,
        0.0,
        0.0254,
        0.0,
        0.0,
        0.0,
        0.0,
        0.0254,
        0.0,
        0.0,
        0.0,
        0.0,
        1.0
      ],
      "mesh": 2,
      "name": "Rebar Bar H20 : Shape Rebar Shape 1 [368275]_[319274]001"
    },
    {
      "children": [
        4
      ],
      "matrix": [
        -5.245366310191457e-07,
        -12.0,
        -0.0,
        0.0,
        0.0,
        0.0,
        -12.0,
        0.0,
        12.0,
        -5.245366310191457e-07,
        0.0,
        0.0,
        -0.9526806091308594,
        -0.05999999561309814,
        -1.0878757484436035,
        1.0
      ]
    },
    {
      "matrix": [
        0.0254,
        0.0,
        0.0,
        0.0,
        0.0,
        0.0254,
        0.0,
        0.0,
        0.0,
        0.0,
        0.0254,
        0.0,
        0.0,
        0.0,
        0.0,
        1.0
      ],
      "mesh": 3,
      "name": "Rebar Bar H20 : Shape Rebar Shape 1 [368276]_[319274]001"
    },
    {
      "children": [
        6
      ],
      "matrix": [
        -5.245366310191457e-07,
        -12.0,
        -0.0,
        0.0,
        0.0,
        0.0,
        -12.0,
        0.0,
        12.0,
        -5.245366310191457e-07,
        0.0,
        0.0,
        -0.9526806091308594,
        -0.05999999561309814,
        -0.9136413253784179,
        1.0
      ]
    },
    {
      "matrix": [
        0.0254,
        0.0,
        0.0,
        0.0,
        0.0,
        0.0254,
        0.0,
        0.0,
        0.0,
        0.0,
        0.0254,
        0.0,
        0.0,
        0.0,
        0.0,
        1.0
      ],
      "mesh": 4,
      "name": "Rebar Bar H20 : Shape Rebar Shape 1 [368277]_[319274]001"
    },
    {
      "children": [
        8
      ],
      "matrix": [
        -5.245366310191457e-07,
        -12.0,
        -0.0,
        0.0,
        0.0,
        0.0,
        -12.0,
        0.0,
        12.0,
        -5.245366310191457e-07,
        0.0,
        0.0,
        -1.1268226928710936,
        -0.05999999561309814,
        -0.9136413253784179,
        1.0
      ]
    },
    {
      "matrix": [
        0.0254,
        0.0,
        0.0,
        0.0,
        0.0,
        0.0254,
        0.0,
        0.0,
        0.0,
        0.0,
        0.0254,
        0.0,
        0.0,
        0.0,
        0.0,
        1.0
      ],
      "mesh": 5,
      "name": "Rebar Bar H16 : Shape Rebar Shape 1 [368278]_[319274]001"
    },
    {
      "children": [
        10
      ],
      "matrix": [
        -5.245366310191457e-07,
        -12.0,
        -0.0,
        0.0,
        0.0,
        0.0,
        -12.0,
        0.0,
        12.0,
        -5.245366310191457e-07,
        0.0,
        0.0,
        -1.0401108345031738,
        -0.05999999561309814,
        -1.0927957000732422,
        1.0
      ]
    },
    {
      "matrix": [
        0.0254,
        0.0,
        0.0,
        0.0,
        0.0,
        0.0254,
        0.0,
        0.0,
        0.0,
        0.0,
        0.0254,
        0.0,
        0.0,
        0.0,
        0.0,
        1.0
      ],
      "mesh": 6,
      "name": "Rebar Bar H16 : Shape Rebar Shape 1 [368279]_[319274]001"
    },
    {
      "children": [
        12
      ],
      "matrix": [
        -5.245366310191457e-07,
        -12.0,
        -0.0,
        0.0,
        0.0,
        0.0,
        -12.0,
        0.0,
        12.0,
        -5.245366310191457e-07,
        0.0,
        0.0,
        -1.1317516555786131,
        -0.05999999561309814,
        -1.001164665222168,
        1.0
      ]
    },
    {
      "matrix": [
        0.0254,
        0.0,
        0.0,
        0.0,
        0.0,
        0.0254,
        0.0,
        0.0,
        0.0,
        0.0,
        0.0254,
        0.0,
        0.0,
        0.0,
        0.0,
        1.0
      ],
      "mesh": 7,
      "name": "Rebar Bar H16 : Shape Rebar Shape 1 [368280]_[319274]001"
    },
    {
      "children": [
        14
      ],
      "matrix": [
        -5.245366310191457e-07,
        -12.0,
        -0.0,
        0.0,
        0.0,
        0.0,
        -12.0,
        0.0,
        12.0,
        -5.245366310191457e-07,
        0.0,
        0.0,
        -0.9484798965454101,
        -0.05999999561309814,
        -1.001164665222168,
        1.0
      ]
    },
    {
      "matrix": [
        0.0254,
        0.0,
        0.0,
        0.0,
        0.0,
        0.0254,
        0.0,
        0.0,
        0.0,
        0.0,
        0.0254,
        0.0,
        0.0,
        0.0,
        0.0,
        1.0
      ],
      "mesh": 8,
      "name": "Rebar Bar H16 : Shape Rebar Shape 1 [368281]_[319274]001"
    },
    {
      "children": [
        16
      ],
      "matrix": [
        -5.245366310191457e-07,
        -12.0,
        -0.0,
        0.0,
        0.0,
        0.0,
        -12.0,
        0.0,
        12.0,
        -5.245366310191457e-07,
        0.0,
        0.0,
        -1.0394958526611329,
        -0.05999999561309814,
        -0.9089187454223633,
        1.0
      ]
    }
  ],
  "scenes": [
    {
      "nodes": [
        1,
        3,
        5,
        7,
        9,
        11,
        13,
        15,
        17
      ]
    }
  ]
}
